{
.appVersion = "3134";
.formatVersion = 3;
classes = (
{
code = "A Aacute Abreve Acircumflex Adieresis Agrave Amacron Aogonek Aring Atilde AE B C Cacute Ccaron Ccedilla Cdotaccent D Eth Dcaron Dcroat E Eacute Ecaron Ecircumflex Edieresis Edotaccent Egrave Emacron Eogonek F G Gbreve Gdotaccent H Hbar I Iacute Icircumflex Idieresis Idotaccent Igrave Imacron Iogonek J K L Lacute Lcaron Ldot Lslash M N Nacute Ncaron Ntilde Eng O Oacute Ocircumflex Odieresis Ograve Ohungarumlaut Omacron Oslash Otilde OE P Thorn Q R Racute Rcaron S Sacute Scaron Scedilla T Tbar Tcaron U Uacute Ucircumflex Udieresis Ugrave Uhungarumlaut Umacron Uogonek Uring V W Wacute Wcircumflex Wdieresis Wgrave X Y Yacute Ycircumflex Ydieresis Ygrave Z Zacute Zcaron Zdotaccent A_E A_O C_H C_Q D_E E_A Eacute_E E_S E_U E_T_E F_F_E F_V I_E I_L L_E L_L_E L_U M_P N_A N_E N_N_E O_F O_T_E O_Idieresis P_M R_E R_I_C_E R_S S_E S_L S_S_E S_T_E_S T_E T_T_E U_E U_L_L_E X_C_E X_L X_S_E X_S_S ";
name = Uppercase;
}
);
customParameters = (
{
name = panose;
value = (
0,
0,
10,
0,
0,
0,
0,
0,
0,
0
);
},
{
name = unicodeRanges;
value = (
0,
1,
2
);
},
{
name = codePageRanges;
value = (
"1252",
"1250",
"1254",
"1257",
"bit 29"
);
},
{
name = blueScale;
value = 0.037;
},
{
name = glyphOrder;
value = (
.notdef,
A,
Aacute,
Abreve,
Acircumflex,
Adieresis,
Agrave,
Amacron,
Aogonek,
Aring,
Atilde,
AE,
B,
C,
Cacute,
Ccaron,
Ccedilla,
Cdotaccent,
D,
Eth,
Dcaron,
Dcroat,
E,
Eacute,
Ecaron,
Ecircumflex,
Edieresis,
Edotaccent,
Egrave,
Emacron,
Eogonek,
F,
G,
Gbreve,
Gcommaaccent,
Gdotaccent,
H,
Hbar,
I,
IJ,
Iacute,
Icircumflex,
Idieresis,
Idotaccent,
Igrave,
Imacron,
Iogonek,
J,
K,
Kcommaaccent,
L,
Lacute,
Lcaron,
Lcommaaccent,
Ldot,
Lslash,
M,
N,
Nacute,
Ncaron,
Ncommaaccent,
Eng,
Ntilde,
O,
Oacute,
Ocircumflex,
Odieresis,
Ograve,
Ohungarumlaut,
Omacron,
Oslash,
Otilde,
OE,
P,
Thorn,
Q,
R,
Racute,
Rcaron,
Rcommaaccent,
S,
Sacute,
Scaron,
Scedilla,
Scommaaccent,
T,
Tbar,
Tcaron,
Tcedilla,
uni021A,
U,
Uacute,
Ucircumflex,
Udieresis,

glyphs = (
{
glyphname = .notdef;
lastChange = "2022-11-29 13:20:18 +0000";
layers = (
{
hints = (
{
horizontal = 1;
place = (0, 50);
place = (0, 50);
type = Stem;
},
{
horizontal = 1;
place = (650, 50);
place = (650, 50);
type = Stem;
},
{
place = (0, 50);
place = (0, 50);
type = Stem;
},
{
place = (450, 50);
place = (450, 50);
type = Stem;
}
);
layerId = m01;
shapes = (
{
closed = 1;
nodes = (
(0,95,ls),
(0,34,o),
(34,0,o),
(95,0,cs),
(405,0,ls),
(466,0,o),
(500,34,o),
(500,95,cs),
(500,605,ls),
(500,666,o),
(466,700,o),
(405,700,cs),
(95,700,ls),
(34,700,o),
(0,666,o),
(0,605,cs)
);
},
{
closed = 1;
nodes = (
(250,395,l),
(80,650,l),
(420,650,l)
);
},
{
closed = 1;
nodes = (
(280,350,l),
(450,605,l),
(450,95,l)
);
},
{
closed = 1;
nodes = (
(80,50,l),
(250,305,l),
(420,50,l)
);
},
{
closed = 1;
nodes = (
(50,605,l),
(220,350,l),
(50,95,l)
);
}
);
width = 500;
}
);
note = ".notdef";
},
{
glyphname = A;
kernLeft = A;
kernRight = A;
lastChange = "2022-11-29 13:20:18 +0000";
layers = (
{
hints = (
{
horizontal = 1;
place = (0, 21);
target = up;
type = BottomGhost;
},
{
horizontal = 1;
place = (179, 140);
place = (179, 140);
type = Stem;
},
{
horizontal = 1;
place = (690, -20);
target = down;
type = TopGhost;
},
{
place = (4, 718);
place = (4, 718);
type = Stem;
},
{
horizontal = 1;
place = (531, 159);
place = (531, 159);
type = Stem;
}
);
layerId = m01;
shapes = (
{
closed = 1;
nodes = (
(468,179,l),
(508,54,ls),
(520,18,o),
(555,-9,o),
(595,-9,cs),
(646,-9,o),
(687,32,o),
(687,82,cs),
(687,93,o),
(684,103,o),
(681,113,cs),
(500,614,ls),
(481,665,o),
(447,690,o),
(392,690,cs),
(334,690,ls),
(279,690,o),
(245,665,o),
(226,614,cs),
(44,110,ls),
(41,101,o),
(38,91,o),
(38,80,cs),
(38,31,o),
(78,-9,o),
(127,-9,cs),
(167,-9,o),
(201,18,o),
(212,53,cs),
(253,179,l)
);
},
{
closed = 1;
nodes = (
(361,531,l),
(425,319,l),
(297,319,l)
);
}
);
width = 707;
}
);
note = A;
unicode = 65;
},
{
glyphname = Aacute;
kernLeft = A;
kernRight = A;
lastChange = "2022-11-29 13:20:18 +0000";
layers = (
{
hints = (
{
horizontal = 1;
place = (0, 21);
target = up;
type = BottomGhost;
},
{
horizontal = 1;
place = (179, 140);
place = (179, 140);
type = Stem;
},
{
horizontal = 1;
place = (690, -20);
target = down;
type = TopGhost;
},
{
horizontal = 1;
place = (735, 125);
place = (735, 125);
type = Stem;
},
{
place = (4, 718);
place = (4, 718);
type = Stem;
},
{
horizontal = 1;
place = (531, 159);
place = (531, 159);
type = Stem;
}
);
layerId = m01;
shapes = (
{
closed = 1;
nodes = (
(381,727,cs),
(455,799,o),
(490,874,o),
(439,869,cs),
(437,869,o),
(435,868,o),
(433,868,cs),
(386,857,o),
(347,822,o),
(341,775,cs),
(340,771,o),
(340,768,o),
(340,765,cs),
(340,744,o),
(358,726,o),
(380,726,c),
(380,726,o),
(380,726,o)
);
},
{
closed = 1;
nodes = (
(468,179,l),
(508,54,ls),
(520,18,o),
(555,-9,o),
(595,-9,cs),
(646,-9,o),
(687,32,o),
(687,82,cs),
(687,93,o),
(684,103,o),
(681,113,cs),
(500,614,ls),
(481,665,o),
(447,690,o),
(392,690,cs),
(334,690,ls),
(279,690,o),
(245,665,o),
(226,614,cs),
(44,110,ls),
(41,101,o),
(38,91,o),
(38,80,cs),
(38,31,o),
(78,-9,o),
(127,-9,cs),
(167,-9,o),
(201,18,o),
(212,53,cs),
(253,179,l)
);
},
{
closed = 1;
nodes = (
(361,531,l),
(425,319,l),
(297,319,l)
);
}
);
width = 707;
}
);
note = Aacute;
unicode = 193;
},
{
glyphname = Abreve;
kernLeft = A;
kernRight = A;
lastChange = "2022-11-29 13:20:18 +0000";
layers = (
{
hints = (
{
horizontal = 1;
place = (0, 21);
target = up;
type = BottomGhost;
},
{
horizontal = 1;
place = (179, 140);
place = (179, 140);
type = Stem;
},
{
horizontal = 1;
place = (690, -20);
target = down;
type = TopGhost;
},
{
horizontal = 1;
place = (728, 132);
place = (728, 132);
type = Stem;
},
{
place = (228, 90);
place = (228, 90);
type = Stem;
},
{
place = (408, 90);
place = (408, 90);
type = Stem;
},
{
horizontal = 1;
place = (531, 159);
place = (531, 159);
type = Stem;
}
);
layerId = m01;
shapes = (
{
closed = 1;
nodes = (
(419,728,o),
(471,748,o),
(490,810,cs),
(491,815,o),
(492,819,o),
(492,824,cs),
(492,849,o),
(471,870,o),
(446,870,cs),
(426,870,o),
(409,856,o),
(403,839,cs),
(396,821,o),
(383,813,o),
(363,813,cs),
(343,813,o),
(330,821,o),
(323,839,cs),
(317,857,o),
(300,870,o),
(280,870,cs),
(254,870,o),
(234,849,o),
(234,824,cs),
(234,819,o),
(235,815,o),
(236,810,cs),
(255,749,o),
(306,728,o),
(363,728,cs)
);
},
{
closed = 1;
nodes = (
(468,179,l),
(508,54,ls),
(520,18,o),
(555,-9,o),
(595,-9,cs),
(646,-9,o),
(687,32,o),
(687,82,cs),
(687,93,o),
(684,103,o),
(681,113,cs),
(500,614,ls),
(481,665,o),
(447,690,o),
(392,690,cs),
(334,690,ls),
(279,690,o),
(245,665,o),
(226,614,cs),
(44,110,ls),
(41,101,o),
(38,91,o),
(38,80,cs),
(38,31,o),
(78,-9,o),
(127,-9,cs),
(167,-9,o),
(201,18,o),
(212,53,cs),
(253,179,l)
);
},
{
closed = 1;
nodes = (
(361,531,l),
(425,319,l),
(297,319,l)
);
}
);
width = 707;
}
);
note = Abreve;
unicode = 258;
},
{
glyphname = Acircumflex;
kernLeft = A;
kernRight = A;
lastChange = "2022-11-29 13:20:18 +0000";
layers = (
{
hints = (
{
horizontal = 1;
place = (0, 21);
target = up;
type = BottomGhost;
},
{
horizontal = 1;
place = (179, 140);
place = (179, 140);
type = Stem;
},
{
horizontal = 1;
place = (690, -20);
target = down;
type = TopGhost;
},
{
horizontal = 1;
place = (735, 125);
place = (735, 125);
type = Stem;
},
{
place = (4, 718);
place = (4, 718);
type = Stem;
},
{
horizontal = 1;
place = (531, 159);
place = (531, 159);
type = Stem;
}
);
layerId = m01;
shapes = (
{
closed = 1;
nodes = (
(338,754,cs),
(362,811,l),
(379,773,ls),
(391,747,o),
(400,735,o),
(409,735,cs),
(443,735,o),
(472,763,o),
(472,797,cs),
(472,832,o),
(443,860,o),
(409,860,cs),
(323,860,ls),
(279,860,o),
(247,822,o),
(250,784,c),
(251,780,o),
(250,776,o),
(250,772,cs),
(250,746,o),
(271,726,o),
(296,726,cs),
(315,726,o),
(331,737,o)
);
},
{
closed = 1;
nodes = (
(468,179,l),
(508,54,ls),
(520,18,o),
(555,-9,o),
(595,-9,cs),
(646,-9,o),
(687,32,o),
(687,82,cs),
(687,93,o),
(684,103,o),
(681,113,cs),
(500,614,ls),
(481,665,o),
(447,690,o),
(392,690,cs),
(334,690,ls),
(279,690,o),
(245,665,o),
(226,614,cs),
(44,110,ls),
(41,101,o),
(38,91,o),
(38,80,cs),
(38,31,o),
(78,-9,o),
(127,-9,cs),
(167,-9,o),
(201,18,o),
(212,53,cs),
(253,179,l)
);
},
{
closed = 1;
nodes = (
(361,531,l),
(425,319,l),
(297,319,l)
);
}
);
width = 707;
}
);
note = Acircumflex;
unicode = 194;
},
{
glyphname = Adieresis;
kernLeft = A;
kernRight = A;
lastChange = "2022-11-29 13:20:18 +0000";
layers = (
{
hints = (
{
horizontal = 1;
place = (0, 21);
target = up;
type = BottomGhost;
},
{
horizontal = 1;
place = (179, 140);
place = (179, 140);
type = Stem;
},
{
horizontal = 1;
place = (690, -20);
target = down;
type = TopGhost;
},
{
horizontal = 1;
place = (722, 146);
place = (722, 146);
type = Stem;
},
{
place = (188, 150);
place = (188, 150);
type = Stem;
},
{
place = (388, 150);
place = (388, 150);
type = Stem;
},
{
horizontal = 1;
place = (531, 159);
place = (531, 159);
type = Stem;
}
);
layerId = m01;
shapes = (
{
closed = 1;
nodes = (
(468,179,l),
(508,54,ls),
(520,18,o),
(555,-9,o),
(595,-9,cs),
(646,-9,o),
(687,32,o),
(687,82,cs),
(687,93,o),
(684,103,o),
(681,113,cs),
(500,614,ls),
(481,665,o),
(447,690,o),
(392,690,cs),
(334,690,ls),
(279,690,o),
(245,665,o),
(226,614,cs),
(44,110,ls),
(41,101,o),
(38,91,o),
(38,80,cs),
(38,31,o),
(78,-9,o),
(127,-9,cs),
(167,-9,o),
(201,18,o),
(212,53,cs),
(253,179,l)
);
},
{
closed = 1;
nodes = (
(361,531,l),
(425,319,l),
(297,319,l)
);
},
{
closed = 1;
nodes = (
(254,724,cs),
(276,724,ls),
(315,724,o),
(348,756,o),
(348,796,cs),
(348,806,o),
(346,816,o),
(342,824,cs),
(328,856,o),
(299,880,o),
(264,880,cs),
(252,880,o),
(241,877,o),
(231,872,cs),
(202,858,o),
(180,830,o),
(180,798,cs),
(180,757,o),
(214,724,o)
);
},
{
closed = 1;
nodes = (
(455,724,cs),
(477,724,ls),
(516,724,o),
(549,756,o),
(549,796,cs),
(549,806,o),
(547,816,o),
(543,824,cs),
(529,856,o),
(500,880,o),
(465,880,cs),
(453,880,o),
(442,877,o),
(432,872,cs),
(403,858,o),
(381,830,o),
(381,798,cs),
(381,757,o),
(415,724,o)
);
}
);
width = 707;
}
);
note = Adieresis;
unicode = 196;
},
{
glyphname = Agrave;
kernLeft = A;
kernRight = A;
lastChange = "2022-11-29 13:20:18 +0000";
layers = (
{
hints = (
{
horizontal = 1;
place = (0, 21);
target = up;
type = BottomGhost;
},
{
horizontal = 1;
place = (179, 140);
place = (179, 140);
type = Stem;
},
{
horizontal = 1;
place = (690, -20);
target = down;
type = TopGhost;
},
{
horizontal = 1;
place = (735, 125);
place = (735, 125);
type = Stem;
},
{
place = (4, 718);
place = (4, 718);
type = Stem;
},
{
horizontal = 1;
place = (531, 159);
place = (531, 159);
type = Stem;
}
);
layerId = m01;
shapes = (
{
closed = 1;
nodes = (
(327,729,cs),
(331,727,o),
(337,726,o),
(343,726,cs),
(367,726,o),
(388,746,o),
(388,771,cs),
(388,780,o),
(384,790,o),
(379,797,cs),
(348,839,o),
(282,863,o),
(274,807,cs),
(273,803,o),
(273,800,o),
(273,797,cs),
(273,766,o),
(297,740,o)
);
},
{
closed = 1;
nodes = (
(468,179,l),
(508,54,ls),
(520,18,o),
(555,-9,o),
(595,-9,cs),
(646,-9,o),
(687,32,o),
(687,82,cs),
(687,93,o),
(684,103,o),
(681,113,cs),
(500,614,ls),
(481,665,o),
(447,690,o),
(392,690,cs),
(334,690,ls),
(279,690,o),
(245,665,o),
(226,614,cs),
(44,110,ls),
(41,101,o),
(38,91,o),
(38,80,cs),
(38,31,o),
(78,-9,o),
(127,-9,cs),
(167,-9,o),
(201,18,o),
(212,53,cs),
(253,179,l)
);
},
{
closed = 1;
nodes = (
(361,531,l),
(425,319,l),
(297,319,l)
);
}
);
width = 707;
}
);
note = Agrave;
unicode = 192;
},
{
glyphname = Amacron;
kernLeft = A;
kernRight = A;
lastChange = "2022-11-29 13:20:18 +0000";
layers = (
{
hints = (
{
horizontal = 1;
place = (0, 21);
target = up;
type = BottomGhost;
},
{
horizontal = 1;
place = (179, 140);
place = (179, 140);
type = Stem;
},
{
horizontal = 1;
place = (690, -20);
target = down;
type = TopGhost;
},
{
horizontal = 1;
place = (760, 96);
place = (760, 96);
type = Stem;
},
{
place = (213, 300);
place = (213, 300);
type = Stem;
},
{
horizontal = 1;
place = (531, 159);
place = (531, 159);
type = Stem;
}
);
layerId = m01;
shapes = (
{
closed = 1;
nodes = (
(474,760,ls),
(500,760,o),
(522,781,o),
(522,808,cs),
(522,835,o),
(500,856,o),
(474,856,cs),
(252,856,ls),
(226,856,o),
(204,835,o),
(204,808,cs),
(204,781,o),
(226,760,o),
(252,760,cs)
);
},
{
closed = 1;
nodes = (
(468,179,l),
(508,54,ls),
(520,18,o),
(555,-9,o),
(595,-9,cs),
(646,-9,o),
(687,32,o),
(687,82,cs),
(687,93,o),
(684,103,o),
(681,113,cs),
(500,614,ls),
(481,665,o),
(447,690,o),
(392,690,cs),
(334,690,ls),
(279,690,o),
(245,665,o),
(226,614,cs),
(44,110,ls),
(41,101,o),
(38,91,o),
(38,80,cs),
(38,31,o),
(78,-9,o),
(127,-9,cs),
(167,-9,o),
(201,18,o),
(212,53,cs),
(253,179,l)
);
},
{
closed = 1;
nodes = (
(361,531,l),
(425,319,l),
(297,319,l)
);
}
);
width = 707;
}
);
note = Amacron;
unicode = 256;
},
{
glyphname = Aogonek;
kernLeft = A;
kernRight = A;
lastChange = "2022-11-29 13:20:18 +0000";
layers = (
{
hints = (
{
horizontal = 1;
place = (-223, 102);
place = (-223, 102);
type = Stem;
},
{
horizontal = 1;
place = (0, 21);
target = up;
type = BottomGhost;
},
{
horizontal = 1;
place = (179, 140);
place = (179, 140);
type = Stem;
},
{
horizontal = 1;
place = (690, -20);
target = down;
type = TopGhost;
},
{
place = (440, 249);
place = (440, 249);
type = Stem;
},
{
horizontal = 1;
place = (531, 159);
place = (531, 159);
type = Stem;
},
{
place = (4, 718);
place = (4, 718);
type = Stem;
}
);
layerId = m01;
shapes = (
{
closed = 1;
nodes = (
(604,-34,o),
(622,-3,o),
(646,-8,cs),
(676,-15,o),
(705,9,o),
(705,40,cs),
(705,46,o),
(704,50,o),
(702,56,cs),
(500,614,ls),
(481,665,o),
(447,690,o),
(392,690,cs),
(334,690,ls),
(279,690,o),
(245,665,o),
(226,614,cs),
(44,110,ls),
(41,101,o),
(38,91,o),
(38,80,cs),
(38,31,o),
(78,-9,o),
(127,-9,cs),
(167,-9,o),
(201,18,o),
(212,53,cs),
(253,179,l),
(468,179,l),
(525,4,l),
(480,-21,o),
(440,-78,o),
(440,-137,cs),
(440,-201,o),
(488,-223,o),
(554,-223,cs),
(609,-223,o),
(648,-207,o),
(683,-184,cs),
(693,-177,o),
(698,-167,o),
(698,-155,cs),
(698,-133,o),
(676,-116,o),
(655,-120,cs),
(652,-121,o),
(648,-121,o),
(645,-121,cs),
(625,-121,o),
(604,-108,o),
(604,-70,cs)
);
},
{
closed = 1;
nodes = (
(361,531,l),
(425,319,l),
(297,319,l)
);
}
);
width = 707;
}
);
note = Aogonek;
unicode = 260;
},
{
glyphname = Aring;
kernLeft = A;
kernRight = A;
lastChange = "2022-11-29 13:20:18 +0000";
layers = (
{
hints = (
{
horizontal = 1;
place = (0, 21);
target = up;
type = BottomGhost;
},
{
horizontal = 1;
place = (179, 140);
place = (179, 140);
type = Stem;
},
{
horizontal = 1;
place = (690, -20);
target = down;
type = TopGhost;
},
{
horizontal = 1;
place = (722, 66);
place = (722, 66);
type = Stem;
},
{
horizontal = 1;
place = (866, 66);
place = (866, 66);
type = Stem;
},
{
place = (244, 83);
place = (244, 83);
type = Stem;
},
{
place = (399, 83);
place = (399, 83);
type = Stem;
},
{
horizontal = 1;
place = (531, 159);
place = (531, 159);
type = Stem;
}
);
layerId = m01;
shapes = (
{
closed = 1;
nodes = (
(433,722,o),
(482,765,o),
(482,827,cs),
(482,889,o),
(433,932,o),
(363,932,cs),
(293,932,o),
(244,889,o),
(244,827,cs),
(244,765,o),
(293,722,o),
(363,722,cs)
);
},
{
closed = 1;
nodes = (
(384,866,o),
(399,850,o),
(399,827,cs),
(399,804,o),
(384,788,o),
(363,788,cs),
(342,788,o),
(327,804,o),
(327,827,cs),
(327,850,o),
(342,866,o),
(363,866,cs)
);
},
{
closed = 1;
nodes = (
(468,179,l),
(508,54,ls),
(520,18,o),
(555,-9,o),
(595,-9,cs),
(646,-9,o),
(687,32,o),
(687,82,cs),
(687,93,o),
(684,103,o),
(681,113,cs),
(500,614,ls),
(481,665,o),
(447,690,o),
(392,690,cs),
(334,690,ls),
(279,690,o),
(245,665,o),
(226,614,cs),
(44,110,ls),
(41,101,o),
(38,91,o),
(38,80,cs),
(38,31,o),
(78,-9,o),
(127,-9,cs),
(167,-9,o),
(201,18,o),
(212,53,cs),
(253,179,l)
);
},
{
closed = 1;
nodes = (
(361,531,l),
(425,319,l),
(297,319,l)
);
}
);
width = 707;
}
);
note = Aring;
unicode = 197;
},
{
glyphname = Atilde;
kernLeft = A;
kernRight = A;
lastChange = "2022-11-29 13:20:18 +0000";
layers = (
{
hints = (
{
horizontal = 1;
place = (0, 21);
target = up;
type = BottomGhost;
},
{
horizontal = 1;
place = (179, 140);
place = (179, 140);
type = Stem;
},
{
horizontal = 1;
place = (690, -20);
target = down;
type = TopGhost;
},
{
horizontal = 1;
place = (742, 134);
place = (742, 134);
type = Stem;
},
{
place = (199, 96);
place = (199, 96);
type = Stem;
},
{
place = (431, 96);
place = (431, 96);
type = Stem;
},
{
horizontal = 1;
place = (739, 134);
place = (739, 134);
type = Stem;
},
{
horizontal = 1;
place = (531, 159);
place = (531, 159);
type = Stem;
}
);
layerId = m01;
shapes = (
{
closed = 1;
nodes = (
(318,773,o),
(331,768,o),
(355,758,cs),
(392,742,o),
(408,739,o),
(437,739,cs),
(486,739,o),
(514,765,o),
(523,826,cs),
(527,855,o),
(505,882,o),
(475,882,cs),
(454,882,o),
(435,869,o),
(428,851,cs),
(425,844,o),
(422,842,o),
(416,842,cs),
(408,842,o),
(395,846,o),
(371,857,cs),
(335,873,o),
(318,876,o),
(289,876,cs),
(240,876,o),
(212,850,o),
(203,789,cs),
(199,760,o),
(221,733,o),
(251,733,cs),
(272,733,o),
(291,746,o),
(298,764,cs),
(301,771,o),
(304,773,o),
(310,773,cs)
);
},
{
closed = 1;
nodes = (
(468,179,l),
(508,54,ls),
(520,18,o),
(555,-9,o),
(595,-9,cs),
(646,-9,o),
(687,32,o),
(687,82,cs),
(687,93,o),
(684,103,o),
(681,113,cs),
(500,614,ls),
(481,665,o),
(447,690,o),
(392,690,cs),
(334,690,ls),
(279,690,o),
(245,665,o),
(226,614,cs),
(44,110,ls),
(41,101,o),
(38,91,o),
(38,80,cs),
(38,31,o),
(78,-9,o),
(127,-9,cs),
(167,-9,o),
(201,18,o),
(212,53,cs),
(253,179,l)
);
},
{
closed = 1;
nodes = (
(361,531,l),
(425,319,l),
(297,319,l)
);
}
);
width = 707;
}
);
note = Atilde;
unicode = 195;
},
{
glyphname = AE;
lastChange = "2022-11-29 13:20:18 +0000";
layers = (
{
hints = (
{
horizontal = 1;
place = (0, 140);
place = (0, 140);
type = Stem;
},
{
horizontal = 1;
place = (276, 140);
place = (276, 140);
type = Stem;
},
{
horizontal = 1;
place = (550, 140);
place = (550, 140);
type = Stem;
},
{
place = (-42, 1008);
place = (-42, 1008);
type = Stem;
},
{
horizontal = 1;
place = (209, 140);
place = (209, 140);
type = Stem;
}
);
layerId = m01;
shapes = (
{
closed = 1;
nodes = (
(905,140,cs),
(634,140,l),
(618,276,l),
(875,276,ls),
(913,276,o),
(945,307,o),
(945,346,cs),
(945,385,o),
(913,416,o),
(875,416,cs),
(602,416,l),
(585,560,l),
(588,555,ls),
(590,551,o),
(614,550,o),
(666,550,cs),
(895,550,ls),
(933,550,o),
(965,581,o),
(965,620,cs),
(965,659,o),
(933,690,o),
(895,690,cs),
(394,690,ls),
(341,690,o),
(306,669,o),
(282,622,cs),
(17,114,ls),
(11,103,o),
(8,89,o),
(8,75,cs),
(8,29,o),
(45,-9,o),
(92,-9,cs),
(125,-9,o),
(154,11,o),
(167,39,cs),
(248,209,l),
(446,209,l),
(460,89,ls),
(467,31,o),
(501,0,o),
(560,0,cs),
(905,0,ls),
(943,0,o),
(975,31,o),
(975,70,cs),
(975,109,o),
(943,140,o)
);
},
{
closed = 1;
nodes = (
(430,349,l),
(315,349,l),
(407,543,l)
);
}
);
width = 996;
}
);
note = AE;
unicode = 198;
},
{
glyphname = B;
lastChange = "2022-11-29 13:20:18 +0000";
layers = (
{
hints = (
{
horizontal = 1;
place = (0, 140);
place = (0, 140);
type = Stem;
},
{
horizontal = 1;
place = (288, 130);
place = (288, 130);
type = Stem;
},
{
horizontal = 1;
place = (550, 140);
place = (550, 140);
type = Stem;
},
{
place = (80, 180);
place = (80, 180);
type = Stem;
},
{
place = (467, 188);
place = (467, 188);
type = Stem;
},
{
place = (441, 188);
place = (441, 188);
type = Stem;
}
);
layerId = m01;
shapes = (
{
closed = 1;
nodes = (
(596,399,o),
(629,447,o),
(629,510,cs),
(629,600,o),
(565,672,o),
(451,686,cs),
(416,690,o),
(400,690,o),
(363,690,cs),
(175,690,ls),
(114,690,o),
(80,656,o),
(80,595,cs),
(80,95,ls),
(80,34,o),
(114,0,o),
(175,0,cs),
(355,0,ls),
(399,0,o),
(422,0,o),
(457,4,cs),
(550,15,o),
(655,79,o),
(655,208,cs),
(655,292,o),
(615,350,o),
(528,375,c)
);
},
{
closed = 1;
nodes = (
(260,550,l),
(341,550,ls),
(357,550,o),
(373,549,o),
(386,547,cs),
(420,542,o),
(441,523,o),
(441,484,cs),
(441,443,o),
(418,426,o),
(385,421,cs),
(372,419,o),
(357,418,o),
(341,418,cs),
(260,418,l)
);
},
{
closed = 1;
nodes = (
(389,140,o),
(373,140,o),
(357,140,cs),
(260,140,l),
(260,288,l),
(352,288,ls),
(368,288,o),
(384,288,o),
(397,287,cs),
(434,284,o),
(467,260,o),
(467,214,cs),
(467,169,o),
(434,143,o),
(402,141,cs)
);
}
);
width = 681;
}
);
note = B;
unicode = 66;
},
{
glyphname = C;
kernLeft = C;
kernRight = C;
lastChange = "2022-11-29 13:20:18 +0000";
layers = (
{
hints = (
{
horizontal = 1;
place = (-14, 132);
place = (-14, 132);
type = Stem;
},
{
horizontal = 1;
place = (572, 132);
place = (572, 132);
type = Stem;
},
{
place = (54, 188);
place = (54, 188);
type = Stem;
}
);
layerId = m01;
shapes = (
{
closed = 1;
nodes = (
(208,704,o),
(54,580,o),
(54,340,cs),
(54,106,o),
(203,-14,o),
(388,-14,cs),
(535,-14,o),
(649,48,o),
(690,168,cs),
(706,216,o),
(696,260,o),
(650,279,cs),
(636,285,o),
(621,288,o),
(604,288,cs),
(586,288,o),
(572,281,o),
(559,271,cs),
(531,249,o),
(526,218,o),
(502,177,cs),
(479,139,o),
(443,118,o),
(394,118,cs),
(314,118,o),
(242,177,o),
(242,351,cs),
(242,500,o),
(307,572,o),
(393,572,cs),
(443,572,o),
(480,556,o),
(503,522,cs),
(529,482,o),
(535,443,o),
(579,431,cs),
(588,429,o),
(597,428,o),
(606,428,cs),
(623,428,o),
(643,430,o),
(661,435,cs),
(698,446,o),
(709,486,o),
(690,536,cs),
(652,635,o),
(555,704,o),
(395,704,cs)
);
}
);
width = 734;
}
);
note = C;
unicode = 67;
},
{
glyphname = Cacute;
kernLeft = C;
kernRight = C;
lastChange = "2022-11-29 13:20:18 +0000";
layers = (
{
hints = (
{
horizontal = 1;
place = (-14, 132);
place = (-14, 132);
type = Stem;
},
{
horizontal = 1;
place = (572, 132);
place = (572, 132);
type = Stem;
},
{
horizontal = 1;
place = (735, 125);
place = (735, 125);
type = Stem;
},
{
place = (54, 188);
place = (54, 188);
type = Stem;
}
);
layerId = m01;
shapes = (
{
closed = 1;
nodes = (
(402,727,cs),
(476,799,o),
(511,874,o),
(460,869,cs),
(458,869,o),
(456,868,o),
(454,868,cs),
(407,857,o),
(368,822,o),
(362,775,cs),
(361,771,o),
(361,768,o),
(361,765,cs),
(361,744,o),
(379,726,o),
(401,726,c),
(401,726,o),
(401,726,o)
);
},
{
closed = 1;
nodes = (
(208,704,o),
(54,580,o),
(54,340,cs),
(54,106,o),
(203,-14,o),
(388,-14,cs),
(535,-14,o),
(649,48,o),
(690,168,cs),
(706,216,o),
(696,260,o),
(650,279,cs),
(636,285,o),
(621,288,o),
(604,288,cs),
(586,288,o),
(572,281,o),
(559,271,cs),
(531,249,o),
(526,218,o),
(502,177,cs),
(479,139,o),
(443,118,o),
(394,118,cs),
(314,118,o),
(242,177,o),
(242,351,cs),
(242,500,o),
(307,572,o),
(393,572,cs),
(443,572,o),
(480,556,o),
(503,522,cs),
(529,482,o),
(535,443,o),
(579,431,cs),
(588,429,o),
(597,428,o),
(606,428,cs),
(623,428,o),
(643,430,o),
(661,435,cs),
(698,446,o),
(709,486,o),
(690,536,cs),
(652,635,o),
(555,704,o),
(395,704,cs)
);
}
);
width = 734;
}
);
note = Cacute;
unicode = 262;
},
{
glyphname = Ccaron;
kernLeft = C;
kernRight = C;
lastChange = "2022-11-29 13:20:18 +0000";
layers = (
{
hints = (
{
horizontal = 1;
place = (-14, 132);
place = (-14, 132);
type = Stem;
},
{
horizontal = 1;
place = (572, 132);
place = (572, 132);
type = Stem;
},
{
horizontal = 1;
place = (735, 125);
place = (735, 125);
type = Stem;
},
{
place = (54, 188);
place = (54, 188);
type = Stem;
}
);
layerId = m01;
shapes = (
{
closed = 1;
nodes = (
(339,735,cs),
(425,735,ls),
(469,735,o),
(501,773,o),
(498,811,c),
(497,815,o),
(498,819,o),
(498,823,cs),
(498,849,o),
(477,869,o),
(452,869,cs),
(433,869,o),
(417,858,o),
(410,841,cs),
(386,784,l),
(369,822,ls),
(357,848,o),
(348,860,o),
(339,860,cs),
(305,860,o),
(276,832,o),
(276,798,cs),
(276,763,o),
(305,735,o)
);
},
{
closed = 1;
nodes = (
(571,279,cs),
(531,256,o),
(526,218,o),
(502,177,cs),
(479,139,o),
(443,118,o),
(394,118,cs),
(314,118,o),
(242,177,o),
(242,351,cs),
(242,500,o),
(307,572,o),
(393,572,cs),
(443,572,o),
(480,556,o),
(503,522,cs),
(529,482,o),
(535,443,o),
(579,431,cs),
(588,429,o),
(597,428,o),
(606,428,cs),
(623,428,o),
(643,430,o),
(661,435,cs),
(698,446,o),
(709,486,o),
(690,536,cs),
(652,635,o),
(555,704,o),
(395,704,cs),
(208,704,o),
(54,580,o),
(54,340,cs),
(54,106,o),
(203,-14,o),
(388,-14,cs),
(535,-14,o),
(649,48,o),
(690,168,cs),
(706,216,o),
(696,260,o),
(650,279,cs),
(636,285,o),
(621,288,o),
(604,288,cs),
(591,288,o),
(581,285,o)
);
}
);
width = 734;
}
);
note = Ccaron;
unicode = 268;
},
{
glyphname = Ccedilla;
kernLeft = C;
kernRight = C;
lastChange = "2022-11-29 13:20:18 +0000";
layers = (
{
hints = (
{
horizontal = 1;
place = (-210, 69);
place = (-210, 69);
type = Stem;
},
{
horizontal = 1;
place = (-9, 21);
target = up;
type = BottomGhost;
},
{
horizontal = 1;
place = (572, 132);
place = (572, 132);
type = Stem;
},
{
place = (54, 188);
place = (54, 188);
type = Stem;
},
{
place = (384, 108);
place = (384, 108);
type = Stem;
}
);
layerId = m01;
shapes = (
{
closed = 1;
nodes = (
(571,279,cs),
(531,256,o),
(526,218,o),
(502,177,cs),
(479,139,o),
(443,118,o),
(394,118,cs),
(314,118,o),
(242,177,o),
(242,351,cs),
(242,500,o),
(307,572,o),
(393,572,cs),
(443,572,o),
(480,556,o),
(503,522,cs),
(529,482,o),
(535,443,o),
(579,431,cs),
(588,429,o),
(597,428,o),
(606,428,cs),
(623,428,o),
(643,430,o),
(661,435,cs),
(698,446,o),
(709,486,o),
(690,536,cs),
(652,635,o),
(555,704,o),
(395,704,cs),
(208,704,o),
(54,580,o),
(54,340,cs),
(54,133,o),
(170,15,o),
(325,-9,c),
(306,-49,ls),
(294,-73,o),
(372,-46,o),
(384,-110,cs),
(384,-111,o),
(384,-113,o),
(384,-114,cs),
(384,-132,o),
(367,-141,o),
(324,-141,cs),
(317,-141,o),
(307,-141,o),
(295,-139,cs),
(276,-137,o),
(266,-147,o),
(266,-169,cs),
(266,-192,o),
(323,-210,o),
(323,-210,cs),
(415,-210,o),
(492,-188,o),
(492,-119,cs),
(492,-74,o),
(460,-49,o),
(397,-42,c),
(411,-13,l),
(547,-7,o),
(652,54,o),
(690,168,cs),
(706,216,o),
(696,260,o),
(650,279,cs),
(636,285,o),
(621,288,o),
(604,288,cs),
(591,288,o),
(581,285,o)
);
}
);
width = 734;
}
);
note = Ccedilla;
unicode = 199;
},
{
glyphname = Cdotaccent;
kernLeft = C;
kernRight = C;
lastChange = "2022-11-29 13:20:18 +0000";
layers = (
{
hints = (
{
horizontal = 1;
place = (-14, 132);
place = (-14, 132);
type = Stem;
},
{
horizontal = 1;
place = (572, 132);
place = (572, 132);
type = Stem;
},
{
horizontal = 1;
place = (725, 176);
place = (725, 176);
type = Stem;
},
{
place = (54, 188);
place = (54, 188);
type = Stem;
},
{
place = (291, 186);
place = (291, 186);
type = Stem;
}
);
layerId = m01;
shapes = (
{
closed = 1;
nodes = (
(328,901,o),
(291,867,o),
(291,813,cs),
(291,759,o),
(328,725,o),
(384,725,cs),
(440,725,o),
(477,759,o),
(477,813,cs),
(477,867,o),
(440,901,o),
(384,901,cs)
);
},
{
closed = 1;
nodes = (
(208,704,o),
(54,580,o),
(54,340,cs),
(54,106,o),
(203,-14,o),
(388,-14,cs),
(535,-14,o),
(649,48,o),
(690,168,cs),
(706,216,o),
(696,260,o),
(650,279,cs),
(636,285,o),
(621,288,o),
(604,288,cs),
(586,288,o),
(572,281,o),
(559,271,cs),
(531,249,o),
(526,218,o),
(502,177,cs),
(479,139,o),
(443,118,o),
(394,118,cs),
(314,118,o),
(242,177,o),
(242,351,cs),
(242,500,o),
(307,572,o),
(393,572,cs),
(443,572,o),
(480,556,o),
(503,522,cs),
(529,482,o),
(535,443,o),
(579,431,cs),
(588,429,o),
(597,428,o),
(606,428,cs),
(623,428,o),
(643,430,o),
(661,435,cs),
(698,446,o),
(709,486,o),
(690,536,cs),
(652,635,o),
(555,704,o),
(395,704,cs)
);
}
);
width = 734;
}
);
note = Cdotaccent;
unicode = 266;
},
{
glyphname = D;
kernRight = D;
lastChange = "2022-11-29 13:20:18 +0000";
layers = (
{
hints = (
{
horizontal = 1;
place = (0, 140);
place = (0, 140);
type = Stem;
},
{
horizontal = 1;
place = (550, 140);
place = (550, 140);
type = Stem;
},
{
place = (80, 180);
place = (80, 180);
type = Stem;
},
{
place = (533, 188);
place = (533, 188);
type = Stem;
}
);
layerId = m01;
shapes = (
{
closed = 1;
nodes = (
(394,690,o),
(378,690,o),
(341,690,cs),
(175,690,ls),
(114,690,o),
(80,656,o),
(80,595,cs),
(80,95,ls),
(80,34,o),
(114,0,o),
(175,0,cs),
(341,0,ls),
(378,0,o),
(394,0,o),
(429,4,cs),
(589,22,o),
(721,138,o),
(721,354,cs),
(721,570,o),
(589,668,o),
(429,686,cs)
);
},
{
closed = 1;
nodes = (
(358,140,o),
(342,140,o),
(316,140,cs),
(260,140,l),
(260,550,l),
(316,550,ls),
(342,550,o),
(358,550,o),
(381,548,cs),
(471,540,o),
(533,474,o),
(533,351,cs),
(533,228,o),
(471,150,o),
(381,142,cs)
);
}
);
width = 749;
}
);
note = D;
unicode = 68;
},
{
glyphname = Eth;
kernRight = D;
lastChange = "2022-11-29 13:20:18 +0000";
layers = (
{
hints = (
{
horizontal = 1;
place = (0, 140);
place = (0, 140);
type = Stem;
},
{
horizontal = 1;
place = (293, 96);
place = (293, 96);
type = Stem;
},
{
horizontal = 1;
place = (550, 140);
place = (550, 140);
type = Stem;
},
{
place = (90, 180);
place = (90, 180);
type = Stem;
},
{
place = (543, 188);
place = (543, 188);
type = Stem;
}
);
layerId = m01;
shapes = (
{
closed = 1;
nodes = (
(404,690,o),
(388,690,o),
(351,690,cs),
(185,690,ls),
(124,690,o),
(90,656,o),
(90,595,cs),
(90,389,l),
(70,389,ls),
(44,389,o),
(22,368,o),
(22,341,cs),
(22,314,o),
(44,293,o),
(70,293,cs),
(90,293,l),
(90,95,ls),
(90,34,o),
(124,0,o),
(185,0,cs),
(351,0,ls),
(388,0,o),
(404,0,o),
(439,4,cs),
(599,22,o),
(731,138,o),
(731,354,cs),
(731,570,o),
(599,668,o),
(439,686,cs)
);
},
{
closed = 1;
nodes = (
(368,140,o),
(352,140,o),
(326,140,cs),
(270,140,l),
(270,293,l),
(333,293,ls),
(359,293,o),
(381,314,o),
(381,341,cs),
(381,368,o),
(359,389,o),
(333,389,cs),
(270,389,l),
(270,550,l),
(326,550,ls),
(352,550,o),
(368,550,o),
(391,548,cs),
(481,540,o),
(543,474,o),
(543,351,cs),
(543,228,o),
(481,150,o),
(391,142,cs)
);
}
);
width = 759;
}
);
note = Eth;
unicode = 208;
},
{
glyphname = Dcaron;
kernRight = D;
lastChange = "2022-11-29 13:20:18 +0000";
layers = (
{
hints = (
{
horizontal = 1;
place = (0, 140);
place = (0, 140);
type = Stem;
},
{
horizontal = 1;
place = (550, 140);
place = (550, 140);
type = Stem;
},
{
horizontal = 1;
place = (735, 125);
place = (735, 125);
type = Stem;
},
{
place = (80, 180);
place = (80, 180);
type = Stem;
},
{
place = (533, 188);
place = (533, 188);
type = Stem;
}
);
layerId = m01;
shapes = (
{
closed = 1;
nodes = (
(340,735,cs),
(426,735,ls),
(470,735,o),
(502,773,o),
(499,811,c),
(498,815,o),
(499,819,o),
(499,823,cs),
(499,849,o),
(478,869,o),
(453,869,cs),
(434,869,o),
(418,858,o),
(411,841,cs),
(387,784,l),
(370,822,ls),
(358,848,o),
(349,860,o),
(340,860,cs),
(306,860,o),
(277,832,o),
(277,798,cs),
(277,763,o),
(306,735,o)
);
},
{
closed = 1;
nodes = (
(394,690,o),
(378,690,o),
(341,690,cs),
(175,690,ls),
(114,690,o),
(80,656,o),
(80,595,cs),
(80,95,ls),
(80,34,o),
(114,0,o),
(175,0,cs),
(341,0,ls),
(378,0,o),
(394,0,o),
(429,4,cs),
(589,22,o),
(721,138,o),
(721,354,cs),
(721,570,o),
(589,668,o),
(429,686,cs)
);
},
{
closed = 1;
nodes = (
(358,140,o),
(342,140,o),
(316,140,cs),
(260,140,l),
(260,550,l),
(316,550,ls),
(342,550,o),
(358,550,o),
(381,548,cs),
(471,540,o),
(533,474,o),
(533,351,cs),
(533,228,o),
(471,150,o),
(381,142,cs)
);
}
);
width = 749;
}
);
note = Dcaron;
unicode = 270;
},
{
glyphname = Dcroat;
kernRight = D;
lastChange = "2022-11-29 13:20:18 +0000";
layers = (
{
hints = (
{
horizontal = 1;
place = (0, 140);
place = (0, 140);
type = Stem;
},
{
horizontal = 1;
place = (293, 96);
place = (293, 96);
type = Stem;
},
{
horizontal = 1;
place = (550, 140);
place = (550, 140);
type = Stem;
},
{
place = (90, 180);
place = (90, 180);
type = Stem;
},
{
place = (543, 188);
place = (543, 188);
type = Stem;
}
);
layerId = m01;
shapes = (
{
closed = 1;
nodes = (
(404,690,o),
(388,690,o),
(351,690,cs),
(185,690,ls),
(124,690,o),
(90,656,o),
(90,595,cs),
(90,389,l),
(70,389,ls),
(44,389,o),
(22,368,o),
(22,341,cs),
(22,314,o),
(44,293,o),
(70,293,cs),
(90,293,l),
(90,95,ls),
(90,34,o),
(124,0,o),
(185,0,cs),
(351,0,ls),
(388,0,o),
(404,0,o),
(439,4,cs),
(599,22,o),
(731,138,o),
(731,354,cs),
(731,570,o),
(599,668,o),
(439,686,cs)
);
},
{
closed = 1;
nodes = (
(368,140,o),
(352,140,o),
(326,140,cs),
(270,140,l),
(270,293,l),
(333,293,ls),
(359,293,o),
(381,314,o),
(381,341,cs),
(381,368,o),
(359,389,o),
(333,389,cs),
(270,389,l),
(270,550,l),
(326,550,ls),
(352,550,o),
(368,550,o),
(391,548,cs),
(481,540,o),
(543,474,o),
(543,351,cs),
(543,228,o),
(481,150,o),
(391,142,cs)
);
}
);
width = 759;
}
);
note = Dcroat;
unicode = 272;
},
{
glyphname = E;
lastChange = "2022-11-29 13:20:18 +0000";
layers = (
{
hints = (
{
horizontal = 1;
place = (0, 140);
place = (0, 140);
type = Stem;
},
{
horizontal = 1;
place = (276, 140);
place = (276, 140);
type = Stem;
},
{
horizontal = 1;
place = (550, 140);
place = (550, 140);
type = Stem;
},
{
place = (80, 180);
place = (80, 180);
type = Stem;
}
);
layerId = m01;
shapes = (
{
closed = 1;
nodes = (
(548,140,cs),
(260,140,l),
(260,276,l),
(518,276,ls),
(556,276,o),
(588,307,o),
(588,346,cs),
(588,385,o),
(556,416,o),
(518,416,cs),
(260,416,l),
(260,550,l),
(538,550,ls),
(576,550,o),
(608,581,o),
(608,620,cs),
(608,659,o),
(576,690,o),
(538,690,cs),
(175,690,ls),
(114,690,o),
(80,656,o),
(80,595,cs),
(80,95,ls),
(80,34,o),
(114,0,o),
(175,0,cs),
(548,0,ls),
(586,0,o),
(618,31,o),
(618,70,cs),
(618,109,o),
(586,140,o)
);
}
);
width = 639;
}
);
note = E;
unicode = 69;
},
{
glyphname = Eacute;
lastChange = "2022-11-29 13:20:18 +0000";
layers = (
{
hints = (
{
horizontal = 1;
place = (0, 140);
place = (0, 140);
type = Stem;
},
{
horizontal = 1;
place = (276, 140);
place = (276, 140);
type = Stem;
},
{
horizontal = 1;
place = (550, 140);
place = (550, 140);
type = Stem;
},
{
horizontal = 1;
place = (735, 125);
place = (735, 125);
type = Stem;
},
{
place = (80, 180);
place = (80, 180);
type = Stem;
}
);
layerId = m01;
shapes = (
{
closed = 1;
nodes = (
(358,727,cs),
(432,799,o),
(467,874,o),
(416,869,cs),
(414,869,o),
(412,868,o),
(410,868,cs),
(363,857,o),
(324,822,o),
(318,775,cs),
(317,771,o),
(317,768,o),
(317,765,cs),
(317,744,o),
(335,726,o),
(357,726,c),
(357,726,o),
(357,726,o)
);
},
{
closed = 1;
nodes = (
(548,140,cs),
(260,140,l),
(260,276,l),
(518,276,ls),
(556,276,o),
(588,307,o),
(588,346,cs),
(588,385,o),
(556,416,o),
(518,416,cs),
(260,416,l),
(260,550,l),
(538,550,ls),
(576,550,o),
(608,581,o),
(608,620,cs),
(608,659,o),
(576,690,o),
(538,690,cs),
(175,690,ls),
(114,690,o),
(80,656,o),
(80,595,cs),
(80,95,ls),
(80,34,o),
(114,0,o),
(175,0,cs),
(548,0,ls),
(586,0,o),
(618,31,o),
(618,70,cs),
(618,109,o),
(586,140,o)
);
}
);
width = 639;
}
);
note = Eacute;
unicode = 201;
},
{
glyphname = Ecaron;
lastChange = "2022-11-29 13:20:18 +0000";
layers = (
{
hints = (
{
horizontal = 1;
place = (0, 140);
place = (0, 140);
type = Stem;
},
{
horizontal = 1;
place = (276, 140);
place = (276, 140);
type = Stem;
},
{
horizontal = 1;
place = (550, 140);
place = (550, 140);
type = Stem;
},
{
horizontal = 1;
place = (735, 125);
place = (735, 125);
type = Stem;
},
{
place = (80, 180);
place = (80, 180);
type = Stem;
}
);
layerId = m01;
shapes = (
{
closed = 1;
nodes = (
(295,735,cs),
(381,735,ls),
(425,735,o),
(457,773,o),
(454,811,c),
(453,815,o),
(454,819,o),
(454,823,cs),
(454,849,o),
(433,869,o),
(408,869,cs),
(389,869,o),
(373,858,o),
(366,841,cs),
(342,784,l),
(325,822,ls),
(313,848,o),
(304,860,o),
(295,860,cs),
(261,860,o),
(232,832,o),
(232,798,cs),
(232,763,o),
(261,735,o)
);
},
{
closed = 1;
nodes = (
(548,140,cs),
(260,140,l),
(260,276,l),
(518,276,ls),
(556,276,o),
(588,307,o),
(588,346,cs),
(588,385,o),
(556,416,o),
(518,416,cs),
(260,416,l),
(260,550,l),
(538,550,ls),
(576,550,o),
(608,581,o),
(608,620,cs),
(608,659,o),
(576,690,o),
(538,690,cs),
(175,690,ls),
(114,690,o),
(80,656,o),
(80,595,cs),
(80,95,ls),
(80,34,o),
(114,0,o),
(175,0,cs),
(548,0,ls),
(586,0,o),
(618,31,o),
(618,70,cs),
(618,109,o),
(586,140,o)
);
}
);
width = 639;
}
);
note = Ecaron;
unicode = 282;
},
{
glyphname = Ecircumflex;
lastChange = "2022-11-29 13:20:18 +0000";
layers = (
{
hints = (
{
horizontal = 1;
place = (0, 140);
place = (0, 140);
type = Stem;
},
{
horizontal = 1;
place = (276, 140);
place = (276, 140);
type = Stem;
},
{
horizontal = 1;
place = (550, 140);
place = (550, 140);
type = Stem;
},
{
horizontal = 1;
place = (735, 125);
place = (735, 125);
type = Stem;
},
{
place = (80, 180);
place = (80, 180);
type = Stem;
}
);
layerId = m01;
shapes = (
{
closed = 1;
nodes = (
(315,754,cs),
(339,811,l),
(356,773,ls),
(368,747,o),
(377,735,o),
(386,735,cs),
(420,735,o),
(449,763,o),
(449,797,cs),
(449,832,o),
(420,860,o),
(386,860,cs),
(300,860,ls),
(256,860,o),
(224,822,o),
(227,784,c),
(228,780,o),
(227,776,o),
(227,772,cs),
(227,746,o),
(248,726,o),
(273,726,cs),
(292,726,o),
(308,737,o)
);
},
{
closed = 1;
nodes = (
(548,140,cs),
(260,140,l),
(260,276,l),
(518,276,ls),
(556,276,o),
(588,307,o),
(588,346,cs),
(588,385,o),
(556,416,o),
(518,416,cs),
(260,416,l),
(260,550,l),
(538,550,ls),
(576,550,o),
(608,581,o),
(608,620,cs),
(608,659,o),
(576,690,o),
(538,690,cs),
(175,690,ls),
(114,690,o),
(80,656,o),
(80,595,cs),
(80,95,ls),
(80,34,o),
(114,0,o),
(175,0,cs),
(548,0,ls),
(586,0,o),
(618,31,o),
(618,70,cs),
(618,109,o),
(586,140,o)
);
}
);
width = 639;
}
);
note = Ecircumflex;
unicode = 202;
},
{
glyphname = Edieresis;
lastChange = "2022-11-29 13:20:18 +0000";
layers = (
{
hints = (
{
horizontal = 1;
place = (0, 140);
place = (0, 140);
type = Stem;
},
{
horizontal = 1;
place = (276, 140);
place = (276, 140);
type = Stem;
},
{
horizontal = 1;
place = (550, 140);
place = (550, 140);
type = Stem;
},
{
horizontal = 1;
place = (722, 146);
place = (722, 146);
type = Stem;
},
{
place = (165, 150);
place = (165, 150);
type = Stem;
},
{
place = (365, 150);
place = (365, 150);
type = Stem;
},
{
place = (80, 180);
place = (80, 180);
type = Stem;
}
);
layerId = m01;
shapes = (
{
closed = 1;
nodes = (
(548,140,cs),
(260,140,l),
(260,276,l),
(518,276,ls),
(556,276,o),
(588,307,o),
(588,346,cs),
(588,385,o),
(556,416,o),
(518,416,cs),
(260,416,l),
(260,550,l),
(538,550,ls),
(576,550,o),
(608,581,o),
(608,620,cs),
(608,659,o),
(576,690,o),
(538,690,cs),
(175,690,ls),
(114,690,o),
(80,656,o),
(80,595,cs),
(80,95,ls),
(80,34,o),
(114,0,o),
(175,0,cs),
(548,0,ls),
(586,0,o),
(618,31,o),
(618,70,cs),
(618,109,o),
(586,140,o)
);
},
{
closed = 1;
nodes = (
(229,722,cs),
(251,722,ls),
(290,722,o),
(323,754,o),
(323,794,cs),
(323,804,o),
(321,814,o),
(317,822,cs),
(303,854,o),
(274,878,o),
(239,878,cs),
(227,878,o),
(216,875,o),
(206,870,cs),
(177,856,o),
(155,828,o),
(155,796,cs),
(155,755,o),
(189,722,o)
);
},
{
closed = 1;
nodes = (
(430,722,cs),
(452,722,ls),
(491,722,o),
(524,754,o),
(524,794,cs),
(524,804,o),
(522,814,o),
(518,822,cs),
(504,854,o),
(475,878,o),
(440,878,cs),
(428,878,o),
(417,875,o),
(407,870,cs),
(378,856,o),
(356,828,o),
(356,796,cs),
(356,755,o),
(390,722,o)
);
}
);
width = 639;
}
);
note = Edieresis;
unicode = 203;
},
{
glyphname = Edotaccent;
lastChange = "2022-11-29 13:20:18 +0000";
layers = (
{
hints = (
{
horizontal = 1;
place = (0, 140);
place = (0, 140);
type = Stem;
},
{
horizontal = 1;
place = (276, 140);
place = (276, 140);
type = Stem;
},
{
horizontal = 1;
place = (550, 140);
place = (550, 140);
type = Stem;
},
{
horizontal = 1;
place = (725, 176);
place = (725, 176);
type = Stem;
},
{
place = (247, 186);
place = (247, 186);
type = Stem;
},
{
place = (80, 180);
place = (80, 180);
type = Stem;
}
);
layerId = m01;
shapes = (
{
closed = 1;
nodes = (
(396,725,o),
(433,759,o),
(433,813,cs),
(433,867,o),
(396,901,o),
(340,901,cs),
(284,901,o),
(247,867,o),
(247,813,cs),
(247,759,o),
(284,725,o),
(340,725,cs)
);
},
{
closed = 1;
nodes = (
(548,140,cs),
(260,140,l),
(260,276,l),
(518,276,ls),
(556,276,o),
(588,307,o),
(588,346,cs),
(588,385,o),
(556,416,o),
(518,416,cs),
(260,416,l),
(260,550,l),
(538,550,ls),
(576,550,o),
(608,581,o),
(608,620,cs),
(608,659,o),
(576,690,o),
(538,690,cs),
(175,690,ls),
(114,690,o),
(80,656,o),
(80,595,cs),
(80,95,ls),
(80,34,o),
(114,0,o),
(175,0,cs),
(548,0,ls),
(586,0,o),
(618,31,o),
(618,70,cs),
(618,109,o),
(586,140,o)
);
}
);
width = 639;
}
);
note = Edotaccent;
unicode = 278;
},
{
glyphname = Egrave;
lastChange = "2022-11-29 13:20:18 +0000";
layers = (
{
hints = (
{
horizontal = 1;
place = (0, 140);
place = (0, 140);
type = Stem;
},
{
horizontal = 1;
place = (276, 140);
place = (276, 140);
type = Stem;
},
{
horizontal = 1;
place = (550, 140);
place = (550, 140);
type = Stem;
},
{
horizontal = 1;
place = (735, 125);
place = (735, 125);
type = Stem;
},
{
place = (80, 180);
place = (80, 180);
type = Stem;
}
);
layerId = m01;
shapes = (
{
closed = 1;
nodes = (
(304,729,cs),
(308,727,o),
(314,726,o),
(320,726,cs),
(344,726,o),
(365,746,o),
(365,771,cs),
(365,780,o),
(361,790,o),
(356,797,cs),
(325,839,o),
(259,863,o),
(251,807,cs),
(250,803,o),
(250,800,o),
(250,797,cs),
(250,766,o),
(274,740,o)
);
},
{
closed = 1;
nodes = (
(548,140,cs),
(260,140,l),
(260,276,l),
(518,276,ls),
(556,276,o),
(588,307,o),
(588,346,cs),
(588,385,o),
(556,416,o),
(518,416,cs),
(260,416,l),
(260,550,l),
(538,550,ls),
(576,550,o),
(608,581,o),
(608,620,cs),
(608,659,o),
(576,690,o),
(538,690,cs),
(175,690,ls),
(114,690,o),
(80,656,o),
(80,595,cs),
(80,95,ls),
(80,34,o),
(114,0,o),
(175,0,cs),
(548,0,ls),
(586,0,o),
(618,31,o),
(618,70,cs),
(618,109,o),
(586,140,o)
);
}
);
width = 639;
}
);
note = Egrave;
unicode = 200;
},
{
glyphname = Emacron;
lastChange = "2022-11-29 13:20:18 +0000";
layers = (
{
hints = (
{
horizontal = 1;
place = (0, 140);
place = (0, 140);
type = Stem;
},
{
horizontal = 1;
place = (276, 140);
place = (276, 140);
type = Stem;
},
{
horizontal = 1;
place = (550, 140);
place = (550, 140);
type = Stem;
},
{
horizontal = 1;
place = (760, 96);
place = (760, 96);
type = Stem;
},
{
place = (190, 300);
place = (190, 300);
type = Stem;
},
{
place = (80, 180);
place = (80, 180);
type = Stem;
}
);
layerId = m01;
shapes = (
{
closed = 1;
nodes = (
(451,760,ls),
(477,760,o),
(499,781,o),
(499,808,cs),
(499,835,o),
(477,856,o),
(451,856,cs),
(229,856,ls),
(203,856,o),
(181,835,o),
(181,808,cs),
(181,781,o),
(203,760,o),
(229,760,cs)
);
},
{
closed = 1;
nodes = (
(548,140,cs),
(260,140,l),
(260,276,l),
(518,276,ls),
(556,276,o),
(588,307,o),
(588,346,cs),
(588,385,o),
(556,416,o),
(518,416,cs),
(260,416,l),
(260,550,l),
(538,550,ls),
(576,550,o),
(608,581,o),
(608,620,cs),
(608,659,o),
(576,690,o),
(538,690,cs),
(175,690,ls),
(114,690,o),
(80,656,o),
(80,595,cs),
(80,95,ls),
(80,34,o),
(114,0,o),
(175,0,cs),
(548,0,ls),
(586,0,o),
(618,31,o),
(618,70,cs),
(618,109,o),
(586,140,o)
);
}
);
width = 639;
}
);
note = Emacron;
unicode = 274;
},
{
glyphname = Eogonek;
lastChange = "2022-11-29 13:20:18 +0000";
layers = (
{
hints = (
{
horizontal = 1;
place = (-223, 102);
place = (-223, 102);
type = Stem;
},
{
horizontal = 1;
place = (0, 140);
place = (0, 140);
type = Stem;
},
{
horizontal = 1;
place = (276, 140);
place = (276, 140);
type = Stem;
},
{
horizontal = 1;
place = (550, 140);
place = (550, 140);
type = Stem;
},
{
place = (80, 180);
place = (80, 180);
type = Stem;
},
{
place = (350, 249);
place = (350, 249);
type = Stem;
}
);
layerId = m01;
shapes = (
{
closed = 1;
nodes = (
(593,5,o),
(619,35,o),
(619,70,cs),
(619,109,o),
(587,141,o),
(548,141,cs),
(509,141,o),
(477,109,o),
(477,70,cs),
(477,24,o),
(507,134,o),
(548,140,c),
(260,140,l),
(260,276,l),
(518,276,ls),
(556,276,o),
(588,307,o),
(588,346,cs),
(588,385,o),
(556,416,o),
(518,416,cs),
(260,416,l),
(260,550,l),
(538,550,ls),
(576,550,o),
(608,581,o),
(608,620,cs),
(608,659,o),
(576,690,o),
(538,690,cs),
(175,690,ls),
(114,690,o),
(80,656,o),
(80,595,cs),
(80,95,ls),
(80,34,o),
(114,0,o),
(175,0,cs),
(428,0,l),
(386,-27,o),
(350,-81,o),
(350,-137,cs),
(350,-201,o),
(398,-223,o),
(464,-223,cs),
(519,-223,o),
(558,-207,o),
(593,-184,cs),
(603,-177,o),
(608,-167,o),
(608,-155,cs),
(608,-133,o),
(586,-116,o),
(565,-120,cs),
(562,-121,o),
(558,-121,o),
(555,-121,cs),
(535,-121,o),
(514,-108,o),
(514,-70,cs),
(514,-32,o),
(534,0,o),
(559,0,c)
);
}
);
width = 639;
}
);
note = Eogonek;
unicode = 280;
},
{
glyphname = F;
kernRight = F;
lastChange = "2022-11-29 13:20:18 +0000";
layers = (
{
hints = (
{
horizontal = 1;
place = (0, 21);
target = up;
type = BottomGhost;
},
{
horizontal = 1;
place = (276, 140);
place = (276, 140);
type = Stem;
},
{
horizontal = 1;
place = (550, 140);
place = (550, 140);
type = Stem;
},
{
place = (80, 180);
place = (80, 180);
type = Stem;
}
);
layerId = m01;
shapes = (
{
closed = 1;
nodes = (
(260,550,l),
(538,550,ls),
(576,550,o),
(608,581,o),
(608,620,cs),
(608,659,o),
(576,690,o),
(538,690,cs),
(175,690,ls),
(114,690,o),
(80,656,o),
(80,595,cs),
(80,81,ls),
(80,32,o),
(120,-9,o),
(170,-9,cs),
(220,-9,o),
(260,32,o),
(260,81,cs),
(260,276,l),
(508,276,ls),
(546,276,o),
(578,307,o),
(578,346,cs),
(578,385,o),
(546,416,o),
(508,416,cs),
(260,416,l)
);
}
);
width = 615;
}
);
note = F;
unicode = 70;
},
{
glyphname = G;
kernLeft = C;
kernRight = G;
lastChange = "2022-11-29 13:20:18 +0000";
layers = (
{
hints = (
{
horizontal = 1;
place = (-14, 132);
place = (-14, 132);
type = Stem;
},
{
horizontal = 1;
place = (228, 140);
place = (228, 140);
type = Stem;
},
{
horizontal = 1;
place = (572, 132);
place = (572, 132);
type = Stem;
},
{
place = (54, 188);
place = (54, 188);
type = Stem;
},
{
place = (409, 304);
place = (409, 304);
type = Stem;
},
{
horizontal = 1;
place = (0, 21);
target = up;
type = BottomGhost;
}
);
layerId = m01;
shapes = (
{
closed = 1;
nodes = (
(470,368,ls),
(432,368,o),
(400,337,o),
(400,298,cs),
(400,259,o),
(432,228,o),
(470,228,cs),
(543,228,l),
(518,152,o),
(472,118,o),
(402,118,cs),
(317,118,o),
(242,177,o),
(242,351,cs),
(242,500,o),
(315,572,o),
(403,572,cs),
(453,572,o),
(490,556,o),
(513,522,cs),
(539,482,o),
(545,443,o),
(589,431,cs),
(598,429,o),
(607,428,o),
(616,428,cs),
(633,428,o),
(653,430,o),
(671,435,cs),
(708,446,o),
(719,486,o),
(700,536,cs),
(662,635,o),
(565,704,o),
(405,704,cs),
(216,704,o),
(54,580,o),
(54,340,cs),
(54,108,o),
(183,-14,o),
(367,-14,cs),
(409,-14,o),
(443,-10,o),
(471,-1,cs),
(515,14,o),
(532,47,o),
(549,89,cs),
(556,106,l),
(564,54,ls),
(570,19,o),
(601,-9,o),
(638,-9,cs),
(680,-9,o),
(713,25,o),
(713,66,cs),
(713,273,ls),
(713,334,o),
(679,368,o),
(618,368,cs)
);
}
);
width = 759;
}
);
note = G;
unicode = 71;
},
{
glyphname = Gbreve;
kernLeft = C;
kernRight = G;
lastChange = "2022-11-29 13:20:18 +0000";
layers = (
{
hints = (
{
horizontal = 1;
place = (-14, 132);
place = (-14, 132);
type = Stem;
},
{
horizontal = 1;
place = (228, 140);
place = (228, 140);
type = Stem;
},
{
horizontal = 1;
place = (572, 132);
place = (572, 132);
type = Stem;
},
{
horizontal = 1;
place = (728, 132);
place = (728, 132);
type = Stem;
},
{
place = (54, 188);
place = (54, 188);
type = Stem;
},
{
place = (253, 90);
place = (253, 90);
type = Stem;
},
{
place = (433, 90);
place = (433, 90);
type = Stem;
},
{
place = (409, 304);
place = (409, 304);
type = Stem;
},
{
horizontal = 1;
place = (0, 21);
target = up;
type = BottomGhost;
}
);
layerId = m01;
shapes = (
{
closed = 1;
nodes = (
(444,728,o),
(496,748,o),
(515,810,cs),
(516,815,o),
(517,819,o),
(517,824,cs),
(517,849,o),
(496,870,o),
(471,870,cs),
(451,870,o),
(434,856,o),
(428,839,cs),
(421,821,o),
(408,813,o),
(388,813,cs),
(368,813,o),
(355,821,o),
(348,839,cs),
(342,857,o),
(325,870,o),
(305,870,cs),
(279,870,o),
(259,849,o),
(259,824,cs),
(259,819,o),
(260,815,o),
(261,810,cs),
(280,749,o),
(331,728,o),
(388,728,cs)
);
},
{
closed = 1;
nodes = (
(470,368,ls),
(432,368,o),
(400,337,o),
(400,298,cs),
(400,259,o),
(432,228,o),
(470,228,cs),
(543,228,l),
(518,152,o),
(472,118,o),
(402,118,cs),
(317,118,o),
(242,177,o),
(242,351,cs),
(242,500,o),
(315,572,o),
(403,572,cs),
(453,572,o),
(490,556,o),
(513,522,cs),
(539,482,o),
(545,443,o),
(589,431,cs),
(598,429,o),
(607,428,o),
(616,428,cs),
(633,428,o),
(653,430,o),
(671,435,cs),
(708,446,o),
(719,486,o),
(700,536,cs),
(662,635,o),
(565,704,o),
(405,704,cs),
(216,704,o),
(54,580,o),
(54,340,cs),
(54,108,o),
(183,-14,o),
(367,-14,cs),
(409,-14,o),
(443,-10,o),
(471,-1,cs),
(515,14,o),
(532,47,o),
(549,89,cs),
(556,106,l),
(564,54,ls),
(570,19,o),
(601,-9,o),
(638,-9,cs),
(680,-9,o),
(713,25,o),
(713,66,cs),
(713,273,ls),
(713,334,o),
(679,368,o),
(618,368,cs)
);
}
);
width = 759;
}
);
note = Gbreve;
unicode = 286;
},
{
glyphname = Gcommaaccent;
kernLeft = C;
kernRight = G;
lastChange = "2022-11-29 13:20:18 +0000";
layers = (
{
hints = (
{
horizontal = 1;
place = (-14, 132);
place = (-14, 132);
type = Stem;
},
{
horizontal = 1;
place = (228, 140);
place = (228, 140);
type = Stem;
},
{
horizontal = 1;
place = (572, 132);
place = (572, 132);
type = Stem;
},
{
place = (54, 188);
place = (54, 188);
type = Stem;
},
{
place = (409, 304);
place = (409, 304);
type = Stem;
},
{
horizontal = 1;
place = (-216, 179);
place = (-216, 179);
type = Stem;
},
{
horizontal = 1;
place = (0, 21);
target = up;
type = BottomGhost;
}
);
layerId = m01;
shapes = (
{
closed = 1;
nodes = (
(470,368,ls),
(432,368,o),
(400,337,o),
(400,298,cs),
(400,259,o),
(432,228,o),
(470,228,cs),
(543,228,l),
(518,152,o),
(472,118,o),
(402,118,cs),
(317,118,o),
(242,177,o),
(242,351,cs),
(242,500,o),
(315,572,o),
(403,572,cs),
(453,572,o),
(490,556,o),
(513,522,cs),
(539,482,o),
(545,443,o),
(589,431,cs),
(598,429,o),
(607,428,o),
(616,428,cs),
(633,428,o),
(653,430,o),
(671,435,cs),
(708,446,o),
(719,486,o),
(700,536,cs),
(662,635,o),
(565,704,o),
(405,704,cs),
(216,704,o),
(54,580,o),
(54,340,cs),
(54,108,o),
(183,-14,o),
(367,-14,cs),
(409,-14,o),
(443,-10,o),
(471,-1,cs),
(515,14,o),
(532,47,o),
(549,89,cs),
(556,106,l),
(564,54,ls),
(570,19,o),
(601,-9,o),
(638,-9,cs),
(680,-9,o),
(713,25,o),
(713,66,cs),
(713,273,ls),
(713,334,o),
(679,368,o),
(618,368,cs)
);
},
{
closed = 1;
nodes = (
(344,-67,cs),
(300,-161,ls),
(297,-166,o),
(295,-173,o),
(295,-180,cs),
(295,-205,o),
(316,-225,o),
(340,-225,cs),
(357,-225,o),
(371,-216,o),
(379,-203,cs),
(424,-127,ls),
(455,-74,o),
(405,-13,o),
(405,-13,cs),
(372,-13,o),
(357,-39,o)
);
}
);
width = 759;
}
);
note = Gcommaaccent;
unicode = 290;
},
{
glyphname = Gdotaccent;
kernLeft = C;
kernRight = G;
lastChange = "2022-11-29 13:20:18 +0000";
layers = (
{
hints = (
{
horizontal = 1;
place = (-14, 132);
place = (-14, 132);
type = Stem;
},
{
horizontal = 1;
place = (228, 140);
place = (228, 140);
type = Stem;
},
{
horizontal = 1;
place = (572, 132);
place = (572, 132);
type = Stem;
},
{
horizontal = 1;
place = (725, 176);
place = (725, 176);
type = Stem;
},
{
place = (54, 188);
place = (54, 188);
type = Stem;
},
{
place = (295, 186);
place = (295, 186);
type = Stem;
},
{
place = (409, 304);
place = (409, 304);
type = Stem;
},
{
horizontal = 1;
place = (0, 21);
target = up;
type = BottomGhost;
}
);
layerId = m01;
shapes = (
{
closed = 1;
nodes = (
(444,725,o),
(481,759,o),
(481,813,cs),
(481,867,o),
(444,901,o),
(388,901,cs),
(332,901,o),
(295,867,o),
(295,813,cs),
(295,759,o),
(332,725,o),
(388,725,cs)
);
},
{
closed = 1;
nodes = (
(470,368,ls),
(432,368,o),
(400,337,o),
(400,298,cs),
(400,259,o),
(432,228,o),
(470,228,cs),
(543,228,l),
(518,152,o),
(472,118,o),
(402,118,cs),
(317,118,o),
(242,177,o),
(242,351,cs),
(242,500,o),
(315,572,o),
(403,572,cs),
(453,572,o),
(490,556,o),
(513,522,cs),
(539,482,o),
(545,443,o),
(589,431,cs),
(598,429,o),
(607,428,o),
(616,428,cs),
(633,428,o),
(653,430,o),
(671,435,cs),
(708,446,o),
(719,486,o),
(700,536,cs),
(662,635,o),
(565,704,o),
(405,704,cs),
(216,704,o),
(54,580,o),
(54,340,cs),
(54,108,o),
(183,-14,o),
(367,-14,cs),
(409,-14,o),
(443,-10,o),
(471,-1,cs),
(515,14,o),
(532,47,o),
(549,89,cs),
(556,106,l),
(564,54,ls),
(570,19,o),
(601,-9,o),
(638,-9,cs),
(680,-9,o),
(713,25,o),
(713,66,cs),
(713,273,ls),
(713,334,o),
(679,368,o),
(618,368,cs)
);
}
);
width = 759;
}
);
note = Gdotaccent;
unicode = 288;
},
{
glyphname = H;
lastChange = "2022-11-29 13:20:18 +0000";
layers = (
{
hints = (
{
horizontal = 1;
place = (0, 21);
target = up;
type = BottomGhost;
},
{
horizontal = 1;
place = (268, 140);
place = (268, 140);
type = Stem;
},
{
horizontal = 1;
place = (690, -20);
target = down;
type = TopGhost;
},
{
place = (80, 180);
place = (80, 180);
type = Stem;
},
{
place = (536, 180);
place = (536, 180);
type = Stem;
}
);
layerId = m01;
shapes = (
{
closed = 1;
nodes = (
(716,609,ls),
(716,658,o),
(676,699,o),
(626,699,cs),
(576,699,o),
(536,658,o),
(536,609,cs),
(536,408,l),
(260,408,l),
(260,609,ls),
(260,658,o),
(220,699,o),
(170,699,cs),
(120,699,o),
(80,658,o),
(80,609,cs),
(80,81,ls),
(80,32,o),
(120,-9,o),
(170,-9,cs),
(220,-9,o),
(260,32,o),
(260,81,cs),
(260,268,l),
(536,268,l),
(536,81,ls),
(536,32,o),
(576,-9,o),
(626,-9,cs),
(676,-9,o),
(716,32,o),
(716,81,cs)
);
}
);
width = 770;
}
);
note = H;
unicode = 72;
},
{
glyphname = Hbar;
lastChange = "2022-11-29 13:20:18 +0000";
layers = (
{
hints = (
{
horizontal = 1;
place = (0, 21);
target = up;
type = BottomGhost;
},
{
horizontal = 1;
place = (268, 140);
place = (268, 140);
type = Stem;
},
{
horizontal = 1;
place = (482, 208);
place = (482, 208);
type = Stem;
},
{
place = (80, 180);
place = (80, 180);
type = Stem;
},
{
place = (536, 180);
place = (536, 180);
type = Stem;
},
{
horizontal = 1;
place = (482, 96);
place = (482, 96);
type = Stem;
}
);
layerId = m01;
shapes = (
{
closed = 1;
nodes = (
(717,482,ls),
(743,482,o),
(765,503,o),
(765,530,cs),
(765,557,o),
(743,578,o),
(717,578,cs),
(716,578,l),
(716,609,ls),
(716,658,o),
(676,699,o),
(626,699,cs),
(576,699,o),
(536,658,o),
(536,609,cs),
(536,578,l),
(260,578,l),
(260,634,ls),
(260,670,o),
(226,690,o),
(165,690,cs),
(127,690,ls),
(96,690,o),
(71,665,o),
(71,634,cs),
(71,617,o),
(67,589,o),
(79,578,c),
(53,578,o),
(31,557,o),
(31,530,cs),
(31,503,o),
(53,482,o),
(79,482,cs),
(80,482,l),
(80,81,ls),
(80,32,o),
(120,-9,o),
(170,-9,cs),
(220,-9,o),
(260,32,o),
(260,81,cs),
(260,268,l),
(536,268,l),
(536,81,ls),
(536,32,o),
(576,-9,o),
(626,-9,cs),
(676,-9,o),
(716,32,o),
(716,81,cs),
(716,482,l)
);
},
{
closed = 1;
nodes = (
(536,482,l),
(536,408,l),
(260,408,l),
(260,482,l)
);
}
);
width = 770;
}
);
note = Hbar;
unicode = 294;
},
{
glyphname = I;
lastChange = "2022-11-29 13:20:18 +0000";
layers = (
{
hints = (
{
horizontal = 1;
place = (0, 21);
target = up;
type = BottomGhost;
},
{
horizontal = 1;
place = (690, -20);
target = down;
type = TopGhost;
},
{
place = (80, 180);
place = (80, 180);
type = Stem;
}
);
layerId = m01;
shapes = (
{
closed = 1;
nodes = (
(260,81,cs),
(260,609,ls),
(260,658,o),
(220,699,o),
(170,699,cs),
(120,699,o),
(80,658,o),
(80,609,cs),
(80,81,ls),
(80,32,o),
(120,-9,o),
(170,-9,cs),
(220,-9,o),
(260,32,o)
);
}
);
width = 314;
}
);
note = I;
unicode = 73;
},
{
glyphname = IJ;
kernRight = IJ;
lastChange = "2022-11-29 13:20:18 +0000";
layers = (
{
hints = (
{
horizontal = 1;
place = (0, 21);
target = up;
type = BottomGhost;
},
{
horizontal = 1;
place = (690, -20);
target = down;
type = TopGhost;
},
{
place = (80, 180);
place = (80, 180);
type = Stem;
},
{
place = (363, 180);
place = (363, 180);
type = Stem;
},
{
place = (720, 180);
place = (720, 180);
type = Stem;
},
{
horizontal = 1;
place = (-14, 132);
place = (-14, 132);
type = Stem;
},
{
horizontal = 1;
place = (0, 264);
place = (0, 264);
type = Stem;
}
);
layerId = m01;
shapes = (
{
closed = 1;
nodes = (
(260,81,cs),
(260,609,ls),
(260,658,o),
(220,699,o),
(170,699,cs),
(120,699,o),
(80,658,o),
(80,609,cs),
(80,81,ls),
(80,32,o),
(120,-9,o),
(170,-9,cs),
(220,-9,o),
(260,32,o)
);
},
{
closed = 1;
nodes = (
(900,609,ls),
(900,658,o),
(860,699,o),
(810,699,cs),
(760,699,o),
(720,658,o),
(720,609,cs),
(720,271,ls),
(720,250,o),
(720,228,o),
(718,205,cs),
(713,150,o),
(687,118,o),
(637,118,cs),
(601,118,o),
(572,131,o),
(556,172,cs),
(539,216,o),
(539,255,o),
(499,275,cs),
(486,281,o),
(471,284,o),
(456,284,cs),
(437,284,o),
(419,279,o),
(403,271,cs),
(368,252,o),
(361,215,o),
(371,168,cs),
(395,56,o),
(474,-14,o),
(632,-14,cs),
(811,-14,o),
(890,73,o),
(897,194,cs),
(900,245,o),
(900,267,o),
(900,299,cs)
);
}
);
width = 952;
}
);
note = IJ;
unicode = 306;
},
{
glyphname = Iacute;
lastChange = "2022-11-29 13:20:18 +0000";
layers = (
{
hints = (
{
horizontal = 1;
place = (0, 21);
target = up;
type = BottomGhost;
},
{
horizontal = 1;
place = (690, -20);
target = down;
type = TopGhost;
},
{
horizontal = 1;
place = (735, 125);
place = (735, 125);
type = Stem;
},
{
place = (80, 180);
place = (80, 180);
type = Stem;
}
);
layerId = m01;
shapes = (
{
closed = 1;
nodes = (
(188,727,cs),
(262,799,o),
(297,874,o),
(246,869,cs),
(244,869,o),
(242,868,o),
(240,868,cs),
(193,857,o),
(154,822,o),
(148,775,cs),
(147,771,o),
(147,768,o),
(147,765,cs),
(147,744,o),
(165,726,o),
(187,726,c),
(187,726,o),
(187,726,o)
);
},
{
closed = 1;
nodes = (
(260,81,cs),
(260,609,ls),
(260,658,o),
(220,699,o),
(170,699,cs),
(120,699,o),
(80,658,o),
(80,609,cs),
(80,81,ls),
(80,32,o),
(120,-9,o),
(170,-9,cs),
(220,-9,o),
(260,32,o)
);
}
);
width = 314;
}
);
note = Iacute;
unicode = 205;
},
{
glyphname = Icircumflex;
lastChange = "2022-11-29 13:20:18 +0000";
layers = (
{
hints = (
{
horizontal = 1;
place = (0, 21);
target = up;
type = BottomGhost;
},
{
horizontal = 1;
place = (690, -20);
target = down;
type = TopGhost;
},
{
horizontal = 1;
place = (735, 125);
place = (735, 125);
type = Stem;
},
{
place = (80, 180);
place = (80, 180);
type = Stem;
}
);
layerId = m01;
shapes = (
{
closed = 1;
nodes = (
(145,754,cs),
(169,811,l),
(186,773,ls),
(198,747,o),
(207,735,o),
(216,735,cs),
(250,735,o),
(279,763,o),
(279,797,cs),
(279,832,o),
(250,860,o),
(216,860,cs),
(130,860,ls),
(86,860,o),
(54,822,o),
(57,784,c),
(58,780,o),
(57,776,o),
(57,772,cs),
(57,746,o),
(78,726,o),
(103,726,cs),
(122,726,o),
(138,737,o)
);
},
{
closed = 1;
nodes = (
(80,609,cs),
(80,81,ls),
(80,32,o),
(120,-9,o),
(170,-9,cs),
(220,-9,o),
(260,32,o),
(260,81,cs),
(260,609,ls),
(260,658,o),
(220,699,o),
(170,699,cs),
(120,699,o),
(80,658,o)
);
}
);
width = 314;
}
);
note = Icircumflex;
unicode = 206;
},
{
glyphname = Idieresis;
lastChange = "2022-11-29 13:20:18 +0000";
layers = (
{
hints = (
{
horizontal = 1;
place = (0, 21);
target = up;
type = BottomGhost;
},
{
horizontal = 1;
place = (690, -20);
target = down;
type = TopGhost;
},
{
horizontal = 1;
place = (722, 146);
place = (722, 146);
type = Stem;
},
{
place = (80, 180);
place = (80, 180);
type = Stem;
},
{
place = (-5, 150);
place = (-5, 150);
type = Stem;
},
{
place = (195, 150);
place = (195, 150);
type = Stem;
}
);
layerId = m01;
shapes = (
{
closed = 1;
nodes = (
(260,81,cs),
(260,609,ls),
(260,658,o),
(220,699,o),
(170,699,cs),
(120,699,o),
(80,658,o),
(80,609,cs),
(80,81,ls),
(80,32,o),
(120,-9,o),
(170,-9,cs),
(220,-9,o),
(260,32,o)
);
},
{
closed = 1;
nodes = (
(63,721,cs),
(85,721,ls),
(124,721,o),
(157,753,o),
(157,793,cs),
(157,803,o),
(155,813,o),
(151,821,cs),
(137,853,o),
(108,877,o),
(73,877,cs),
(61,877,o),
(50,874,o),
(40,869,cs),
(11,855,o),
(-11,827,o),
(-11,795,cs),
(-11,754,o),
(23,721,o)
);
},
{
closed = 1;
nodes = (
(264,721,cs),
(286,721,ls),
(325,721,o),
(358,753,o),
(358,793,cs),
(358,803,o),
(356,813,o),
(352,821,cs),
(338,853,o),
(309,877,o),
(274,877,cs),
(262,877,o),
(251,874,o),
(241,869,cs),
(212,855,o),
(190,827,o),
(190,795,cs),
(190,754,o),
(224,721,o)
);
}
);
width = 314;
}
);
note = Idieresis;
unicode = 207;
},
{
glyphname = Idotaccent;
lastChange = "2022-11-29 13:20:18 +0000";
layers = (
{
hints = (
{
horizontal = 1;
place = (0, 21);
target = up;
type = BottomGhost;
},
{
horizontal = 1;
place = (690, -20);
target = down;
type = TopGhost;
},
{
horizontal = 1;
place = (725, 176);
place = (725, 176);
type = Stem;
},
{
place = (80, 180);
place = (80, 180);
type = Stem;
}
);
layerId = m01;
shapes = (
{
closed = 1;
nodes = (
(114,901,o),
(77,867,o),
(77,813,cs),
(77,759,o),
(114,725,o),
(170,725,cs),
(226,725,o),
(263,759,o),
(263,813,cs),
(263,867,o),
(226,901,o),
(170,901,cs)
);
},
{
closed = 1;
nodes = (
(260,81,cs),
(260,609,ls),
(260,658,o),
(220,699,o),
(170,699,cs),
(120,699,o),
(80,658,o),
(80,609,cs),
(80,81,ls),
(80,32,o),
(120,-9,o),
(170,-9,cs),
(220,-9,o),
(260,32,o)
);
}
);
width = 314;
}
);
note = Idotaccent;
unicode = 304;
},
{
glyphname = Igrave;
lastChange = "2022-11-29 13:20:18 +0000";
layers = (
{
hints = (
{
horizontal = 1;
place = (0, 21);
target = up;
type = BottomGhost;
},
{
horizontal = 1;
place = (690, -20);
target = down;
type = TopGhost;
},
{
horizontal = 1;
place = (735, 125);
place = (735, 125);
type = Stem;
},
{
place = (80, 180);
place = (80, 180);
type = Stem;
}
);
layerId = m01;
shapes = (
{
closed = 1;
nodes = (
(199,766,cs),
(136,842,o),
(60,852,o),
(59,822,cs),
(59,821,o),
(59,821,o),
(59,820,cs),
(59,804,o),
(66,790,o),
(77,781,cs),
(135,735,ls),
(142,729,o),
(151,726,o),
(160,726,cs),
(182,726,o),
(200,744,o),
(200,765,c),
(200,765,o),
(200,765,o)
);
},
{
closed = 1;
nodes = (
(260,81,cs),
(260,609,ls),
(260,658,o),
(220,699,o),
(170,699,cs),
(120,699,o),
(80,658,o),
(80,609,cs),
(80,81,ls),
(80,32,o),
(120,-9,o),
(170,-9,cs),
(220,-9,o),
(260,32,o)
);
}
);
width = 314;
}
);
note = Igrave;
unicode = 204;
},
{
glyphname = Imacron;
lastChange = "2022-11-29 13:20:18 +0000";
layers = (
{
hints = (
{
horizontal = 1;
place = (0, 21);
target = up;
type = BottomGhost;
},
{
horizontal = 1;
place = (690, -20);
target = down;
type = TopGhost;
},
{
horizontal = 1;
place = (760, 96);
place = (760, 96);
type = Stem;
},
{
place = (80, 180);
place = (80, 180);
type = Stem;
}
);
layerId = m01;
shapes = (
{
closed = 1;
nodes = (
(281,760,ls),
(307,760,o),
(329,781,o),
(329,808,cs),
(329,835,o),
(307,856,o),
(281,856,cs),
(59,856,ls),
(33,856,o),
(11,835,o),
(11,808,cs),
(11,781,o),
(33,760,o),
(59,760,cs)
);
},
{
closed = 1;
nodes = (
(260,81,cs),
(260,609,ls),
(260,658,o),
(220,699,o),
(170,699,cs),
(120,699,o),
(80,658,o),
(80,609,cs),
(80,81,ls),
(80,32,o),
(120,-9,o),
(170,-9,cs),
(220,-9,o),
(260,32,o)
);
}
);
width = 314;
}
);
note = Imacron;
unicode = 298;
},
{
glyphname = Iogonek;
lastChange = "2022-11-29 13:20:18 +0000";
layers = (
{
hints = (
{
horizontal = 1;
place = (-223, 102);
place = (-223, 102);
type = Stem;
},
{
horizontal = 1;
place = (0, 21);
target = up;
type = BottomGhost;
},
{
horizontal = 1;
place = (690, -20);
target = down;
type = TopGhost;
},
{
place = (80, 180);
place = (80, 180);
type = Stem;
}
);
layerId = m01;
shapes = (
{
closed = 1;
nodes = (
(240,0,o),
(260,34,o),
(260,95,cs),
(260,609,ls),
(260,658,o),
(220,699,o),
(170,699,cs),
(120,699,o),
(80,658,o),
(80,609,cs),
(80,5,l),
(35,-20,o),
(-6,-77,o),
(-6,-137,cs),
(-6,-201,o),
(42,-223,o),
(108,-223,cs),
(163,-223,o),
(202,-207,o),
(237,-184,cs),
(247,-177,o),
(252,-167,o),
(252,-155,cs),
(252,-133,o),
(230,-116,o),
(209,-120,cs),
(206,-121,o),
(202,-121,o),
(199,-121,cs),
(179,-121,o),
(158,-108,o),
(158,-70,cs),
(158,-32,o),
(178,0,o),
(203,0,cs)
);
}
);
width = 314;
}
);
note = Iogonek;
unicode = 302;
},
{
glyphname = J;
kernLeft = J;
kernRight = IJ;
lastChange = "2022-11-29 13:20:18 +0000";
layers = (
{
hints = (
{
horizontal = 1;
place = (-14, 132);
place = (-14, 132);
type = Stem;
},
{
horizontal = 1;
place = (690, -20);
target = down;
type = TopGhost;
},
{
place = (49, 180);
place = (49, 180);
type = Stem;
},
{
place = (406, 180);
place = (406, 180);
type = Stem;
}
);
layerId = m01;
shapes = (
{
closed = 1;
nodes = (
(586,609,ls),
(586,658,o),
(546,699,o),
(496,699,cs),
(446,699,o),
(406,658,o),
(406,609,cs),
(406,271,ls),
(406,250,o),
(406,228,o),
(404,205,cs),
(399,150,o),
(373,118,o),
(323,118,cs),
(287,118,o),
(258,131,o),
(242,172,cs),
(225,216,o),
(225,255,o),
(185,275,cs),
(172,281,o),
(157,284,o),
(142,284,cs),
(123,284,o),
(105,279,o),
(89,271,cs),
(54,252,o),
(47,215,o),
(57,168,cs),
(81,56,o),
(160,-14,o),
(318,-14,cs),
(497,-14,o),
(576,73,o),
(583,194,cs),
(586,245,o),
(586,267,o),
(586,299,cs)
);
}
);
width = 638;
}
);
note = J;
unicode = 74;
},
{
glyphname = K;
kernRight = K;
lastChange = "2022-11-29 13:20:18 +0000";
layers = (
{
hints = (
{
horizontal = 1;
place = (0, 21);
target = up;
type = BottomGhost;
},
{
horizontal = 1;
place = (690, -20);
target = down;
type = TopGhost;
},
{
place = (80, 180);
place = (80, 180);
type = Stem;
}
);
layerId = m01;
shapes = (
{
closed = 1;
nodes = (
(440,365,l),
(631,574,ls),
(687,635,o),
(669,690,o),
(593,690,cs),
(544,690,o),
(509,675,o),
(477,637,cs),
(260,385,l),
(260,609,ls),
(260,658,o),
(220,699,o),
(170,699,cs),
(120,699,o),
(80,658,o),
(80,609,cs),
(80,81,ls),
(80,32,o),
(120,-9,o),
(170,-9,cs),
(220,-9,o),
(260,32,o),
(260,81,cs),
(260,212,l),
(309,266,l),
(484,27,ls),
(500,6,o),
(526,-9,o),
(555,-9,cs),
(603,-9,o),
(643,30,o),
(643,79,cs),
(643,99,o),
(636,118,o),
(624,133,cs)
);
}
);
width = 743;
}
);
note = K;
unicode = 75;
},
{
glyphname = Kcommaaccent;
kernRight = K;
lastChange = "2022-11-29 13:20:18 +0000";
layers = (
{
hints = (
{
horizontal = 1;
place = (-216, 179);
place = (-216, 179);
type = Stem;
},
{
horizontal = 1;
place = (0, 21);
target = up;
type = BottomGhost;
},
{
horizontal = 1;
place = (690, -20);
target = down;
type = TopGhost;
},
{
place = (80, 180);
place = (80, 180);
type = Stem;
}
);
layerId = m01;
shapes = (
{
closed = 1;
nodes = (
(440,365,l),
(631,574,ls),
(687,635,o),
(669,690,o),
(593,690,cs),
(544,690,o),
(509,675,o),
(477,637,cs),
(260,385,l),
(260,609,ls),
(260,658,o),
(220,699,o),
(170,699,cs),
(120,699,o),
(80,658,o),
(80,609,cs),
(80,81,ls),
(80,32,o),
(120,-9,o),
(170,-9,cs),
(220,-9,o),
(260,32,o),
(260,81,cs),
(260,212,l),
(309,266,l),
(484,27,ls),
(500,6,o),
(526,-9,o),
(555,-9,cs),
(603,-9,o),
(643,30,o),
(643,79,cs),
(643,99,o),
(636,118,o),
(624,133,cs)
);
},
{
closed = 1;
nodes = (
(311,-67,cs),
(267,-161,ls),
(264,-166,o),
(262,-173,o),
(262,-180,cs),
(262,-205,o),
(283,-225,o),
(307,-225,cs),
(324,-225,o),
(338,-216,o),
(346,-203,cs),
(391,-127,ls),
(422,-74,o),
(372,-13,o),
(372,-13,cs),
(339,-13,o),
(324,-39,o)
);
}
);
width = 743;
}
);
note = Kcommaaccent;
unicode = 310;
},
{
glyphname = L;
kernRight = L;
lastChange = "2022-11-29 13:20:18 +0000";
layers = (
{
hints = (
{
horizontal = 1;
place = (0, 152);
place = (0, 152);
type = Stem;
},
{
horizontal = 1;
place = (690, -20);
target = down;
type = TopGhost;
},
{
place = (80, 180);
place = (80, 180);
type = Stem;
}
);
layerId = m01;
shapes = (
{
closed = 1;
nodes = (
(542,152,cs),
(260,152,l),
(260,609,ls),
(260,658,o),
(220,699,o),
(170,699,cs),
(120,699,o),
(80,658,o),
(80,609,cs),
(80,95,ls),
(80,34,o),
(114,0,o),
(175,0,cs),
(542,0,ls),
(584,0,o),
(618,34,o),
(618,76,cs),
(618,118,o),
(584,152,o)
);
}
);
width = 628;
}
);
note = L;
unicode = 76;
},
{
glyphname = Lacute;
kernRight = L;
lastChange = "2022-11-29 13:20:18 +0000";
layers = (
{
hints = (
{
horizontal = 1;
place = (0, 152);
place = (0, 152);
type = Stem;
},
{
horizontal = 1;
place = (690, -20);
target = down;
type = TopGhost;
},
{
horizontal = 1;
place = (735, 125);
place = (735, 125);
type = Stem;
},
{
place = (80, 180);
place = (80, 180);
type = Stem;
}
);
layerId = m01;
shapes = (
{
closed = 1;
nodes = (
(188,727,cs),
(262,799,o),
(297,874,o),
(246,869,cs),
(244,869,o),
(242,868,o),
(240,868,cs),
(193,857,o),
(154,822,o),
(148,775,cs),
(147,771,o),
(147,768,o),
(147,765,cs),
(147,744,o),
(165,726,o),
(187,726,c),
(187,726,o),
(187,726,o)
);
},
{
closed = 1;
nodes = (
(542,152,cs),
(260,152,l),
(260,609,ls),
(260,658,o),
(220,699,o),
(170,699,cs),
(120,699,o),
(80,658,o),
(80,609,cs),
(80,95,ls),
(80,34,o),
(114,0,o),
(175,0,cs),
(542,0,ls),
(584,0,o),
(618,34,o),
(618,76,cs),
(618,118,o),
(584,152,o)
);
}
);
width = 628;
}
);
note = Lacute;
unicode = 313;
},
{
glyphname = Lcaron;
kernRight = L;
lastChange = "2022-11-29 13:20:18 +0000";
layers = (
{
hints = (
{
horizontal = 1;
place = (0, 152);
place = (0, 152);
type = Stem;
},
{
horizontal = 1;
place = (690, -20);
target = down;
type = TopGhost;
},
{
place = (80, 180);
place = (80, 180);
type = Stem;
}
);
layerId = m01;
shapes = (
{
closed = 1;
nodes = (
(542,152,cs),
(260,152,l),
(260,609,ls),
(260,658,o),
(220,699,o),
(170,699,cs),
(120,699,o),
(80,658,o),
(80,609,cs),
(80,95,ls),
(80,34,o),
(114,0,o),
(175,0,cs),
(542,0,ls),
(584,0,o),
(618,34,o),
(618,76,cs),
(618,118,o),
(584,152,o)
);
}
);
width = 628;
}
);
note = Lcaron;
unicode = 317;
},
{
glyphname = Lcommaaccent;
kernRight = L;
lastChange = "2022-11-29 13:20:18 +0000";
layers = (
{
hints = (
{
horizontal = 1;
place = (-216, 179);
place = (-216, 179);
type = Stem;
},
{
horizontal = 1;
place = (0, 152);
place = (0, 152);
type = Stem;
},
{
horizontal = 1;
place = (690, -20);
target = down;
type = TopGhost;
},
{
place = (80, 180);
place = (80, 180);
type = Stem;
}
);
layerId = m01;
shapes = (
{
closed = 1;
nodes = (
(542,152,cs),
(260,152,l),
(260,609,ls),
(260,658,o),
(220,699,o),
(170,699,cs),
(120,699,o),
(80,658,o),
(80,609,cs),
(80,95,ls),
(80,34,o),
(114,0,o),
(175,0,cs),
(542,0,ls),
(584,0,o),
(618,34,o),
(618,76,cs),
(618,118,o),
(584,152,o)
);
},
{
closed = 1;
nodes = (
(285,-67,cs),
(241,-161,ls),
(238,-166,o),
(236,-173,o),
(236,-180,cs),
(236,-205,o),
(257,-225,o),
(281,-225,cs),
(298,-225,o),
(312,-216,o),
(320,-203,cs),
(365,-127,ls),
(396,-74,o),
(346,-13,o),
(346,-13,cs),
(313,-13,o),
(298,-39,o)
);
}
);
width = 628;
}
);
note = Lcommaaccent;
unicode = 315;
},
{
glyphname = Ldot;
kernRight = L;
lastChange = "2022-11-29 13:20:18 +0000";
layers = (
{
hints = (
{
horizontal = 1;
place = (0, 152);
place = (0, 152);
type = Stem;
},
{
horizontal = 1;
place = (300, 200);
place = (300, 200);
type = Stem;
},
{
horizontal = 1;
place = (690, -20);
target = down;
type = TopGhost;
},
{
place = (80, 180);
place = (80, 180);
type = Stem;
},
{
place = (350, 200);
place = (350, 200);
type = Stem;
}
);
layerId = m01;
shapes = (
{
closed = 1;
nodes = (
(542,152,cs),
(260,152,l),
(260,609,ls),
(260,658,o),
(220,699,o),
(170,699,cs),
(120,699,o),
(80,658,o),
(80,609,cs),
(80,95,ls),
(80,34,o),
(114,0,o),
(175,0,cs),
(542,0,ls),
(584,0,o),
(618,34,o),
(618,76,cs),
(618,118,o),
(584,152,o)
);
},
{
closed = 1;
nodes = (
(507,300,o),
(550,343,o),
(550,400,cs),
(550,457,o),
(507,500,o),
(450,500,cs),
(393,500,o),
(350,457,o),
(350,400,cs),
(350,343,o),
(393,300,o),
(450,300,cs)
);
}
);
width = 628;
}
);
note = Ldot;
unicode = 319;
},
{
glyphname = Lslash;
kernRight = L;
lastChange = "2022-11-29 13:20:18 +0000";
layers = (
{
hints = (
{
horizontal = 1;
place = (0, 152);
place = (0, 152);
type = Stem;
},
{
horizontal = 1;
place = (538, -20);
target = down;
type = TopGhost;
},
{
horizontal = 1;
place = (690, -20);
target = down;
type = TopGhost;
},
{
place = (120, 180);
place = (120, 180);
type = Stem;
}
);
layerId = m01;
shapes = (
{
closed = 1;
nodes = (
(582,152,cs),
(300,152,l),
(300,380,l),
(368,416,ls),
(384,425,o),
(395,441,o),
(395,460,cs),
(395,488,o),
(373,510,o),
(345,510,cs),
(337,510,o),
(329,507,o),
(322,504,cs),
(300,493,l),
(300,609,ls),
(300,658,o),
(260,699,o),
(210,699,cs),
(160,699,o),
(120,658,o),
(120,609,cs),
(120,398,l),
(43,357,ls),
(27,348,o),
(17,332,o),
(17,313,cs),
(17,286,o),
(39,263,o),
(67,263,cs),
(75,263,o),
(83,265,o),
(90,269,cs),
(120,285,l),
(120,95,ls),
(120,34,o),
(154,0,o),
(215,0,cs),
(582,0,ls),
(624,0,o),
(658,34,o),
(658,76,cs),
(658,118,o),
(624,152,o)
);
}
);
width = 668;
}
);
note = Lslash;
unicode = 321;
},
{
glyphname = M;
lastChange = "2022-11-29 13:20:18 +0000";
layers = (
{
hints = (
{
horizontal = 1;
place = (0, 21);
target = up;
type = BottomGhost;
},
{
horizontal = 1;
place = (690, -20);
target = down;
type = TopGhost;
},
{
place = (80, 180);
place = (80, 180);
type = Stem;
},
{
place = (689, 180);
place = (689, 180);
type = Stem;
},
{
horizontal = 1;
place = (0, 175);
place = (0, 175);
type = Stem;
},
{
horizontal = 1;
place = (509, 181);
place = (509, 181);
type = Stem;
}
);
layerId = m01;
shapes = (
{
closed = 1;
nodes = (
(869,595,ls),
(869,656,o),
(835,690,o),
(774,690,cs),
(680,690,ls),
(623,690,o),
(589,662,o),
(576,607,cs),
(478,175,l),
(380,607,ls),
(367,662,o),
(333,690,o),
(276,690,cs),
(175,690,ls),
(114,690,o),
(80,656,o),
(80,595,cs),
(80,81,ls),
(80,32,o),
(120,-9,o),
(170,-9,cs),
(220,-9,o),
(260,32,o),
(260,81,cs),
(260,290,ls),
(260,350,o),
(260,439,o),
(258,509,c),
(269,439,o),
(289,350,o),
(305,290,cs),
(361,78,ls),
(374,28,o),
(420,-9,o),
(474,-9,cs),
(529,-9,o),
(575,27,o),
(588,78,cs),
(643,290,ls),
(659,351,o),
(679,439,o),
(691,509,c),
(689,439,o),
(689,350,o),
(689,290,cs),
(689,81,ls),
(689,32,o),
(729,-9,o),
(779,-9,cs),
(829,-9,o),
(869,32,o),
(869,81,cs)
);
}
);
width = 923;
}
);
note = M;
unicode = 77;
},
{
glyphname = N;
lastChange = "2022-11-29 13:20:18 +0000";
layers = (
{
hints = (
{
horizontal = 1;
place = (0, 21);
target = up;
type = BottomGhost;
},
{
horizontal = 1;
place = (690, -20);
target = down;
type = TopGhost;
},
{
place = (80, 180);
place = (80, 180);
type = Stem;
},
{
place = (560, 180);
place = (560, 180);
type = Stem;
}
);
layerId = m01;
shapes = (
{
closed = 1;
nodes = (
(740,136,cs),
(740,609,ls),
(740,658,o),
(700,699,o),
(650,699,cs),
(600,699,o),
(560,658,o),
(560,609,cs),
(560,395,ls),
(560,355,o),
(561,284,o),
(566,214,c),
(338,628,ls),
(315,670,o),
(270,699,o),
(218,699,cs),
(142,699,o),
(80,637,o),
(80,561,cs),
(80,81,ls),
(80,32,o),
(120,-9,o),
(170,-9,cs),
(220,-9,o),
(260,32,o),
(260,81,cs),
(260,285,ls),
(260,325,o),
(260,386,o),
(254,456,c),
(469,66,ls),
(493,22,o),
(541,-9,o),
(595,-9,cs),
(675,-9,o),
(740,57,o)
);
}
);
width = 794;
}
);
note = N;
unicode = 78;
},
{
glyphname = Nacute;
lastChange = "2022-11-29 13:20:18 +0000";
layers = (
{
hints = (
{
horizontal = 1;
place = (0, 21);
target = up;
type = BottomGhost;
},
{
horizontal = 1;
place = (690, -20);
target = down;
type = TopGhost;
},
{
horizontal = 1;
place = (735, 125);
place = (735, 125);
type = Stem;
},
{
place = (80, 180);
place = (80, 180);
type = Stem;
},
{
place = (560, 180);
place = (560, 180);
type = Stem;
}
);
layerId = m01;
shapes = (
{
closed = 1;
nodes = (
(423,727,cs),
(497,799,o),
(532,874,o),
(481,869,cs),
(479,869,o),
(477,868,o),
(475,868,cs),
(428,857,o),
(389,822,o),
(383,775,cs),
(382,771,o),
(382,768,o),
(382,765,cs),
(382,744,o),
(400,726,o),
(422,726,c),
(422,726,o),
(422,726,o)
);
},
{
closed = 1;
nodes = (
(740,136,cs),
(740,609,ls),
(740,658,o),
(700,699,o),
(650,699,cs),
(600,699,o),
(560,658,o),
(560,609,cs),
(560,395,ls),
(560,355,o),
(561,284,o),
(566,214,c),
(338,628,ls),
(315,670,o),
(270,699,o),
(218,699,cs),
(142,699,o),
(80,637,o),
(80,561,cs),
(80,81,ls),
(80,32,o),
(120,-9,o),
(170,-9,cs),
(220,-9,o),
(260,32,o),
(260,81,cs),
(260,285,ls),
(260,325,o),
(260,386,o),
(254,456,c),
(469,66,ls),
(493,22,o),
(541,-9,o),
(595,-9,cs),
(675,-9,o),
(740,57,o)
);
}
);
width = 794;
}
);
note = Nacute;
unicode = 323;
},
{
glyphname = Ncaron;
lastChange = "2022-11-29 13:20:18 +0000";
layers = (
{
hints = (
{
horizontal = 1;
place = (0, 21);
target = up;
type = BottomGhost;
},
{
horizontal = 1;
place = (690, -20);
target = down;
type = TopGhost;
},
{
horizontal = 1;
place = (735, 125);
place = (735, 125);
type = Stem;
},
{
place = (80, 180);
place = (80, 180);
type = Stem;
},
{
place = (560, 180);
place = (560, 180);
type = Stem;
}
);
layerId = m01;
shapes = (
{
closed = 1;
nodes = (
(360,735,cs),
(446,735,ls),
(490,735,o),
(522,773,o),
(519,811,c),
(518,815,o),
(519,819,o),
(519,823,cs),
(519,849,o),
(498,869,o),
(473,869,cs),
(454,869,o),
(438,858,o),
(431,841,cs),
(407,784,l),
(390,822,ls),
(378,848,o),
(369,860,o),
(360,860,cs),
(326,860,o),
(297,832,o),
(297,798,cs),
(297,763,o),
(326,735,o)
);
},
{
closed = 1;
nodes = (
(740,609,ls),
(740,658,o),
(700,699,o),
(650,699,cs),
(600,699,o),
(560,658,o),
(560,609,cs),
(560,395,ls),
(560,355,o),
(561,284,o),
(566,214,c),
(338,628,ls),
(315,670,o),
(270,699,o),
(218,699,cs),
(142,699,o),
(80,637,o),
(80,561,cs),
(80,81,ls),
(80,32,o),
(120,-9,o),
(170,-9,cs),
(220,-9,o),
(260,32,o),
(260,81,cs),
(260,285,ls),
(260,325,o),
(260,386,o),
(254,456,c),
(469,66,ls),
(493,22,o),
(541,-9,o),
(595,-9,cs),
(675,-9,o),
(740,57,o),
(740,136,cs)
);
}
);
width = 794;
}
);
note = Ncaron;
unicode = 327;
},
{
glyphname = Ncommaaccent;
lastChange = "2022-11-29 13:20:18 +0000";
layers = (
{
hints = (
{
horizontal = 1;
place = (-216, 179);
place = (-216, 179);
type = Stem;
},
{
horizontal = 1;
place = (0, 21);
target = up;
type = BottomGhost;
},
{
horizontal = 1;
place = (690, -20);
target = down;
type = TopGhost;
},
{
place = (80, 180);
place = (80, 180);
type = Stem;
},
{
place = (560, 180);
place = (560, 180);
type = Stem;
}
);
layerId = m01;
shapes = (
{
closed = 1;
nodes = (
(740,136,cs),
(740,609,ls),
(740,658,o),
(700,699,o),
(650,699,cs),
(600,699,o),
(560,658,o),
(560,609,cs),
(560,395,ls),
(560,355,o),
(561,284,o),
(566,214,c),
(338,628,ls),
(315,670,o),
(270,699,o),
(218,699,cs),
(142,699,o),
(80,637,o),
(80,561,cs),
(80,81,ls),
(80,32,o),
(120,-9,o),
(170,-9,cs),
(220,-9,o),
(260,32,o),
(260,81,cs),
(260,285,ls),
(260,325,o),
(260,386,o),
(254,456,c),
(469,66,ls),
(493,22,o),
(541,-9,o),
(595,-9,cs),
(675,-9,o),
(740,57,o)
);
},
{
closed = 1;
nodes = (
(479,-47,l),
(479,-41,o),
(465,-37,o),
(439,-37,cs),
(363,-37,o),
(301,-100,o),
(302,-170,cs),
(302,-180,ls),
(302,-205,o),
(323,-225,o),
(347,-225,cs),
(364,-225,o),
(378,-216,o),
(386,-203,cs)
);
}
);
width = 794;
}
);
note = Ncommaaccent;
unicode = 325;
},
{
glyphname = Eng;
lastChange = "2022-11-29 13:20:18 +0000";
layers = (
{
hints = (
{
horizontal = 1;
place = (-223, 132);
place = (-223, 132);
type = Stem;
},
{
horizontal = 1;
place = (0, 21);
target = up;
type = BottomGhost;
},
{
horizontal = 1;
place = (690, -20);
target = down;
type = TopGhost;
},
{
place = (80, 180);
place = (80, 180);
type = Stem;
},
{
place = (560, 180);
place = (560, 180);
type = Stem;
}
);
layerId = m01;
shapes = (
{
closed = 1;
nodes = (
(740,609,ls),
(740,658,o),
(700,699,o),
(650,699,cs),
(600,699,o),
(560,658,o),
(560,609,cs),
(560,435,ls),
(560,395,o),
(561,324,o),
(566,254,c),
(339,631,ls),
(315,672,o),
(270,699,o),
(220,699,cs),
(143,699,o),
(80,636,o),
(80,559,cs),
(80,81,ls),
(80,32,o),
(120,-9,o),
(170,-9,cs),
(220,-9,o),
(260,32,o),
(260,81,cs),
(260,285,ls),
(260,325,o),
(260,386,o),
(254,456,c),
(560,-20,l),
(560,-33,ls),
(560,-56,o),
(553,-73,o),
(524,-82,cs),
(496,-92,o),
(475,-119,o),
(475,-150,cs),
(475,-195,o),
(514,-223,o),
(552,-220,cs),
(680,-211,o),
(731,-173,o),
(739,-98,cs),
(740,-84,o),
(740,-75,o),
(740,-57,cs)
);
}
);
width = 794;
}
);
note = Eng;
unicode = 330;
},
{
glyphname = Ntilde;
lastChange = "2022-11-29 13:20:18 +0000";
layers = (
{
hints = (
{
horizontal = 1;
place = (0, 21);
target = up;
type = BottomGhost;
},
{
horizontal = 1;
place = (690, -20);
target = down;
type = TopGhost;
},
{
horizontal = 1;
place = (742, 134);
place = (742, 134);
type = Stem;
},
{
place = (241, 96);
place = (241, 96);
type = Stem;
},
{
place = (560, 180);
place = (560, 180);
type = Stem;
},
{
horizontal = 1;
place = (739, 134);
place = (739, 134);
type = Stem;
},
{
place = (80, 180);
place = (80, 180);
type = Stem;
},
{
place = (473, 96);
place = (473, 96);
type = Stem;
}
);
layerId = m01;
shapes = (
{
closed = 1;
nodes = (
(282,876,o),
(254,850,o),
(245,789,cs),
(241,760,o),
(263,733,o),
(293,733,cs),
(314,733,o),
(333,746,o),
(340,764,cs),
(343,771,o),
(346,773,o),
(352,773,cs),
(360,773,o),
(373,768,o),
(397,758,cs),
(434,742,o),
(450,739,o),
(479,739,cs),
(528,739,o),
(556,765,o),
(565,826,cs),
(569,855,o),
(547,882,o),
(517,882,cs),
(496,882,o),
(477,869,o),
(470,851,cs),
(467,844,o),
(464,842,o),
(458,842,cs),
(450,842,o),
(437,846,o),
(413,857,cs),
(377,873,o),
(360,876,o),
(331,876,cs)
);
},
{
closed = 1;
nodes = (
(740,136,cs),
(740,609,ls),
(740,658,o),
(700,699,o),
(650,699,cs),
(600,699,o),
(560,658,o),
(560,609,cs),
(560,395,ls),
(560,355,o),
(561,284,o),
(566,214,c),
(338,628,ls),
(315,670,o),
(270,699,o),
(218,699,cs),
(142,699,o),
(80,637,o),
(80,561,cs),
(80,81,ls),
(80,32,o),
(120,-9,o),
(170,-9,cs),
(220,-9,o),
(260,32,o),
(260,81,cs),
(260,285,ls),
(260,325,o),
(260,386,o),
(254,456,c),
(469,66,ls),
(493,22,o),
(541,-9,o),
(595,-9,cs),
(675,-9,o),
(740,57,o)
);
}
);
width = 794;
}
);
note = Ntilde;
unicode = 209;
},
{
glyphname = O;
kernLeft = C;
kernRight = D;
layers = (
{
hints = (
{
horizontal = 1;
place = (-14, 132);
place = (-14, 132);
type = Stem;
},
{
horizontal = 1;
place = (572, 132);
place = (572, 132);
type = Stem;
},
{
place = (54, 184);
place = (54, 184);
type = Stem;
},
{
place = (576, 184);
place = (576, 184);
type = Stem;
}
);
layerId = m01;
shapes = (
{
closed = 1;
nodes = (
(192,704,o),
(54,567,o),
(54,345,cs),
(54,124,o),
(192,-14,o),
(407,-14,cs),
(622,-14,o),
(760,124,o),
(760,345,cs),
(760,567,o),
(622,704,o),
(407,704,cs)
);
},
{
closed = 1;
nodes = (
(303,118,o),
(238,199,o),
(238,345,cs),
(238,492,o),
(303,572,o),
(407,572,cs),
(511,572,o),
(576,492,o),
(576,345,cs),
(576,199,o),
(511,118,o),
(407,118,cs)
);
}
);
width = 788;
}
);
note = O;
unicode = 79;
},
{
glyphname = Oacute;
kernLeft = C;
kernRight = D;
lastChange = "2022-11-29 13:20:18 +0000";
layers = (
{
hints = (
{
horizontal = 1;
place = (-14, 132);
place = (-14, 132);
type = Stem;
},
{
horizontal = 1;
place = (572, 132);
place = (572, 132);
type = Stem;
},
{
horizontal = 1;
place = (735, 125);
place = (735, 125);
type = Stem;
},
{
place = (54, 184);
place = (54, 184);
type = Stem;
},
{
place = (576, 184);
place = (576, 184);
type = Stem;
}
);
layerId = m01;
shapes = (
{
closed = 1;
nodes = (
(425,727,cs),
(499,799,o),
(534,874,o),
(483,869,cs),
(481,869,o),
(479,868,o),
(477,868,cs),
(430,857,o),
(391,822,o),
(385,775,cs),
(384,771,o),
(384,768,o),
(384,765,cs),
(384,744,o),
(402,726,o),
(424,726,c),
(424,726,o),
(424,726,o)
);
},
{
closed = 1;
nodes = (
(192,704,o),
(54,567,o),
(54,345,cs),
(54,124,o),
(192,-14,o),
(407,-14,cs),
(622,-14,o),
(760,124,o),
(760,345,cs),
(760,567,o),
(622,704,o),
(407,704,cs)
);
},
{
closed = 1;
nodes = (
(303,118,o),
(238,199,o),
(238,345,cs),
(238,492,o),
(303,572,o),
(407,572,cs),
(511,572,o),
(576,492,o),
(576,345,cs),
(576,199,o),
(511,118,o),
(407,118,cs)
);
}
);
width = 788;
}
);
note = Oacute;
unicode = 211;
},
{
glyphname = Ocircumflex;
kernLeft = C;
kernRight = D;
lastChange = "2022-11-29 13:20:18 +0000";
layers = (
{
hints = (
{
horizontal = 1;
place = (-14, 132);
place = (-14, 132);
type = Stem;
},
{
horizontal = 1;
place = (572, 132);
place = (572, 132);
type = Stem;
},
{
horizontal = 1;
place = (735, 125);
place = (735, 125);
type = Stem;
},
{
place = (54, 184);
place = (54, 184);
type = Stem;
},
{
place = (576, 184);
place = (576, 184);
type = Stem;
}
);
layerId = m01;
shapes = (
{
closed = 1;
nodes = (
(382,754,cs),
(406,811,l),
(423,773,ls),
(435,747,o),
(444,735,o),
(453,735,cs),
(487,735,o),
(516,763,o),
(516,797,cs),
(516,832,o),
(487,860,o),
(453,860,cs),
(367,860,ls),
(323,860,o),
(291,822,o),
(294,784,c),
(295,780,o),
(294,776,o),
(294,772,cs),
(294,746,o),
(315,726,o),
(340,726,cs),
(359,726,o),
(375,737,o)
);
},
{
closed = 1;
nodes = (
(192,704,o),
(54,567,o),
(54,345,cs),
(54,124,o),
(192,-14,o),
(407,-14,cs),
(622,-14,o),
(760,124,o),
(760,345,cs),
(760,567,o),
(622,704,o),
(407,704,cs)
);
},
{
closed = 1;
nodes = (
(303,118,o),
(238,199,o),
(238,345,cs),
(238,492,o),
(303,572,o),
(407,572,cs),
(511,572,o),
(576,492,o),
(576,345,cs),
(576,199,o),
(511,118,o),
(407,118,cs)
);
}
);
width = 788;
}
);
note = Ocircumflex;
unicode = 212;
},
{
glyphname = Odieresis;
kernLeft = C;
kernRight = D;
lastChange = "2022-11-29 13:20:18 +0000";
layers = (
{
hints = (
{
horizontal = 1;
place = (-14, 132);
place = (-14, 132);
type = Stem;
},
{
horizontal = 1;
place = (572, 132);
place = (572, 132);
type = Stem;
},
{
horizontal = 1;
place = (722, 146);
place = (722, 146);
type = Stem;
},
{
place = (232, 150);
place = (232, 150);
type = Stem;
},
{
place = (432, 150);
place = (432, 150);
type = Stem;
},
{
place = (54, 184);
place = (54, 184);
type = Stem;
},
{
place = (576, 184);
place = (576, 184);
type = Stem;
}
);
layerId = m01;
shapes = (
{
closed = 1;
nodes = (
(192,704,o),
(54,567,o),
(54,345,cs),
(54,124,o),
(192,-14,o),
(407,-14,cs),
(622,-14,o),
(760,124,o),
(760,345,cs),
(760,567,o),
(622,704,o),
(407,704,cs)
);
},
{
closed = 1;
nodes = (
(303,118,o),
(238,199,o),
(238,345,cs),
(238,492,o),
(303,572,o),
(407,572,cs),
(511,572,o),
(576,492,o),
(576,345,cs),
(576,199,o),
(511,118,o),
(407,118,cs)
);
},
{
closed = 1;
nodes = (
(298,724,cs),
(320,724,ls),
(359,724,o),
(392,756,o),
(392,796,cs),
(392,806,o),
(390,816,o),
(386,824,cs),
(372,856,o),
(343,880,o),
(308,880,cs),
(296,880,o),
(285,877,o),
(275,872,cs),
(246,858,o),
(224,830,o),
(224,798,cs),
(224,757,o),
(258,724,o)
);
},
{
closed = 1;
nodes = (
(499,724,cs),
(521,724,ls),
(560,724,o),
(593,756,o),
(593,796,cs),
(593,806,o),
(591,816,o),
(587,824,cs),
(573,856,o),
(544,880,o),
(509,880,cs),
(497,880,o),
(486,877,o),
(476,872,cs),
(447,858,o),
(425,830,o),
(425,798,cs),
(425,757,o),
(459,724,o)
);
}
);
width = 788;
}
);
note = Odieresis;
unicode = 214;
},
{
glyphname = Ograve;
kernLeft = C;
kernRight = D;
lastChange = "2022-11-29 13:20:18 +0000";
layers = (
{
hints = (
{
horizontal = 1;
place = (-14, 132);
place = (-14, 132);
type = Stem;
},
{
horizontal = 1;
place = (572, 132);
place = (572, 132);
type = Stem;
},
{
horizontal = 1;
place = (735, 125);
place = (735, 125);
type = Stem;
},
{
place = (54, 184);
place = (54, 184);
type = Stem;
},
{
place = (576, 184);
place = (576, 184);
type = Stem;
}
);
layerId = m01;
shapes = (
{
closed = 1;
nodes = (
(371,729,cs),
(375,727,o),
(381,726,o),
(387,726,cs),
(411,726,o),
(432,746,o),
(432,771,cs),
(432,780,o),
(428,790,o),
(423,797,cs),
(392,839,o),
(326,863,o),
(318,807,cs),
(317,803,o),
(317,800,o),
(317,797,cs),
(317,766,o),
(341,740,o)
);
},
{
closed = 1;
nodes = (
(192,704,o),
(54,567,o),
(54,345,cs),
(54,124,o),
(192,-14,o),
(407,-14,cs),
(622,-14,o),
(760,124,o),
(760,345,cs),
(760,567,o),
(622,704,o),
(407,704,cs)
);
},
{
closed = 1;
nodes = (
(303,118,o),
(238,199,o),
(238,345,cs),
(238,492,o),
(303,572,o),
(407,572,cs),
(511,572,o),
(576,492,o),
(576,345,cs),
(576,199,o),
(511,118,o),
(407,118,cs)
);
}
);
width = 788;
}
);
note = Ograve;
unicode = 210;
},
{
glyphname = Ohungarumlaut;
kernLeft = C;
kernRight = D;
lastChange = "2022-11-29 13:20:18 +0000";
layers = (
{
hints = (
{
horizontal = 1;
place = (-14, 132);
place = (-14, 132);
type = Stem;
},
{
horizontal = 1;
place = (572, 132);
place = (572, 132);
type = Stem;
},
{
horizontal = 1;
place = (736, 125);
place = (736, 125);
type = Stem;
},
{
place = (54, 184);
place = (54, 184);
type = Stem;
},
{
place = (576, 184);
place = (576, 184);
type = Stem;
}
);
layerId = m01;
shapes = (
{
closed = 1;
nodes = (
(302,728,cs),
(376,800,o),
(411,875,o),
(360,870,cs),
(358,870,o),
(356,869,o),
(354,869,cs),
(307,858,o),
(268,823,o),
(262,776,cs),
(261,772,o),
(261,769,o),
(261,766,cs),
(261,745,o),
(279,727,o),
(301,727,c),
(301,727,o),
(301,727,o)
);
},
{
closed = 1;
nodes = (
(480,742,o),
(593,790,o),
(601,804,o),
(601,820,cs),
(601,848,o),
(579,870,o),
(551,870,cs),
(544,870,o),
(537,869,o),
(532,867,cs),
(503,855,o),
(480,829,o),
(480,799,cs),
(480,799,o),
(480,799,o)
);
},
{
closed = 1;
nodes = (
(192,704,o),
(54,567,o),
(54,345,cs),
(54,124,o),
(192,-14,o),
(407,-14,cs),
(622,-14,o),
(760,124,o),
(760,345,cs),
(760,567,o),
(622,704,o),
(407,704,cs)
);
},
{
closed = 1;
nodes = (
(303,118,o),
(238,199,o),
(238,345,cs),
(238,492,o),
(303,572,o),
(407,572,cs),
(511,572,o),
(576,492,o),
(576,345,cs),
(576,199,o),
(511,118,o),
(407,118,cs)
);
}
);
width = 788;
}
);
note = Ohungarumlaut;
unicode = 336;
},
{
glyphname = Omacron;
kernLeft = C;
kernRight = D;
lastChange = "2022-11-29 13:20:18 +0000";
layers = (
{
hints = (
{
horizontal = 1;
place = (-14, 132);
place = (-14, 132);
type = Stem;
},
{
horizontal = 1;
place = (572, 132);
place = (572, 132);
type = Stem;
},
{
horizontal = 1;
place = (760, 96);
place = (760, 96);
type = Stem;
},
{
place = (54, 184);
place = (54, 184);
type = Stem;
},
{
place = (257, 300);
place = (257, 300);
type = Stem;
},
{
place = (576, 184);
place = (576, 184);
type = Stem;
}
);
layerId = m01;
shapes = (
{
closed = 1;
nodes = (
(518,760,ls),
(544,760,o),
(566,781,o),
(566,808,cs),
(566,835,o),
(544,856,o),
(518,856,cs),
(296,856,ls),
(270,856,o),
(248,835,o),
(248,808,cs),
(248,781,o),
(270,760,o),
(296,760,cs)
);
},
{
closed = 1;
nodes = (
(192,704,o),
(54,567,o),
(54,345,cs),
(54,124,o),
(192,-14,o),
(407,-14,cs),
(622,-14,o),
(760,124,o),
(760,345,cs),
(760,567,o),
(622,704,o),
(407,704,cs)
);
},
{
closed = 1;
nodes = (
(303,118,o),
(238,199,o),
(238,345,cs),
(238,492,o),
(303,572,o),
(407,572,cs),
(511,572,o),
(576,492,o),
(576,345,cs),
(576,199,o),
(511,118,o),
(407,118,cs)
);
}
);
width = 788;
}
);
note = Omacron;
unicode = 332;
},
{
glyphname = Oslash;
kernLeft = C;
kernRight = D;
lastChange = "2022-11-29 13:20:18 +0000";
layers = (
{
hints = (
{
horizontal = 1;
place = (-14, 132);
place = (-14, 132);
type = Stem;
},
{
horizontal = 1;
place = (572, 132);
place = (572, 132);
type = Stem;
},
{
place = (55, 184);
place = (55, 184);
type = Stem;
},
{
place = (577, 184);
place = (577, 184);
type = Stem;
}
);
layerId = m01;
shapes = (
{
closed = 1;
nodes = (
(737,604,ls),
(746,613,o),
(752,626,o),
(752,639,cs),
(752,667,o),
(730,689,o),
(702,689,cs),
(689,689,o),
(676,683,o),
(667,674,cs),
(631,638,l),
(572,681,o),
(497,704,o),
(408,704,cs),
(193,704,o),
(55,567,o),
(55,345,cs),
(55,257,o),
(77,182,o),
(117,124,c),
(79,86,ls),
(70,77,o),
(64,64,o),
(64,51,cs),
(64,23,o),
(86,1,o),
(114,1,cs),
(127,1,o),
(140,7,o),
(149,16,cs),
(186,53,l),
(244,9,o),
(319,-14,o),
(408,-14,cs),
(623,-14,o),
(761,124,o),
(761,345,cs),
(761,433,o),
(739,508,o),
(699,566,c)
);
},
{
closed = 1;
nodes = (
(239,492,o),
(304,572,o),
(408,572,cs),
(454,572,o),
(492,557,o),
(520,527,c),
(249,256,l),
(242,282,o),
(239,312,o),
(239,345,cs)
);
},
{
closed = 1;
nodes = (
(577,199,o),
(512,118,o),
(408,118,cs),
(362,118,o),
(324,133,o),
(296,163,c),
(567,434,l),
(574,408,o),
(577,378,o),
(577,345,cs)
);
}
);
width = 790;
}
);
note = Oslash;
unicode = 216;
},
{
glyphname = Otilde;
kernLeft = C;
kernRight = D;
lastChange = "2022-11-29 13:20:18 +0000";
layers = (
{
hints = (
{
horizontal = 1;
place = (-14, 132);
place = (-14, 132);
type = Stem;
},
{
horizontal = 1;
place = (572, 132);
place = (572, 132);
type = Stem;
},
{
horizontal = 1;
place = (742, 134);
place = (742, 134);
type = Stem;
},
{
place = (243, 96);
place = (243, 96);
type = Stem;
},
{
place = (576, 184);
place = (576, 184);
type = Stem;
},
{
horizontal = 1;
place = (739, 134);
place = (739, 134);
type = Stem;
},
{
place = (54, 184);
place = (54, 184);
type = Stem;
},
{
place = (475, 96);
place = (475, 96);
type = Stem;
}
);
layerId = m01;
shapes = (
{
closed = 1;
nodes = (
(362,773,o),
(375,768,o),
(399,758,cs),
(436,742,o),
(452,739,o),
(481,739,cs),
(530,739,o),
(558,765,o),
(567,826,cs),
(571,855,o),
(549,882,o),
(519,882,cs),
(498,882,o),
(479,869,o),
(472,851,cs),
(469,844,o),
(466,842,o),
(460,842,cs),
(452,842,o),
(439,846,o),
(415,857,cs),
(379,873,o),
(362,876,o),
(333,876,cs),
(284,876,o),
(256,850,o),
(247,789,cs),
(243,760,o),
(265,733,o),
(295,733,cs),
(316,733,o),
(335,746,o),
(342,764,cs),
(345,771,o),
(348,773,o),
(354,773,cs)
);
},
{
closed = 1;
nodes = (
(192,704,o),
(54,567,o),
(54,345,cs),
(54,124,o),
(192,-14,o),
(407,-14,cs),
(622,-14,o),
(760,124,o),
(760,345,cs),
(760,567,o),
(622,704,o),
(407,704,cs)
);
},
{
closed = 1;
nodes = (
(303,118,o),
(238,199,o),
(238,345,cs),
(238,492,o),
(303,572,o),
(407,572,cs),
(511,572,o),
(576,492,o),
(576,345,cs),
(576,199,o),
(511,118,o),
(407,118,cs)
);
}
);
width = 788;
}
);
note = Otilde;
unicode = 213;
},
{
glyphname = OE;
kernLeft = C;
lastChange = "2022-11-29 13:20:18 +0000";
layers = (
{
hints = (
{
horizontal = 1;
place = (0, 140);
place = (0, 140);
type = Stem;
},
{
horizontal = 1;
place = (276, 140);
place = (276, 140);
type = Stem;
},
{
horizontal = 1;
place = (550, 140);
place = (550, 140);
type = Stem;
},
{
place = (54, 184);
place = (54, 184);
type = Stem;
},
{
place = (576, 180);
place = (576, 180);
type = Stem;
},
{
horizontal = 1;
place = (-14, 132);
place = (-14, 132);
type = Stem;
},
{
horizontal = 1;
place = (572, 132);
place = (572, 132);
type = Stem;
}
);
layerId = m01;
shapes = (
{
closed = 1;
nodes = (
(1044,140,cs),
(756,140,l),
(756,276,l),
(1014,276,ls),
(1052,276,o),
(1084,307,o),
(1084,346,cs),
(1084,385,o),
(1052,416,o),
(1014,416,cs),
(756,416,l),
(756,550,l),
(1034,550,ls),
(1072,550,o),
(1104,581,o),
(1104,620,cs),
(1104,659,o),
(1072,690,o),
(1034,690,cs),
(671,690,ls),
(610,690,o),
(576,656,o),
(576,595,cs),
(576,588,l),
(560,622,ls),
(549,646,o),
(532,670,o),
(490,687,cs),
(458,700,o),
(422,704,o),
(367,704,cs),
(192,704,o),
(54,567,o),
(54,345,cs),
(54,124,o),
(192,-14,o),
(367,-14,cs),
(424,-14,o),
(460,-10,o),
(491,4,cs),
(533,22,o),
(552,52,o),
(571,92,cs),
(576,103,l),
(576,52,ls),
(576,19,o),
(610,0,o),
(671,0,cs),
(1044,0,ls),
(1082,0,o),
(1114,31,o),
(1114,70,cs),
(1114,109,o),
(1082,140,o)
);
},
{
closed = 1;
nodes = (
(303,118,o),
(238,199,o),
(238,345,cs),
(238,492,o),
(303,572,o),
(407,572,cs),
(511,572,o),
(576,492,o),
(576,345,cs),
(576,199,o),
(511,118,o),
(407,118,cs)
);
}
);
width = 1135;
}
);
note = OE;
unicode = 338;
},
{
glyphname = P;
kernRight = P;
lastChange = "2022-11-29 13:20:18 +0000";
layers = (
{
hints = (
{
horizontal = 1;
place = (0, 21);
target = up;
type = BottomGhost;
},
{
horizontal = 1;
place = (242, 140);
place = (242, 140);
type = Stem;
},
{
horizontal = 1;
place = (550, 140);
place = (550, 140);
type = Stem;
},
{
place = (80, 180);
place = (80, 180);
type = Stem;
},
{
place = (451, 188);
place = (451, 188);
type = Stem;
}
);
layerId = m01;
shapes = (
{
closed = 1;
nodes = (
(411,689,o),
(383,690,o),
(340,690,cs),
(175,690,ls),
(114,690,o),
(80,656,o),
(80,595,cs),
(80,81,ls),
(80,32,o),
(120,-9,o),
(170,-9,cs),
(220,-9,o),
(260,32,o),
(260,81,cs),
(260,242,l),
(340,242,ls),
(383,242,o),
(411,243,o),
(448,247,cs),
(548,259,o),
(639,330,o),
(639,466,cs),
(639,602,o),
(548,673,o),
(448,685,cs)
);
},
{
closed = 1;
nodes = (
(365,382,o),
(349,382,o),
(330,382,cs),
(260,382,l),
(260,550,l),
(330,550,ls),
(349,550,o),
(365,550,o),
(378,549,cs),
(424,545,o),
(451,518,o),
(451,466,cs),
(451,414,o),
(424,387,o),
(378,383,cs)
);
}
);
width = 644;
}
);
note = P;
unicode = 80;
},
{
glyphname = Thorn;
lastChange = "2022-11-29 13:20:18 +0000";
layers = (
{
hints = (
{
horizontal = 1;
place = (0, 21);
target = up;
type = BottomGhost;
},
{
horizontal = 1;
place = (174, 140);
place = (174, 140);
type = Stem;
},
{
horizontal = 1;
place = (462, 140);
place = (462, 140);
type = Stem;
},
{
horizontal = 1;
place = (690, -20);
target = down;
type = TopGhost;
},
{
place = (80, 180);
place = (80, 180);
type = Stem;
},
{
place = (451, 188);
place = (451, 188);
type = Stem;
}
);
layerId = m01;
shapes = (
{
closed = 1;
nodes = (
(422,601,o),
(395,602,o),
(356,609,cs),
(332,614,o),
(280,629,o),
(260,609,c),
(260,658,o),
(220,699,o),
(170,699,cs),
(120,699,o),
(80,658,o),
(80,609,cs),
(80,81,ls),
(80,32,o),
(120,-9,o),
(170,-9,cs),
(220,-9,o),
(260,32,o),
(260,81,cs),
(260,174,l),
(349,174,ls),
(392,174,o),
(420,175,o),
(457,179,cs),
(557,191,o),
(639,255,o),
(639,388,cs),
(639,521,o),
(557,585,o),
(457,597,cs)
);
},
{
closed = 1;
nodes = (
(365,314,o),
(349,314,o),
(330,314,cs),
(260,314,l),
(260,462,l),
(330,462,ls),
(349,462,o),
(365,462,o),
(378,461,cs),
(424,457,o),
(451,435,o),
(451,388,cs),
(451,341,o),
(424,319,o),
(378,315,cs)
);
}
);
width = 653;
}
);
note = Thorn;
unicode = 222;
},
{
glyphname = Q;
kernLeft = C;
lastChange = "2022-11-29 13:20:18 +0000";
layers = (
{
hints = (
{
horizontal = 1;
place = (-14, 132);
place = (-14, 132);
type = Stem;
},
{
horizontal = 1;
place = (573, 132);
place = (573, 132);
type = Stem;
},
{
place = (54, 184);
place = (54, 184);
type = Stem;
},
{
place = (576, 184);
place = (576, 184);
type = Stem;
},
{
horizontal = 1;
place = (2, 116);
place = (2, 116);
type = Stem;
}
);
layerId = m01;
shapes = (
{
closed = 1;
nodes = (
(731,182,o),
(760,261,o),
(760,345,cs),
(760,567,o),
(622,705,o),
(407,705,cs),
(192,705,o),
(54,567,o),
(54,345,cs),
(54,124,o),
(192,-14,o),
(407,-14,cs),
(433,-14,o),
(456,-12,o),
(478,-7,cs),
(506,-1,o),
(523,2,o),
(551,2,cs),
(584,2,o),
(610,-4,o),
(647,-23,cs),
(657,-28,o),
(668,-31,o),
(681,-31,cs),
(721,-31,o),
(755,3,o),
(755,43,cs),
(755,72,o),
(739,97,o),
(715,110,cs),
(701,117,o),
(687,123,o),
(672,127,c)
);
},
{
closed = 1;
nodes = (
(238,492,o),
(303,573,o),
(407,573,cs),
(511,573,o),
(576,492,o),
(576,345,cs),
(576,199,o),
(511,118,o),
(407,118,cs),
(303,118,o),
(238,199,o),
(238,345,cs)
);
}
);
width = 791;
}
);
note = Q;
unicode = 81;
},
{
glyphname = R;
lastChange = "2022-11-29 13:20:18 +0000";
layers = (
{
hints = (
{
horizontal = 1;
place = (0, 21);
target = up;
type = BottomGhost;
},
{
horizontal = 1;
place = (262, 130);
place = (262, 130);
type = Stem;
},
{
horizontal = 1;
place = (550, 140);
place = (550, 140);
type = Stem;
},
{
place = (80, 180);
place = (80, 180);
type = Stem;
},
{
place = (461, 188);
place = (461, 188);
type = Stem;
}
);
layerId = m01;
shapes = (
{
closed = 1;
nodes = (
(608,251,o),
(582,304,o),
(510,330,c),
(602,357,o),
(649,415,o),
(649,502,cs),
(649,624,o),
(562,673,o),
(462,685,cs),
(425,689,o),
(397,690,o),
(354,690,cs),
(175,690,ls),
(114,690,o),
(80,656,o),
(80,595,cs),
(80,81,ls),
(80,32,o),
(120,-9,o),
(170,-9,cs),
(220,-9,o),
(260,32,o),
(260,81,cs),
(260,262,l),
(300,262,ls),
(320,262,o),
(337,262,o),
(357,261,cs),
(403,258,o),
(433,214,o),
(442,138,cs),
(445,110,o),
(450,86,o),
(456,59,cs),
(465,20,o),
(500,-9,o),
(542,-9,cs),
(591,-9,o),
(631,31,o),
(631,79,cs),
(631,86,o),
(630,93,o),
(629,99,cs),
(625,120,o),
(621,142,o),
(618,168,cs)
);
},
{
closed = 1;
nodes = (
(260,392,l),
(260,550,l),
(330,550,ls),
(349,550,o),
(365,550,o),
(378,549,cs),
(424,545,o),
(461,529,o),
(461,471,cs),
(461,413,o),
(419,397,o),
(373,393,cs),
(360,392,o),
(344,392,o),
(325,392,cs)
);
}
);
width = 682;
}
);
note = R;
unicode = 82;
},
{
glyphname = Racute;
lastChange = "2022-11-29 13:20:18 +0000";
layers = (
{
hints = (
{
horizontal = 1;
place = (0, 21);
target = up;
type = BottomGhost;
},
{
horizontal = 1;
place = (262, 130);
place = (262, 130);
type = Stem;
},
{
horizontal = 1;
place = (550, 140);
place = (550, 140);
type = Stem;
},
{
horizontal = 1;
place = (735, 125);
place = (735, 125);
type = Stem;
},
{
place = (80, 180);
place = (80, 180);
type = Stem;
},
{
place = (461, 188);
place = (461, 188);
type = Stem;
}
);
layerId = m01;
shapes = (
{
closed = 1;
nodes = (
(378,727,cs),
(452,799,o),
(487,874,o),
(436,869,cs),
(434,869,o),
(432,868,o),
(430,868,cs),
(383,857,o),
(344,822,o),
(338,775,cs),
(337,771,o),
(337,768,o),
(337,765,cs),
(337,744,o),
(355,726,o),
(377,726,c),
(377,726,o),
(377,726,o)
);
},
{
closed = 1;
nodes = (
(608,251,o),
(582,304,o),
(510,330,c),
(602,357,o),
(649,415,o),
(649,502,cs),
(649,624,o),
(562,673,o),
(462,685,cs),
(425,689,o),
(397,690,o),
(354,690,cs),
(175,690,ls),
(114,690,o),
(80,656,o),
(80,595,cs),
(80,81,ls),
(80,32,o),
(120,-9,o),
(170,-9,cs),
(220,-9,o),
(260,32,o),
(260,81,cs),
(260,262,l),
(300,262,ls),
(320,262,o),
(337,262,o),
(357,261,cs),
(403,258,o),
(433,214,o),
(442,138,cs),
(445,110,o),
(450,86,o),
(456,59,cs),
(465,20,o),
(500,-9,o),
(542,-9,cs),
(591,-9,o),
(631,31,o),
(631,79,cs),
(631,86,o),
(630,93,o),
(629,99,cs),
(625,120,o),
(621,142,o),
(618,168,cs)
);
},
{
closed = 1;
nodes = (
(260,392,l),
(260,550,l),
(330,550,ls),
(349,550,o),
(365,550,o),
(378,549,cs),
(424,545,o),
(461,529,o),
(461,471,cs),
(461,413,o),
(419,397,o),
(373,393,cs),
(360,392,o),
(344,392,o),
(325,392,cs)
);
}
);
width = 682;
}
);
note = Racute;
unicode = 340;
},
{
glyphname = Rcaron;
lastChange = "2022-11-29 13:20:18 +0000";
layers = (
{
hints = (
{
horizontal = 1;
place = (0, 21);
target = up;
type = BottomGhost;
},
{
horizontal = 1;
place = (262, 130);
place = (262, 130);
type = Stem;
},
{
horizontal = 1;
place = (550, 140);
place = (550, 140);
type = Stem;
},
{
horizontal = 1;
place = (735, 125);
place = (735, 125);
type = Stem;
},
{
place = (80, 180);
place = (80, 180);
type = Stem;
},
{
place = (461, 188);
place = (461, 188);
type = Stem;
}
);
layerId = m01;
shapes = (
{
closed = 1;
nodes = (
(315,735,cs),
(401,735,ls),
(445,735,o),
(477,773,o),
(474,811,c),
(473,815,o),
(474,819,o),
(474,823,cs),
(474,849,o),
(453,869,o),
(428,869,cs),
(409,869,o),
(393,858,o),
(386,841,cs),
(362,784,l),
(345,822,ls),
(333,848,o),
(324,860,o),
(315,860,cs),
(281,860,o),
(252,832,o),
(252,798,cs),
(252,763,o),
(281,735,o)
);
},
{
closed = 1;
nodes = (
(608,251,o),
(582,304,o),
(510,330,c),
(602,357,o),
(649,415,o),
(649,502,cs),
(649,624,o),
(562,673,o),
(462,685,cs),
(425,689,o),
(397,690,o),
(354,690,cs),
(175,690,ls),
(114,690,o),
(80,656,o),
(80,595,cs),
(80,81,ls),
(80,32,o),
(120,-9,o),
(170,-9,cs),
(220,-9,o),
(260,32,o),
(260,81,cs),
(260,262,l),
(300,262,ls),
(320,262,o),
(337,262,o),
(357,261,cs),
(403,258,o),
(433,214,o),
(442,138,cs),
(445,110,o),
(450,86,o),
(456,59,cs),
(465,20,o),
(500,-9,o),
(542,-9,cs),
(591,-9,o),
(631,31,o),
(631,79,cs),
(631,86,o),
(630,93,o),
(629,99,cs),
(625,120,o),
(621,142,o),
(618,168,cs)
);
},
{
closed = 1;
nodes = (
(260,392,l),
(260,550,l),
(330,550,ls),
(349,550,o),
(365,550,o),
(378,549,cs),
(424,545,o),
(461,529,o),
(461,471,cs),
(461,413,o),
(419,397,o),
(373,393,cs),
(360,392,o),
(344,392,o),
(325,392,cs)
);
}
);
width = 682;
}
);
note = Rcaron;
unicode = 344;
},
{
glyphname = Rcommaaccent;
lastChange = "2022-11-29 13:20:18 +0000";
layers = (
{
hints = (
{
horizontal = 1;
place = (-216, 179);
place = (-216, 179);
type = Stem;
},
{
horizontal = 1;
place = (0, 21);
target = up;
type = BottomGhost;
},
{
horizontal = 1;
place = (262, 130);
place = (262, 130);
type = Stem;
},
{
horizontal = 1;
place = (550, 140);
place = (550, 140);
type = Stem;
},
{
place = (80, 180);
place = (80, 180);
type = Stem;
},
{
place = (461, 188);
place = (461, 188);
type = Stem;
}
);
layerId = m01;
shapes = (
{
closed = 1;
nodes = (
(608,251,o),
(582,304,o),
(510,330,c),
(602,357,o),
(649,415,o),
(649,502,cs),
(649,624,o),
(562,673,o),
(462,685,cs),
(425,689,o),
(397,690,o),
(354,690,cs),
(175,690,ls),
(114,690,o),
(80,656,o),
(80,595,cs),
(80,81,ls),
(80,32,o),
(120,-9,o),
(170,-9,cs),
(220,-9,o),
(260,32,o),
(260,81,cs),
(260,262,l),
(300,262,ls),
(320,262,o),
(337,262,o),
(357,261,cs),
(403,258,o),
(433,214,o),
(442,138,cs),
(445,110,o),
(450,86,o),
(456,59,cs),
(465,20,o),
(500,-9,o),
(542,-9,cs),
(591,-9,o),
(631,31,o),
(631,79,cs),
(631,86,o),
(630,93,o),
(629,99,cs),
(625,120,o),
(621,142,o),
(618,168,cs)
);
},
{
closed = 1;
nodes = (
(260,392,l),
(260,550,l),
(330,550,ls),
(349,550,o),
(365,550,o),
(378,549,cs),
(424,545,o),
(461,529,o),
(461,471,cs),
(461,413,o),
(419,397,o),
(373,393,cs),
(360,392,o),
(344,392,o),
(325,392,cs)
);
},
{
closed = 1;
nodes = (
(299,-67,cs),
(255,-161,ls),
(252,-166,o),
(250,-173,o),
(250,-180,cs),
(250,-205,o),
(271,-225,o),
(295,-225,cs),
(312,-225,o),
(326,-216,o),
(334,-203,cs),
(379,-127,ls),
(410,-74,o),
(360,-13,o),
(360,-13,cs),
(327,-13,o),
(312,-39,o)
);
}
);
width = 682;
}
);
note = Rcommaaccent;
unicode = 342;
},
{
glyphname = S;
kernLeft = S;
kernRight = S;
lastChange = "2022-11-29 13:20:18 +0000";
layers = (
{
hints = (
{
horizontal = 1;
place = (-14, 132);
place = (-14, 132);
type = Stem;
},
{
horizontal = 1;
place = (572, 132);
place = (572, 132);
type = Stem;
},
{
place = (61, 188);
place = (61, 188);
type = Stem;
},
{
place = (421, 188);
place = (421, 188);
type = Stem;
}
);
layerId = m01;
shapes = (
{
closed = 1;
nodes = (
(185,704,o),
(61,629,o),
(61,496,cs),
(61,358,o),
(153,309,o),
(310,270,cs),
(395,249,o),
(421,218,o),
(421,182,cs),
(421,144,o),
(383,118,o),
(333,118,cs),
(291,118,o),
(250,135,o),
(228,176,cs),
(214,203,o),
(186,221,o),
(153,221,cs),
(106,221,o),
(68,183,o),
(68,136,cs),
(68,116,o),
(72,94,o),
(83,80,cs),
(135,15,o),
(225,-14,o),
(338,-14,cs),
(477,-14,o),
(609,56,o),
(609,194,cs),
(609,300,o),
(547,376,o),
(395,412,cs),
(281,439,o),
(249,466,o),
(249,510,cs),
(249,552,o),
(277,572,o),
(318,572,cs),
(360,572,o),
(387,553,o),
(402,518,cs),
(415,488,o),
(445,467,o),
(480,467,cs),
(527,467,o),
(565,505,o),
(565,552,cs),
(565,568,o),
(561,585,o),
(553,598,cs),
(512,663,o),
(439,704,o),
(322,704,cs)
);
}
);
width = 626;
}
);
note = S;
unicode = 83;
},
{
glyphname = Sacute;
kernLeft = S;
kernRight = S;
lastChange = "2022-11-29 13:20:18 +0000";
layers = (
{
hints = (
{
horizontal = 1;
place = (-14, 132);
place = (-14, 132);
type = Stem;
},
{
horizontal = 1;
place = (572, 132);
place = (572, 132);
type = Stem;
},
{
horizontal = 1;
place = (735, 125);
place = (735, 125);
type = Stem;
},
{
place = (61, 188);
place = (61, 188);
type = Stem;
},
{
place = (421, 188);
place = (421, 188);
type = Stem;
}
);
layerId = m01;
shapes = (
{
closed = 1;
nodes = (
(344,727,cs),
(418,799,o),
(453,874,o),
(402,869,cs),
(400,869,o),
(398,868,o),
(396,868,cs),
(349,857,o),
(310,822,o),
(304,775,cs),
(303,771,o),
(303,768,o),
(303,765,cs),
(303,744,o),
(321,726,o),
(343,726,c),
(343,726,o),
(343,726,o)
);
},
{
closed = 1;
nodes = (
(185,704,o),
(61,629,o),
(61,496,cs),
(61,358,o),
(153,309,o),
(310,270,cs),
(395,249,o),
(421,218,o),
(421,182,cs),
(421,144,o),
(383,118,o),
(333,118,cs),
(291,118,o),
(250,135,o),
(228,176,cs),
(214,203,o),
(186,221,o),
(153,221,cs),
(106,221,o),
(68,183,o),
(68,136,cs),
(68,116,o),
(72,94,o),
(83,80,cs),
(135,15,o),
(225,-14,o),
(338,-14,cs),
(477,-14,o),
(609,56,o),
(609,194,cs),
(609,300,o),
(547,376,o),
(395,412,cs),
(281,439,o),
(249,466,o),
(249,510,cs),
(249,552,o),
(277,572,o),
(318,572,cs),
(360,572,o),
(387,553,o),
(402,518,cs),
(415,488,o),
(445,467,o),
(480,467,cs),
(527,467,o),
(565,505,o),
(565,552,cs),
(565,568,o),
(561,585,o),
(553,598,cs),
(512,663,o),
(439,704,o),
(322,704,cs)
);
}
);
width = 626;
}
);
note = Sacute;
unicode = 346;
},
{
glyphname = Scaron;
kernLeft = S;
kernRight = S;
lastChange = "2022-11-29 13:20:18 +0000";
layers = (
{
hints = (
{
horizontal = 1;
place = (-14, 132);
place = (-14, 132);
type = Stem;
},
{
horizontal = 1;
place = (572, 132);
place = (572, 132);
type = Stem;
},
{
horizontal = 1;
place = (735, 125);
place = (735, 125);
type = Stem;
},
{
place = (61, 188);
place = (61, 188);
type = Stem;
},
{
place = (421, 188);
place = (421, 188);
type = Stem;
}
);
layerId = m01;
shapes = (
{
closed = 1;
nodes = (
(281,735,cs),
(367,735,ls),
(411,735,o),
(443,773,o),
(440,811,c),
(439,815,o),
(440,819,o),
(440,823,cs),
(440,849,o),
(419,869,o),
(394,869,cs),
(375,869,o),
(359,858,o),
(352,841,cs),
(328,784,l),
(311,822,ls),
(299,848,o),
(290,860,o),
(281,860,cs),
(247,860,o),
(218,832,o),
(218,798,cs),
(218,763,o),
(247,735,o)
);
},
{
closed = 1;
nodes = (
(281,439,o),
(249,466,o),
(249,510,cs),
(249,552,o),
(277,572,o),
(318,572,cs),
(360,572,o),
(387,553,o),
(402,518,cs),
(415,488,o),
(445,467,o),
(480,467,cs),
(527,467,o),
(565,505,o),
(565,552,cs),
(565,568,o),
(561,585,o),
(553,598,cs),
(512,663,o),
(439,704,o),
(322,704,cs),
(185,704,o),
(61,629,o),
(61,496,cs),
(61,358,o),
(153,309,o),
(310,270,cs),
(395,249,o),
(421,218,o),
(421,182,cs),
(421,144,o),
(383,118,o),
(333,118,cs),
(291,118,o),
(250,135,o),
(228,176,cs),
(214,203,o),
(186,221,o),
(153,221,cs),
(106,221,o),
(68,183,o),
(68,136,cs),
(68,116,o),
(72,94,o),
(83,80,cs),
(135,15,o),
(225,-14,o),
(338,-14,cs),
(477,-14,o),
(609,56,o),
(609,194,cs),
(609,300,o),
(547,376,o),
(395,412,cs)
);
}
);
width = 626;
}
);
note = Scaron;
unicode = 352;
},
{
glyphname = Scedilla;
kernLeft = S;
kernRight = S;
lastChange = "2022-11-29 13:20:18 +0000";
layers = (
{
hints = (
{
horizontal = 1;
place = (-210, 69);
place = (-210, 69);
type = Stem;
},
{
horizontal = 1;
place = (-9, 21);
target = up;
type = BottomGhost;
},
{
horizontal = 1;
place = (572, 132);
place = (572, 132);
type = Stem;
},
{
place = (61, 188);
place = (61, 188);
type = Stem;
},
{
place = (421, 188);
place = (421, 188);
type = Stem;
},
{
place = (318, 108);
place = (318, 108);
type = Stem;
}
);
layerId = m01;
shapes = (
{
closed = 1;
nodes = (
(609,300,o),
(547,376,o),
(395,412,cs),
(281,439,o),
(249,466,o),
(249,510,cs),
(249,552,o),
(277,572,o),
(318,572,cs),
(360,572,o),
(387,553,o),
(402,518,cs),
(415,488,o),
(445,467,o),
(480,467,cs),
(527,467,o),
(565,505,o),
(565,552,cs),
(565,568,o),
(561,585,o),
(553,598,cs),
(512,663,o),
(439,704,o),
(322,704,cs),
(185,704,o),
(61,629,o),
(61,496,cs),
(61,358,o),
(153,309,o),
(310,270,cs),
(395,249,o),
(421,218,o),
(421,182,cs),
(421,144,o),
(383,118,o),
(333,118,cs),
(291,118,o),
(250,135,o),
(228,176,cs),
(214,203,o),
(186,221,o),
(153,221,cs),
(106,221,o),
(67,183,o),
(67,136,cs),
(67,116,o),
(72,94,o),
(83,80,cs),
(122,31,o),
(183,2,o),
(259,-9,c),
(240,-49,ls),
(228,-73,o),
(306,-46,o),
(318,-110,cs),
(318,-111,o),
(318,-113,o),
(318,-114,cs),
(318,-132,o),
(301,-141,o),
(258,-141,cs),
(251,-141,o),
(241,-141,o),
(229,-139,cs),
(210,-137,o),
(200,-147,o),
(200,-169,cs),
(200,-192,o),
(257,-210,o),
(257,-210,cs),
(349,-210,o),
(426,-188,o),
(426,-119,cs),
(426,-74,o),
(394,-49,o),
(331,-42,c),
(345,-14,l),
(481,-12,o),
(609,58,o),
(609,194,cs)
);
}
);
width = 626;
}
);
note = Scedilla;
unicode = 350;
},
{
glyphname = Scommaaccent;
kernLeft = S;
kernRight = S;
lastChange = "2022-11-29 13:20:18 +0000";
layers = (
{
hints = (
{
horizontal = 1;
place = (-14, 132);
place = (-14, 132);
type = Stem;
},
{
horizontal = 1;
place = (572, 132);
place = (572, 132);
type = Stem;
},
{
place = (61, 188);
place = (61, 188);
type = Stem;
},
{
place = (421, 188);
place = (421, 188);
type = Stem;
},
{
horizontal = 1;
place = (-216, 179);
place = (-216, 179);
type = Stem;
}
);
layerId = m01;
shapes = (
{
closed = 1;
nodes = (
(185,704,o),
(61,629,o),
(61,496,cs),
(61,358,o),
(153,309,o),
(310,270,cs),
(395,249,o),
(421,218,o),
(421,182,cs),
(421,144,o),
(383,118,o),
(333,118,cs),
(291,118,o),
(250,135,o),
(228,176,cs),
(214,203,o),
(186,221,o),
(153,221,cs),
(106,221,o),
(68,183,o),
(68,136,cs),
(68,116,o),
(72,94,o),
(83,80,cs),
(135,15,o),
(225,-14,o),
(338,-14,cs),
(477,-14,o),
(609,56,o),
(609,194,cs),
(609,300,o),
(547,376,o),
(395,412,cs),
(281,439,o),
(249,466,o),
(249,510,cs),
(249,552,o),
(277,572,o),
(318,572,cs),
(360,572,o),
(387,553,o),
(402,518,cs),
(415,488,o),
(445,467,o),
(480,467,cs),
(527,467,o),
(565,505,o),
(565,552,cs),
(565,568,o),
(561,585,o),
(553,598,cs),
(512,663,o),
(439,704,o),
(322,704,cs)
);
},
{
closed = 1;
nodes = (
(386,-47,l),
(386,-41,o),
(372,-37,o),
(346,-37,cs),
(270,-37,o),
(208,-100,o),
(209,-170,cs),
(209,-180,ls),
(209,-205,o),
(230,-225,o),
(254,-225,cs),
(271,-225,o),
(285,-216,o),
(293,-203,cs)
);
}
);
width = 626;
}
);
note = Scommaaccent;
unicode = 536;
},
{
glyphname = T;
kernLeft = T;
kernRight = T;
lastChange = "2022-11-29 13:20:18 +0000";
layers = (
{
hints = (
{
horizontal = 1;
place = (0, 21);
target = up;
type = BottomGhost;
},
{
horizontal = 1;
place = (550, 140);
place = (550, 140);
type = Stem;
},
{
place = (238, 180);
place = (238, 180);
type = Stem;
}
);
layerId = m01;
shapes = (
{
closed = 1;
nodes = (
(581,550,ls),
(619,550,o),
(651,581,o),
(651,620,cs),
(651,659,o),
(619,690,o),
(581,690,cs),
(75,690,ls),
(37,690,o),
(5,659,o),
(5,620,cs),
(5,581,o),
(37,550,o),
(75,550,cs),
(238,550,l),
(238,81,ls),
(238,32,o),
(278,-9,o),
(328,-9,cs),
(378,-9,o),
(418,32,o),
(418,81,cs),
(418,550,l)
);
}
);
width = 632;
}
);
note = T;
unicode = 84;
},
{
glyphname = Tbar;
kernLeft = T;
kernRight = T;
lastChange = "2022-11-29 13:20:18 +0000";
layers = (
{
hints = (
{
horizontal = 1;
place = (0, 21);
target = up;
type = BottomGhost;
},
{
horizontal = 1;
place = (293, 96);
place = (293, 96);
type = Stem;
},
{
horizontal = 1;
place = (550, 140);
place = (550, 140);
type = Stem;
},
{
place = (238, 180);
place = (238, 180);
type = Stem;
}
);
layerId = m01;
shapes = (
{
closed = 1;
nodes = (
(418,550,l),
(581,550,ls),
(619,550,o),
(651,581,o),
(651,620,cs),
(651,659,o),
(619,690,o),
(581,690,cs),
(75,690,ls),
(37,690,o),
(5,659,o),
(5,620,cs),
(5,581,o),
(37,550,o),
(75,550,cs),
(238,550,l),
(238,389,l),
(187,389,ls),
(161,389,o),
(139,368,o),
(139,341,cs),
(139,314,o),
(161,293,o),
(187,293,cs),
(238,293,l),
(238,81,ls),
(238,32,o),
(278,-9,o),
(328,-9,cs),
(378,-9,o),
(418,32,o),
(418,81,cs),
(418,293,l),
(469,293,ls),
(495,293,o),
(517,314,o),
(517,341,cs),
(517,368,o),
(495,389,o),
(469,389,cs),
(418,389,l)
);
}
);
width = 632;
}
);
note = Tbar;
unicode = 358;
},
{
glyphname = Tcaron;
kernLeft = T;
kernRight = T;
lastChange = "2022-11-29 13:20:18 +0000";
layers = (
{
hints = (
{
horizontal = 1;
place = (0, 21);
target = up;
type = BottomGhost;
},
{
horizontal = 1;
place = (550, 140);
place = (550, 140);
type = Stem;
},
{
horizontal = 1;
place = (735, 125);
place = (735, 125);
type = Stem;
},
{
place = (238, 180);
place = (238, 180);
type = Stem;
}
);
layerId = m01;
shapes = (
{
closed = 1;
nodes = (
(283,735,cs),
(369,735,ls),
(413,735,o),
(445,773,o),
(442,811,c),
(441,815,o),
(442,819,o),
(442,823,cs),
(442,849,o),
(421,869,o),
(396,869,cs),
(377,869,o),
(361,858,o),
(354,841,cs),
(330,784,l),
(313,822,ls),
(301,848,o),
(292,860,o),
(283,860,cs),
(249,860,o),
(220,832,o),
(220,798,cs),
(220,763,o),
(249,735,o)
);
},
{
closed = 1;
nodes = (
(581,550,ls),
(619,550,o),
(651,581,o),
(651,620,cs),
(651,659,o),
(619,690,o),
(581,690,cs),
(75,690,ls),
(37,690,o),
(5,659,o),
(5,620,cs),
(5,581,o),
(37,550,o),
(75,550,cs),
(238,550,l),
(238,81,ls),
(238,32,o),
(278,-9,o),
(328,-9,cs),
(378,-9,o),
(418,32,o),
(418,81,cs),
(418,550,l)
);
}
);
width = 632;
}
);
note = Tcaron;
unicode = 356;
},
{
glyphname = Tcedilla;
kernLeft = T;
kernRight = T;
lastChange = "2022-11-29 13:20:18 +0000";
layers = (
{
hints = (
{
horizontal = 1;
place = (-210, 69);
place = (-210, 69);
type = Stem;
},
{
horizontal = 1;
place = (0, 21);
target = up;
type = BottomGhost;
},
{
horizontal = 1;
place = (550, 140);
place = (550, 140);
type = Stem;
},
{
place = (238, 180);
place = (238, 180);
type = Stem;
},
{
place = (334, 108);
place = (334, 108);
type = Stem;
}
);
layerId = m01;
shapes = (
{
closed = 1;
nodes = (
(367,0,l),
(393,0,ls),
(409,0,o),
(418,34,o),
(418,95,cs),
(418,550,l),
(581,550,ls),
(619,550,o),
(651,581,o),
(651,620,cs),
(651,659,o),
(619,690,o),
(581,690,cs),
(75,690,ls),
(37,690,o),
(5,659,o),
(5,620,cs),
(5,581,o),
(37,550,o),
(75,550,cs),
(238,550,l),
(238,95,ls),
(238,34,o),
(253,0,o),
(280,0,c),
(259,-44,ls),
(246,-72,o),
(323,-45,o),
(334,-110,cs),
(334,-111,o),
(334,-113,o),
(334,-114,cs),
(334,-132,o),
(317,-141,o),
(274,-141,cs),
(267,-141,o),
(257,-141,o),
(245,-139,cs),
(226,-137,o),
(216,-147,o),
(216,-169,cs),
(216,-192,o),
(273,-210,o),
(273,-210,cs),
(365,-210,o),
(442,-188,o),
(442,-119,cs),
(442,-74,o),
(410,-49,o),
(347,-42,c)
);
}
);
width = 632;
}
);
note = Tcedilla;
unicode = 354;
},
{
glyphname = uni021A;
kernLeft = T;
kernRight = T;
lastChange = "2022-11-29 13:20:18 +0000";
layers = (
{
hints = (
{
horizontal = 1;
place = (-216, 179);
place = (-216, 179);
type = Stem;
},
{
horizontal = 1;
place = (0, 21);
target = up;
type = BottomGhost;
},
{
horizontal = 1;
place = (550, 140);
place = (550, 140);
type = Stem;
},
{
place = (238, 180);
place = (238, 180);
type = Stem;
}
);
layerId = m01;
shapes = (
{
closed = 1;
nodes = (
(581,550,ls),
(619,550,o),
(651,581,o),
(651,620,cs),
(651,659,o),
(619,690,o),
(581,690,cs),
(75,690,ls),
(37,690,o),
(5,659,o),
(5,620,cs),
(5,581,o),
(37,550,o),
(75,550,cs),
(238,550,l),
(238,81,ls),
(238,32,o),
(278,-9,o),
(328,-9,cs),
(378,-9,o),
(418,32,o),
(418,81,cs),
(418,550,l)
);
},
{
closed = 1;
nodes = (
(274,-67,cs),
(230,-161,ls),
(227,-166,o),
(225,-173,o),
(225,-180,cs),
(225,-205,o),
(246,-225,o),
(270,-225,cs),
(287,-225,o),
(301,-216,o),
(309,-203,cs),
(354,-127,ls),
(385,-74,o),
(335,-13,o),
(335,-13,cs),
(302,-13,o),
(287,-39,o)
);
}
);
width = 632;
}
);
note = uni021A;
unicode = 538;
},
{
glyphname = U;
kernLeft = U;
kernRight = U;
lastChange = "2022-11-29 13:20:18 +0000";
layers = (
{
hints = (
{
horizontal = 1;
place = (-14, 132);
place = (-14, 132);
type = Stem;
},
{
horizontal = 1;
place = (690, -20);
target = down;
type = TopGhost;
},
{
place = (68, 180);
place = (68, 180);
type = Stem;
},
{
place = (500, 180);
place = (500, 180);
type = Stem;
}
);
layerId = m01;
shapes = (
{
closed = 1;
nodes = (
(680,609,ls),
(680,658,o),
(640,699,o),
(590,699,cs),
(540,699,o),
(500,658,o),
(500,609,cs),
(500,270,ls),
(500,251,o),
(500,241,o),
(499,229,cs),
(494,157,o),
(453,118,o),
(374,118,cs),
(295,118,o),
(254,157,o),
(249,229,cs),
(248,241,o),
(248,251,o),
(248,270,cs),
(248,609,ls),
(248,658,o),
(208,699,o),
(158,699,cs),
(108,699,o),
(68,658,o),
(68,609,cs),
(68,303,ls),
(68,268,o),
(68,247,o),
(71,206,cs),
(79,90,o),
(161,-14,o),
(374,-14,cs),
(587,-14,o),
(669,90,o),
(677,206,cs),
(680,247,o),
(680,268,o),
(680,303,cs)
);
}
);
width = 718;
}
);
note = U;
unicode = 85;
},
{
glyphname = Uacute;
kernLeft = U;
kernRight = U;
lastChange = "2022-11-29 13:20:18 +0000";
layers = (
{
hints = (
{
horizontal = 1;
place = (-14, 132);
place = (-14, 132);
type = Stem;
},
{
horizontal = 1;
place = (690, -20);
target = down;
type = TopGhost;
},
{
horizontal = 1;
place = (735, 125);
place = (735, 125);
type = Stem;
},
{
place = (68, 180);
place = (68, 180);
type = Stem;
},
{
place = (500, 180);
place = (500, 180);
type = Stem;
}
);
layerId = m01;
shapes = (
{
closed = 1;
nodes = (
(392,727,cs),
(466,799,o),
(501,874,o),
(450,869,cs),
(448,869,o),
(446,868,o),
(444,868,cs),
(397,857,o),
(358,822,o),
(352,775,cs),
(351,771,o),
(351,768,o),
(351,765,cs),
(351,744,o),
(369,726,o),
(391,726,c),
(391,726,o),
(391,726,o)
);
},
{
closed = 1;
nodes = (
(680,609,ls),
(680,658,o),
(640,699,o),
(590,699,cs),
(540,699,o),
(500,658,o),
(500,609,cs),
(500,270,ls),
(500,251,o),
(500,241,o),
(499,229,cs),
(494,157,o),
(453,118,o),
(374,118,cs),
(295,118,o),
(254,157,o),
(249,229,cs),
(248,241,o),
(248,251,o),
(248,270,cs),
(248,609,ls),
(248,658,o),
(208,699,o),
(158,699,cs),
(108,699,o),
(68,658,o),
(68,609,cs),
(68,303,ls),
(68,268,o),
(68,247,o),
(71,206,cs),
(79,90,o),
(161,-14,o),
(374,-14,cs),
(587,-14,o),
(669,90,o),
(677,206,cs),
(680,247,o),
(680,268,o),
(680,303,cs)
);
}
);
width = 718;
}
);
note = Uacute;
unicode = 218;
},
{
glyphname = Ucircumflex;
kernLeft = U;
kernRight = U;
lastChange = "2022-11-29 13:20:18 +0000";
layers = (
{
hints = (
{
horizontal = 1;
place = (-14, 132);
place = (-14, 132);
type = Stem;
},
{
horizontal = 1;
place = (690, -20);
target = down;
type = TopGhost;
},
{
horizontal = 1;
place = (735, 125);
place = (735, 125);
type = Stem;
},
{
place = (68, 180);
place = (68, 180);
type = Stem;
},
{
place = (500, 180);
place = (500, 180);
type = Stem;
}
);
layerId = m01;
shapes = (
{
closed = 1;
nodes = (
(349,754,cs),
(373,811,l),
(390,773,ls),
(402,747,o),
(411,735,o),
(420,735,cs),
(454,735,o),
(483,763,o),
(483,797,cs),
(483,832,o),
(454,860,o),
(420,860,cs),
(334,860,ls),
(290,860,o),
(258,822,o),
(261,784,c),
(262,780,o),
(261,776,o),
(261,772,cs),
(261,746,o),
(282,726,o),
(307,726,cs),
(326,726,o),
(342,737,o)
);
},
{
closed = 1;
nodes = (
(680,609,ls),
(680,658,o),
(640,699,o),
(590,699,cs),
(540,699,o),
(500,658,o),
(500,609,cs),
(500,270,ls),
(500,251,o),
(500,241,o),
(499,229,cs),
(494,157,o),
(453,118,o),
(374,118,cs),
(295,118,o),
(254,157,o),
(249,229,cs),
(248,241,o),
(248,251,o),
(248,270,cs),
(248,609,ls),
(248,658,o),
(208,699,o),
(158,699,cs),
(108,699,o),
(68,658,o),
(68,609,cs),
(68,303,ls),
(68,268,o),
(68,247,o),
(71,206,cs),
(79,90,o),
(161,-14,o),
(374,-14,cs),
(587,-14,o),
(669,90,o),
(677,206,cs),
(680,247,o),
(680,268,o),
(680,303,cs)
);
}
);
width = 718;
}
);
note = Ucircumflex;
unicode = 219;
},
{
glyphname = Udieresis;
kernLeft = U;
kernRight = U;
lastChange = "2022-11-29 13:20:18 +0000";
layers = (
{
hints = (
{
horizontal = 1;
place = (-14, 132);
place = (-14, 132);
type = Stem;
},
{
horizontal = 1;
place = (690, -20);
target = down;
type = TopGhost;
},
{
horizontal = 1;
place = (722, 146);
place = (722, 146);
type = Stem;
},
{
place = (68, 180);
place = (68, 180);
type = Stem;
},
{
place = (500, 180);
place = (500, 180);
type = Stem;
},
{
place = (199, 150);
place = (199, 150);
type = Stem;
},
{
place = (399, 150);
place = (399, 150);
type = Stem;
}
);
layerId = m01;
shapes = (
{
closed = 1;
nodes = (
(680,609,ls),
(680,658,o),
(640,699,o),
(590,699,cs),
(540,699,o),
(500,658,o),
(500,609,cs),
(500,270,ls),
(500,251,o),
(500,241,o),
(499,229,cs),
(494,157,o),
(453,118,o),
(374,118,cs),
(295,118,o),
(254,157,o),
(249,229,cs),
(248,241,o),
(248,251,o),
(248,270,cs),
(248,609,ls),
(248,658,o),
(208,699,o),
(158,699,cs),
(108,699,o),
(68,658,o),
(68,609,cs),
(68,303,ls),
(68,268,o),
(68,247,o),
(71,206,cs),
(79,90,o),
(161,-14,o),
(374,-14,cs),
(587,-14,o),
(669,90,o),
(677,206,cs),
(680,247,o),
(680,268,o),
(680,303,cs)
);
},
{
closed = 1;
nodes = (
(262,723,cs),
(284,723,ls),
(323,723,o),
(356,755,o),
(356,795,cs),
(356,805,o),
(354,815,o),
(350,823,cs),
(336,855,o),
(307,879,o),
(272,879,cs),
(260,879,o),
(249,876,o),
(239,871,cs),
(210,857,o),
(188,829,o),
(188,797,cs),
(188,756,o),
(222,723,o)
);
},
{
closed = 1;
nodes = (
(463,723,cs),
(485,723,ls),
(524,723,o),
(557,755,o),
(557,795,cs),
(557,805,o),
(555,815,o),
(551,823,cs),
(537,855,o),
(508,879,o),
(473,879,cs),
(461,879,o),
(450,876,o),
(440,871,cs),
(411,857,o),
(389,829,o),
(389,797,cs),
(389,756,o),
(423,723,o)
);
}
);
width = 718;
}
);
note = Udieresis;
unicode = 220;
},
{
glyphname = Ugrave;
kernLeft = U;
kernRight = U;
lastChange = "2022-11-29 13:20:18 +0000";
layers = (
{
hints = (
{
horizontal = 1;
place = (-14, 132);
place = (-14, 132);
type = Stem;
},
{
horizontal = 1;
place = (690, -20);
target = down;
type = TopGhost;
},
{
horizontal = 1;
place = (735, 125);
place = (735, 125);
type = Stem;
},
{
place = (68, 180);
place = (68, 180);
type = Stem;
},
{
place = (500, 180);
place = (500, 180);
type = Stem;
}
);
layerId = m01;
shapes = (
{
closed = 1;
nodes = (
(403,766,cs),
(340,842,o),
(264,852,o),
(263,822,cs),
(263,821,o),
(263,821,o),
(263,820,cs),
(263,804,o),
(270,790,o),
(281,781,cs),
(339,735,ls),
(346,729,o),
(355,726,o),
(364,726,cs),
(386,726,o),
(404,744,o),
(404,765,c),
(404,765,o),
(404,765,o)
);
},
{
closed = 1;
nodes = (
(680,609,ls),
(680,658,o),
(640,699,o),
(590,699,cs),
(540,699,o),
(500,658,o),
(500,609,cs),
(500,270,ls),
(500,251,o),
(500,241,o),
(499,229,cs),
(494,157,o),
(453,118,o),
(374,118,cs),
(295,118,o),
(254,157,o),
(249,229,cs),
(248,241,o),
(248,251,o),
(248,270,cs),
(248,609,ls),
(248,658,o),
(208,699,o),
(158,699,cs),
(108,699,o),
(68,658,o),
(68,609,cs),
(68,303,ls),
(68,268,o),
(68,247,o),
(71,206,cs),
(79,90,o),
(161,-14,o),
(374,-14,cs),
(587,-14,o),
(669,90,o),
(677,206,cs),
(680,247,o),
(680,268,o),
(680,303,cs)
);
}
);
width = 718;
}
);
note = Ugrave;
unicode = 217;
},
{
glyphname = Uhungarumlaut;
kernLeft = U;
kernRight = U;
lastChange = "2022-11-29 13:20:18 +0000";
layers = (
{
hints = (
{
horizontal = 1;
place = (-14, 132);
place = (-14, 132);
type = Stem;
},
{
horizontal = 1;
place = (690, -20);
target = down;
type = TopGhost;
},
{
horizontal = 1;
place = (736, 125);
place = (736, 125);
type = Stem;
},
{
place = (68, 180);
place = (68, 180);
type = Stem;
},
{
place = (500, 180);
place = (500, 180);
type = Stem;
}
);
layerId = m01;
shapes = (
{
closed = 1;
nodes = (
(269,728,cs),
(343,800,o),
(378,875,o),
(327,870,cs),
(325,870,o),
(323,869,o),
(321,869,cs),
(274,858,o),
(235,823,o),
(229,776,cs),
(228,772,o),
(228,769,o),
(228,766,cs),
(228,745,o),
(246,727,o),
(268,727,c),
(268,727,o),
(268,727,o)
);
},
{
closed = 1;
nodes = (
(470,728,cs),
(544,800,o),
(579,875,o),
(528,870,cs),
(526,870,o),
(524,869,o),
(522,869,cs),
(475,858,o),
(436,823,o),
(430,776,cs),
(429,772,o),
(429,769,o),
(429,766,cs),
(429,745,o),
(447,727,o),
(469,727,c),
(469,727,o),
(469,727,o)
);
},
{
closed = 1;
nodes = (
(680,609,ls),
(680,658,o),
(640,699,o),
(590,699,cs),
(540,699,o),
(500,658,o),
(500,609,cs),
(500,270,ls),
(500,251,o),
(500,241,o),
(499,229,cs),
(494,157,o),
(453,118,o),
(374,118,cs),
(295,118,o),
(254,157,o),
(249,229,cs),
(248,241,o),
(248,251,o),
(248,270,cs),
(248,609,ls),
(248,658,o),
(208,699,o),
(158,699,cs),
(108,699,o),
(68,658,o),
(68,609,cs),
(68,303,ls),
(68,268,o),
(68,247,o),
(71,206,cs),
(79,90,o),
(161,-14,o),
(374,-14,cs),
(587,-14,o),
(669,90,o),
(677,206,cs),
(680,247,o),
(680,268,o),
(680,303,cs)
);
}
);
width = 718;
}
);
note = Uhungarumlaut;
unicode = 368;
},
{
glyphname = Umacron;
kernLeft = U;
kernRight = U;
lastChange = "2022-11-29 13:20:18 +0000";
layers = (
{
hints = (
{
horizontal = 1;
place = (-14, 132);
place = (-14, 132);
type = Stem;
},
{
horizontal = 1;
place = (690, -20);
target = down;
type = TopGhost;
},
{
horizontal = 1;
place = (760, 96);
place = (760, 96);
type = Stem;
},
{
place = (68, 180);
place = (68, 180);
type = Stem;
},
{
place = (500, 180);
place = (500, 180);
type = Stem;
}
);
layerId = m01;
shapes = (
{
closed = 1;
nodes = (
(485,760,ls),
(511,760,o),
(533,781,o),
(533,808,cs),
(533,835,o),
(511,856,o),
(485,856,cs),
(263,856,ls),
(237,856,o),
(215,835,o),
(215,808,cs),
(215,781,o),
(237,760,o),
(263,760,cs)
);
},
{
closed = 1;
nodes = (
(680,609,ls),
(680,658,o),
(640,699,o),
(590,699,cs),
(540,699,o),
(500,658,o),
(500,609,cs),
(500,270,ls),
(500,251,o),
(500,241,o),
(499,229,cs),
(494,157,o),
(453,118,o),
(374,118,cs),
(295,118,o),
(254,157,o),
(249,229,cs),
(248,241,o),
(248,251,o),
(248,270,cs),
(248,609,ls),
(248,658,o),
(208,699,o),
(158,699,cs),
(108,699,o),
(68,658,o),
(68,609,cs),
(68,303,ls),
(68,268,o),
(68,247,o),
(71,206,cs),
(79,90,o),
(161,-14,o),
(374,-14,cs),
(587,-14,o),
(669,90,o),
(677,206,cs),
(680,247,o),
(680,268,o),
(680,303,cs)
);
}
);
width = 718;
}
);
note = Umacron;
unicode = 362;
},
{
glyphname = Uogonek;
kernLeft = U;
kernRight = U;
lastChange = "2022-11-29 13:20:18 +0000";
layers = (
{
hints = (
{
horizontal = 1;
place = (-3, 21);
target = up;
type = BottomGhost;
},
{
horizontal = 1;
place = (690, -20);
target = down;
type = TopGhost;
},
{
place = (68, 180);
place = (68, 180);
type = Stem;
},
{
place = (500, 180);
place = (500, 180);
type = Stem;
},
{
horizontal = 1;
place = (-13, 131);
place = (-13, 131);
type = Stem;
},
{
horizontal = 1;
place = (-223, 102);
place = (-223, 102);
type = Stem;
},
{
place = (287, 249);
place = (287, 249);
type = Stem;
}
);
layerId = m01;
shapes = (
{
closed = 1;
nodes = (
(680,609,ls),
(680,658,o),
(640,699,o),
(590,699,cs),
(540,699,o),
(500,658,o),
(500,609,cs),
(500,270,ls),
(500,251,o),
(500,241,o),
(499,229,cs),
(494,157,o),
(453,118,o),
(374,118,cs),
(295,118,o),
(254,157,o),
(249,229,cs),
(248,241,o),
(248,251,o),
(248,270,cs),
(248,609,ls),
(248,658,o),
(208,699,o),
(158,699,cs),
(108,699,o),
(68,658,o),
(68,609,cs),
(68,303,ls),
(68,268,o),
(68,247,o),
(71,206,cs),
(79,95,o),
(154,-5,o),
(347,-13,c),
(313,-43,o),
(287,-89,o),
(287,-137,cs),
(287,-201,o),
(335,-223,o),
(401,-223,cs),
(456,-223,o),
(495,-207,o),
(530,-184,cs),
(540,-177,o),
(545,-167,o),
(545,-155,cs),
(545,-133,o),
(523,-116,o),
(502,-120,cs),
(499,-121,o),
(495,-121,o),
(492,-121,cs),
(472,-121,o),
(451,-108,o),
(451,-70,cs),
(451,-39,o),
(464,-12,o),
(483,-3,c),
(496,0,ls),
(619,32,o),
(671,115,o),
(677,206,cs),
(680,247,o),
(680,268,o),
(680,303,cs)
);
}
);
width = 718;
}
);
note = Uogonek;
unicode = 370;
},
{
glyphname = Uring;
kernLeft = U;
kernRight = U;
lastChange = "2022-11-29 13:20:18 +0000";
layers = (
{
hints = (
{
horizontal = 1;
place = (-14, 132);
place = (-14, 132);
type = Stem;
},
{
horizontal = 1;
place = (690, -20);
target = down;
type = TopGhost;
},
{
horizontal = 1;
place = (722, 66);
place = (722, 66);
type = Stem;
},
{
horizontal = 1;
place = (866, 66);
place = (866, 66);
type = Stem;
},
{
place = (255, 83);
place = (255, 83);
type = Stem;
},
{
place = (410, 83);
place = (410, 83);
type = Stem;
},
{
place = (68, 180);
place = (68, 180);
type = Stem;
},
{
place = (500, 180);
place = (500, 180);
type = Stem;
}
);
layerId = m01;
shapes = (
{
closed = 1;
nodes = (
(304,932,o),
(255,889,o),
(255,827,cs),
(255,765,o),
(304,722,o),
(374,722,cs),
(444,722,o),
(493,765,o),
(493,827,cs),
(493,889,o),
(444,932,o),
(374,932,cs)
);
},
{
closed = 1;
nodes = (
(395,866,o),
(410,850,o),
(410,827,cs),
(410,804,o),
(395,788,o),
(374,788,cs),
(353,788,o),
(338,804,o),
(338,827,cs),
(338,850,o),
(353,866,o),
(374,866,cs)
);
},
{
closed = 1;
nodes = (
(680,609,ls),
(680,658,o),
(640,699,o),
(590,699,cs),
(540,699,o),
(500,658,o),
(500,609,cs),
(500,270,ls),
(500,251,o),
(500,241,o),
(499,229,cs),
(494,157,o),
(453,118,o),
(374,118,cs),
(295,118,o),
(254,157,o),
(249,229,cs),
(248,241,o),
(248,251,o),
(248,270,cs),
(248,609,ls),
(248,658,o),
(208,699,o),
(158,699,cs),
(108,699,o),
(68,658,o),
(68,609,cs),
(68,303,ls),
(68,268,o),
(68,247,o),
(71,206,cs),
(79,90,o),
(161,-14,o),
(374,-14,cs),
(587,-14,o),
(669,90,o),
(677,206,cs),
(680,247,o),
(680,268,o),
(680,303,cs)
);
}
);
width = 718;
}
);
note = Uring;
unicode = 366;
},
{
glyphname = V;
kernLeft = V;
kernRight = V;
lastChange = "2022-11-29 13:20:18 +0000";
layers = (
{
hints = (
{
horizontal = 1;
place = (0, 21);
target = up;
type = BottomGhost;
},
{
horizontal = 1;
place = (690, -20);
target = down;
type = TopGhost;
},
{
place = (32, 718);
place = (32, 718);
type = Stem;
},
{
horizontal = 1;
place = (0, 139);
place = (0, 139);
type = Stem;
}
);
layerId = m01;
shapes = (
{
closed = 1;
nodes = (
(420,0,ls),
(475,0,o),
(509,25,o),
(528,76,cs),
(711,581,ls),
(714,590,o),
(716,600,o),
(716,611,cs),
(716,659,o),
(676,699,o),
(627,699,cs),
(587,699,o),
(554,673,o),
(543,636,cs),
(393,139,l),
(245,634,ls),
(234,672,o),
(199,699,o),
(158,699,cs),
(108,699,o),
(67,658,o),
(67,608,cs),
(67,598,o),
(70,588,o),
(73,578,cs),
(254,76,ls),
(273,25,o),
(307,0,o),
(362,0,cs)
);
}
);
width = 742;
}
);
note = V;
unicode = 86;
},
{
glyphname = W;
kernLeft = W;
kernRight = W;
lastChange = "2022-11-29 13:20:18 +0000";
layers = (
{
hints = (
{
horizontal = 1;
place = (0, 21);
target = up;
type = BottomGhost;
},
{
horizontal = 1;
place = (690, -20);
target = down;
type = TopGhost;
},
{
place = (26, 1003);
place = (26, 1003);
type = Stem;
},
{
horizontal = 1;
place = (0, 138);
place = (0, 138);
type = Stem;
}
);
layerId = m01;
shapes = (
{
closed = 1;
nodes = (
(1004,590,ls),
(1006,596,o),
(1006,605,o),
(1006,612,cs),
(1006,660,o),
(967,699,o),
(919,699,cs),
(877,699,o),
(841,667,o),
(834,627,cs),
(745,138,l),
(672,593,ls),
(663,650,o),
(628,680,o),
(570,680,cs),
(487,680,ls),
(429,680,o),
(395,652,o),
(385,594,cs),
(309,140,l),
(228,623,ls),
(221,666,o),
(184,699,o),
(139,699,cs),
(89,699,o),
(48,658,o),
(48,608,cs),
(48,601,o),
(49,593,o),
(51,587,cs),
(172,82,ls),
(185,26,o),
(220,0,o),
(277,0,cs),
(346,0,ls),
(404,0,o),
(438,28,o),
(448,86,cs),
(526,537,l),
(599,87,ls),
(608,30,o),
(643,0,o),
(701,0,cs),
(769,0,ls),
(825,0,o),
(860,27,o),
(874,82,cs)
);
}
);
width = 1016;
}
);
note = W;
unicode = 87;
},
{
glyphname = Wacute;
kernLeft = W;
kernRight = W;
lastChange = "2022-11-29 13:20:18 +0000";
layers = (
{
hints = (
{
horizontal = 1;
place = (0, 21);
target = up;
type = BottomGhost;
},
{
horizontal = 1;
place = (690, -20);
target = down;
type = TopGhost;
},
{
horizontal = 1;
place = (735, 125);
place = (735, 125);
type = Stem;
},
{
place = (26, 1003);
place = (26, 1003);
type = Stem;
},
{
horizontal = 1;
place = (0, 138);
place = (0, 138);
type = Stem;
}
);
layerId = m01;
shapes = (
{
closed = 1;
nodes = (
(546,727,cs),
(620,799,o),
(655,874,o),
(604,869,cs),
(602,869,o),
(600,868,o),
(598,868,cs),
(551,857,o),
(512,822,o),
(506,775,cs),
(505,771,o),
(505,768,o),
(505,765,cs),
(505,744,o),
(523,726,o),
(545,726,c),
(545,726,o),
(545,726,o)
);
},
{
closed = 1;
nodes = (
(1004,590,ls),
(1006,596,o),
(1006,605,o),
(1006,612,cs),
(1006,660,o),
(967,699,o),
(919,699,cs),
(877,699,o),
(841,667,o),
(834,627,cs),
(745,138,l),
(672,593,ls),
(663,650,o),
(628,680,o),
(570,680,cs),
(487,680,ls),
(429,680,o),
(395,652,o),
(385,594,cs),
(309,140,l),
(228,623,ls),
(221,666,o),
(184,699,o),
(139,699,cs),
(89,699,o),
(48,658,o),
(48,608,cs),
(48,601,o),
(49,593,o),
(51,587,cs),
(172,82,ls),
(185,26,o),
(220,0,o),
(277,0,cs),
(346,0,ls),
(404,0,o),
(438,28,o),
(448,86,cs),
(526,537,l),
(599,87,ls),
(608,30,o),
(643,0,o),
(701,0,cs),
(769,0,ls),
(825,0,o),
(860,27,o),
(874,82,cs)
);
}
);
width = 1016;
}
);
note = Wacute;
unicode = 7810;
},
{
glyphname = Wcircumflex;
kernLeft = W;
kernRight = W;
lastChange = "2022-11-29 13:20:18 +0000";
layers = (
{
hints = (
{
horizontal = 1;
place = (0, 21);
target = up;
type = BottomGhost;
},
{
horizontal = 1;
place = (690, -20);
target = down;
type = TopGhost;
},
{
horizontal = 1;
place = (735, 125);
place = (735, 125);
type = Stem;
},
{
place = (26, 1003);
place = (26, 1003);
type = Stem;
},
{
horizontal = 1;
place = (0, 138);
place = (0, 138);
type = Stem;
}
);
layerId = m01;
shapes = (
{
closed = 1;
nodes = (
(503,754,cs),
(527,811,l),
(544,773,ls),
(556,747,o),
(565,735,o),
(574,735,cs),
(608,735,o),
(637,763,o),
(637,797,cs),
(637,832,o),
(608,860,o),
(574,860,cs),
(488,860,ls),
(444,860,o),
(412,822,o),
(415,784,c),
(416,780,o),
(415,776,o),
(415,772,cs),
(415,746,o),
(436,726,o),
(461,726,cs),
(480,726,o),
(496,737,o)
);
},
{
closed = 1;
nodes = (
(1004,590,ls),
(1006,596,o),
(1006,605,o),
(1006,612,cs),
(1006,660,o),
(967,699,o),
(919,699,cs),
(877,699,o),
(841,667,o),
(834,627,cs),
(745,138,l),
(672,593,ls),
(663,650,o),
(628,680,o),
(570,680,cs),
(487,680,ls),
(429,680,o),
(395,652,o),
(385,594,cs),
(309,140,l),
(228,623,ls),
(221,666,o),
(184,699,o),
(139,699,cs),
(89,699,o),
(48,658,o),
(48,608,cs),
(48,601,o),
(49,593,o),
(51,587,cs),
(172,82,ls),
(185,26,o),
(220,0,o),
(277,0,cs),
(346,0,ls),
(404,0,o),
(438,28,o),
(448,86,cs),
(526,537,l),
(599,87,ls),
(608,30,o),
(643,0,o),
(701,0,cs),
(769,0,ls),
(825,0,o),
(860,27,o),
(874,82,cs)
);
}
);
width = 1016;
}
);
note = Wcircumflex;
unicode = 372;
},
{
glyphname = Wdieresis;
kernLeft = W;
kernRight = W;
lastChange = "2022-11-29 13:20:18 +0000";
layers = (
{
hints = (
{
horizontal = 1;
place = (0, 21);
target = up;
type = BottomGhost;
},
{
horizontal = 1;
place = (690, -20);
target = down;
type = TopGhost;
},
{
horizontal = 1;
place = (722, 146);
place = (722, 146);
type = Stem;
},
{
place = (353, 150);
place = (353, 150);
type = Stem;
},
{
place = (553, 150);
place = (553, 150);
type = Stem;
},
{
horizontal = 1;
place = (0, 138);
place = (0, 138);
type = Stem;
}
);
layerId = m01;
shapes = (
{
closed = 1;
nodes = (
(1004,590,ls),
(1006,596,o),
(1006,605,o),
(1006,612,cs),
(1006,660,o),
(967,699,o),
(919,699,cs),
(877,699,o),
(841,667,o),
(834,627,cs),
(745,138,l),
(672,593,ls),
(663,650,o),
(628,680,o),
(570,680,cs),
(487,680,ls),
(429,680,o),
(395,652,o),
(385,594,cs),
(309,140,l),
(228,623,ls),
(221,666,o),
(184,699,o),
(139,699,cs),
(89,699,o),
(48,658,o),
(48,608,cs),
(48,601,o),
(49,593,o),
(51,587,cs),
(172,82,ls),
(185,26,o),
(220,0,o),
(277,0,cs),
(346,0,ls),
(404,0,o),
(438,28,o),
(448,86,cs),
(526,537,l),
(599,87,ls),
(608,30,o),
(643,0,o),
(701,0,cs),
(769,0,ls),
(825,0,o),
(860,27,o),
(874,82,cs)
);
},
{
closed = 1;
nodes = (
(418,719,cs),
(440,719,ls),
(479,719,o),
(512,751,o),
(512,791,cs),
(512,801,o),
(510,811,o),
(506,819,cs),
(492,851,o),
(463,875,o),
(428,875,cs),
(416,875,o),
(405,872,o),
(395,867,cs),
(366,853,o),
(344,825,o),
(344,793,cs),
(344,752,o),
(378,719,o)
);
},
{
closed = 1;
nodes = (
(619,719,cs),
(641,719,ls),
(680,719,o),
(713,751,o),
(713,791,cs),
(713,801,o),
(711,811,o),
(707,819,cs),
(693,851,o),
(664,875,o),
(629,875,cs),
(617,875,o),
(606,872,o),
(596,867,cs),
(567,853,o),
(545,825,o),
(545,793,cs),
(545,752,o),
(579,719,o)
);
}
);
width = 1016;
}
);
note = Wdieresis;
unicode = 7812;
},
{
glyphname = Wgrave;
kernLeft = W;
kernRight = W;
lastChange = "2022-11-29 13:20:18 +0000";
layers = (
{
hints = (
{
horizontal = 1;
place = (0, 21);
target = up;
type = BottomGhost;
},
{
horizontal = 1;
place = (690, -20);
target = down;
type = TopGhost;
},
{
horizontal = 1;
place = (735, 125);
place = (735, 125);
type = Stem;
},
{
place = (26, 1003);
place = (26, 1003);
type = Stem;
},
{
horizontal = 1;
place = (0, 138);
place = (0, 138);
type = Stem;
}
);
layerId = m01;
shapes = (
{
closed = 1;
nodes = (
(492,729,cs),
(496,727,o),
(502,726,o),
(508,726,cs),
(532,726,o),
(553,746,o),
(553,771,cs),
(553,780,o),
(549,790,o),
(544,797,cs),
(513,839,o),
(447,863,o),
(439,807,cs),
(438,803,o),
(438,800,o),
(438,797,cs),
(438,766,o),
(462,740,o)
);
},
{
closed = 1;
nodes = (
(1004,590,ls),
(1006,596,o),
(1006,605,o),
(1006,612,cs),
(1006,660,o),
(967,699,o),
(919,699,cs),
(877,699,o),
(841,667,o),
(834,627,cs),
(745,138,l),
(672,593,ls),
(663,650,o),
(628,680,o),
(570,680,cs),
(487,680,ls),
(429,680,o),
(395,652,o),
(385,594,cs),
(309,140,l),
(228,623,ls),
(221,666,o),
(184,699,o),
(139,699,cs),
(89,699,o),
(48,658,o),
(48,608,cs),
(48,601,o),
(49,593,o),
(51,587,cs),
(172,82,ls),
(185,26,o),
(220,0,o),
(277,0,cs),
(346,0,ls),
(404,0,o),
(438,28,o),
(448,86,cs),
(526,537,l),
(599,87,ls),
(608,30,o),
(643,0,o),
(701,0,cs),
(769,0,ls),
(825,0,o),
(860,27,o),
(874,82,cs)
);
}
);
width = 1016;
}
);
note = Wgrave;
unicode = 7808;
},
{
glyphname = X;
lastChange = "2022-11-29 13:20:18 +0000";
layers = (
{
hints = (
{
horizontal = 1;
place = (0, 21);
target = up;
type = BottomGhost;
},
{
horizontal = 1;
place = (690, -20);
target = down;
type = TopGhost;
},
{
place = (14, 706);
place = (14, 706);
type = Stem;
}
);
layerId = m01;
shapes = (
{
closed = 1;
nodes = (
(491,31,ls),
(506,6,o),
(532,-9,o),
(563,-9,cs),
(610,-9,o),
(649,29,o),
(649,76,cs),
(649,95,o),
(642,112,o),
(633,125,cs),
(477,351,l),
(631,568,ls),
(640,581,o),
(646,598,o),
(646,616,cs),
(646,662,o),
(609,699,o),
(563,699,cs),
(533,699,o),
(506,683,o),
(492,659,cs),
(371,460,l),
(261,655,ls),
(246,681,o),
(218,699,o),
(186,699,cs),
(139,699,o),
(100,661,o),
(100,613,cs),
(100,596,o),
(106,578,o),
(115,565,cs),
(261,348,l),
(96,115,ls),
(51,51,o),
(77,0,o),
(155,0,cs),
(156,0,ls),
(208,0,o),
(243,19,o),
(269,65,cs),
(365,233,l)
);
}
);
width = 717;
}
);
note = X;
unicode = 88;
},
{
glyphname = Y;
kernLeft = Y;
kernRight = Y;
lastChange = "2022-11-29 13:20:18 +0000";
layers = (
{
hints = (
{
horizontal = 1;
place = (0, 21);
target = up;
type = BottomGhost;
},
{
horizontal = 1;
place = (690, -20);
target = down;
type = TopGhost;
},
{
place = (257, 180);
place = (257, 180);
type = Stem;
}
);
layerId = m01;
shapes = (
{
closed = 1;
nodes = (
(437,264,l),
(613,573,ls),
(620,586,o),
(624,600,o),
(624,615,cs),
(624,661,o),
(587,699,o),
(540,699,cs),
(507,699,o),
(477,679,o),
(464,651,cs),
(352,417,l),
(235,651,ls),
(221,680,o),
(192,699,o),
(158,699,cs),
(110,699,o),
(71,660,o),
(71,612,cs),
(71,597,o),
(76,582,o),
(83,570,cs),
(257,264,l),
(257,81,ls),
(257,32,o),
(297,-9,o),
(347,-9,cs),
(397,-9,o),
(437,32,o),
(437,81,cs)
);
}
);
width = 663;
}
);
note = Y;
unicode = 89;
},
{
glyphname = Yacute;
kernLeft = Y;
kernRight = Y;
lastChange = "2022-11-29 13:20:18 +0000";
layers = (
{
hints = (
{
horizontal = 1;
place = (0, 21);
target = up;
type = BottomGhost;
},
{
horizontal = 1;
place = (690, -20);
target = down;
type = TopGhost;
},
{
horizontal = 1;
place = (735, 125);
place = (735, 125);
type = Stem;
},
{
place = (257, 180);
place = (257, 180);
type = Stem;
}
);
layerId = m01;
shapes = (
{
closed = 1;
nodes = (
(365,727,cs),
(439,799,o),
(474,874,o),
(423,869,cs),
(421,869,o),
(419,868,o),
(417,868,cs),
(370,857,o),
(331,822,o),
(325,775,cs),
(324,771,o),
(324,768,o),
(324,765,cs),
(324,744,o),
(342,726,o),
(364,726,c),
(364,726,o),
(364,726,o)
);
},
{
closed = 1;
nodes = (
(437,264,l),
(613,573,ls),
(620,586,o),
(624,600,o),
(624,615,cs),
(624,661,o),
(587,699,o),
(540,699,cs),
(507,699,o),
(477,679,o),
(464,651,cs),
(352,417,l),
(235,651,ls),
(221,680,o),
(192,699,o),
(158,699,cs),
(110,699,o),
(71,660,o),
(71,612,cs),
(71,597,o),
(76,582,o),
(83,570,cs),
(257,264,l),
(257,81,ls),
(257,32,o),
(297,-9,o),
(347,-9,cs),
(397,-9,o),
(437,32,o),
(437,81,cs)
);
}
);
width = 663;
}
);
note = Yacute;
unicode = 221;
},
{
glyphname = Ycircumflex;
kernLeft = Y;
kernRight = Y;
lastChange = "2022-11-29 13:20:18 +0000";
layers = (
{
hints = (
{
horizontal = 1;
place = (0, 21);
target = up;
type = BottomGhost;
},
{
horizontal = 1;
place = (690, -20);
target = down;
type = TopGhost;
},
{
horizontal = 1;
place = (735, 125);
place = (735, 125);
type = Stem;
},
{
place = (257, 180);
place = (257, 180);
type = Stem;
}
);
layerId = m01;
shapes = (
{
closed = 1;
nodes = (
(322,754,cs),
(346,811,l),
(363,773,ls),
(375,747,o),
(384,735,o),
(393,735,cs),
(427,735,o),
(456,763,o),
(456,797,cs),
(456,832,o),
(427,860,o),
(393,860,cs),
(307,860,ls),
(263,860,o),
(231,822,o),
(234,784,c),
(235,780,o),
(234,776,o),
(234,772,cs),
(234,746,o),
(255,726,o),
(280,726,cs),
(299,726,o),
(315,737,o)
);
},
{
closed = 1;
nodes = (
(437,264,l),
(613,573,ls),
(620,586,o),
(624,600,o),
(624,615,cs),
(624,661,o),
(587,699,o),
(540,699,cs),
(507,699,o),
(477,679,o),
(464,651,cs),
(352,417,l),
(235,651,ls),
(221,680,o),
(192,699,o),
(158,699,cs),
(110,699,o),
(71,660,o),
(71,612,cs),
(71,597,o),
(76,582,o),
(83,570,cs),
(257,264,l),
(257,81,ls),
(257,32,o),
(297,-9,o),
(347,-9,cs),
(397,-9,o),
(437,32,o),
(437,81,cs)
);
}
);
width = 663;
}
);
note = Ycircumflex;
unicode = 374;
},
{
glyphname = Ydieresis;
kernLeft = Y;
kernRight = Y;
lastChange = "2022-11-29 13:20:18 +0000";
layers = (
{
hints = (
{
horizontal = 1;
place = (0, 21);
target = up;
type = BottomGhost;
},
{
horizontal = 1;
place = (690, -20);
target = down;
type = TopGhost;
},
{
horizontal = 1;
place = (722, 146);
place = (722, 146);
type = Stem;
},
{
place = (172, 150);
place = (172, 150);
type = Stem;
},
{
place = (372, 150);
place = (372, 150);
type = Stem;
},
{
place = (257, 180);
place = (257, 180);
type = Stem;
}
);
layerId = m01;
shapes = (
{
closed = 1;
nodes = (
(437,264,l),
(613,573,ls),
(620,586,o),
(624,600,o),
(624,615,cs),
(624,661,o),
(587,699,o),
(540,699,cs),
(507,699,o),
(477,679,o),
(464,651,cs),
(352,417,l),
(235,651,ls),
(221,680,o),
(192,699,o),
(158,699,cs),
(110,699,o),
(71,660,o),
(71,612,cs),
(71,597,o),
(76,582,o),
(83,570,cs),
(257,264,l),
(257,81,ls),
(257,32,o),
(297,-9,o),
(347,-9,cs),
(397,-9,o),
(437,32,o),
(437,81,cs)
);
},
{
closed = 1;
nodes = (
(238,717,cs),
(260,717,ls),
(299,717,o),
(332,749,o),
(332,789,cs),
(332,799,o),
(330,809,o),
(326,817,cs),
(312,849,o),
(283,873,o),
(248,873,cs),
(236,873,o),
(225,870,o),
(215,865,cs),
(186,851,o),
(164,823,o),
(164,791,cs),
(164,750,o),
(198,717,o)
);
},
{
closed = 1;
nodes = (
(439,717,cs),
(461,717,ls),
(500,717,o),
(533,749,o),
(533,789,cs),
(533,799,o),
(531,809,o),
(527,817,cs),
(513,849,o),
(484,873,o),
(449,873,cs),
(437,873,o),
(426,870,o),
(416,865,cs),
(387,851,o),
(365,823,o),
(365,791,cs),
(365,750,o),
(399,717,o)
);
}
);
width = 663;
}
);
note = Ydieresis;
unicode = 376;
},
{
glyphname = Ygrave;
kernLeft = Y;
kernRight = Y;
lastChange = "2022-11-29 13:20:18 +0000";
layers = (
{
hints = (
{
horizontal = 1;
place = (0, 21);
target = up;
type = BottomGhost;
},
{
horizontal = 1;
place = (690, -20);
target = down;
type = TopGhost;
},
{
horizontal = 1;
place = (735, 125);
place = (735, 125);
type = Stem;
},
{
place = (257, 180);
place = (257, 180);
type = Stem;
}
);
layerId = m01;
shapes = (
{
closed = 1;
nodes = (
(311,729,cs),
(315,727,o),
(321,726,o),
(327,726,cs),
(351,726,o),
(372,746,o),
(372,771,cs),
(372,780,o),
(368,790,o),
(363,797,cs),
(332,839,o),
(266,863,o),
(258,807,cs),
(257,803,o),
(257,800,o),
(257,797,cs),
(257,766,o),
(281,740,o)
);
},
{
closed = 1;
nodes = (
(437,264,l),
(613,573,ls),
(620,586,o),
(624,600,o),
(624,615,cs),
(624,661,o),
(587,699,o),
(540,699,cs),
(507,699,o),
(477,679,o),
(464,651,cs),
(352,417,l),
(235,651,ls),
(221,680,o),
(192,699,o),
(158,699,cs),
(110,699,o),
(71,660,o),
(71,612,cs),
(71,597,o),
(76,582,o),
(83,570,cs),
(257,264,l),
(257,81,ls),
(257,32,o),
(297,-9,o),
(347,-9,cs),
(397,-9,o),
(437,32,o),
(437,81,cs)
);
}
);
width = 663;
}
);
note = Ygrave;
unicode = 7922;
},
{
glyphname = Z;
kernLeft = Z;
kernRight = Z;
lastChange = "2022-11-29 13:20:18 +0000";
layers = (
{
hints = (
{
horizontal = 1;
place = (0, 140);
place = (0, 140);
type = Stem;
},
{
horizontal = 1;
place = (550, 140);
place = (550, 140);
type = Stem;
},
{
place = (53, 565);
place = (53, 565);
type = Stem;
}
);
layerId = m01;
shapes = (
{
closed = 1;
nodes = (
(557,140,cs),
(276,140,l),
(602,536,ls),
(615,552,o),
(623,573,o),
(623,596,cs),
(623,648,o),
(581,690,o),
(529,690,cs),
(142,690,ls),
(104,690,o),
(72,659,o),
(72,620,cs),
(72,581,o),
(104,550,o),
(142,550,cs),
(394,550,l),
(65,151,ls),
(52,135,o),
(44,114,o),
(44,92,cs),
(44,41,o),
(86,0,o),
(136,0,cs),
(557,0,ls),
(595,0,o),
(627,31,o),
(627,70,cs),
(627,109,o),
(595,140,o)
);
}
);
width = 648;
}
);
note = Z;
unicode = 90;
},
{
glyphname = Zacute;
kernLeft = Z;
kernRight = Z;
lastChange = "2022-11-29 13:20:18 +0000";
layers = (
{
hints = (
{
horizontal = 1;
place = (0, 140);
place = (0, 140);
type = Stem;
},
{
horizontal = 1;
place = (550, 140);
place = (550, 140);
type = Stem;
},
{
horizontal = 1;
place = (735, 125);
place = (735, 125);
type = Stem;
},
{
place = (53, 565);
place = (53, 565);
type = Stem;
}
);
layerId = m01;
shapes = (
{
closed = 1;
nodes = (
(359,727,cs),
(433,799,o),
(468,874,o),
(417,869,cs),
(415,869,o),
(413,868,o),
(411,868,cs),
(364,857,o),
(325,822,o),
(319,775,cs),
(318,771,o),
(318,768,o),
(318,765,cs),
(318,744,o),
(336,726,o),
(358,726,c),
(358,726,o),
(358,726,o)
);
},
{
closed = 1;
nodes = (
(557,140,cs),
(276,140,l),
(602,536,ls),
(615,552,o),
(623,573,o),
(623,596,cs),
(623,648,o),
(581,690,o),
(529,690,cs),
(142,690,ls),
(104,690,o),
(72,659,o),
(72,620,cs),
(72,581,o),
(104,550,o),
(142,550,cs),
(394,550,l),
(65,151,ls),
(52,135,o),
(44,114,o),
(44,92,cs),
(44,41,o),
(86,0,o),
(136,0,cs),
(557,0,ls),
(595,0,o),
(627,31,o),
(627,70,cs),
(627,109,o),
(595,140,o)
);
}
);
width = 648;
}
);
note = Zacute;
unicode = 377;
},
{
glyphname = Zcaron;
kernLeft = Z;
kernRight = Z;
lastChange = "2022-11-29 13:20:18 +0000";
layers = (
{
hints = (
{
horizontal = 1;
place = (0, 140);
place = (0, 140);
type = Stem;
},
{
horizontal = 1;
place = (550, 140);
place = (550, 140);
type = Stem;
},
{
horizontal = 1;
place = (735, 125);
place = (735, 125);
type = Stem;
},
{
place = (53, 565);
place = (53, 565);
type = Stem;
}
);
layerId = m01;
shapes = (
{
closed = 1;
nodes = (
(296,735,cs),
(382,735,ls),
(426,735,o),
(458,773,o),
(455,811,c),
(454,815,o),
(455,819,o),
(455,823,cs),
(455,849,o),
(434,869,o),
(409,869,cs),
(390,869,o),
(374,858,o),
(367,841,cs),
(343,784,l),
(326,822,ls),
(314,848,o),
(305,860,o),
(296,860,cs),
(262,860,o),
(233,832,o),
(233,798,cs),
(233,763,o),
(262,735,o)
);
},
{
closed = 1;
nodes = (
(557,140,cs),
(276,140,l),
(602,536,ls),
(615,552,o),
(623,573,o),
(623,596,cs),
(623,648,o),
(581,690,o),
(529,690,cs),
(142,690,ls),
(104,690,o),
(72,659,o),
(72,620,cs),
(72,581,o),
(104,550,o),
(142,550,cs),
(394,550,l),
(65,151,ls),
(52,135,o),
(44,114,o),
(44,92,cs),
(44,41,o),
(86,0,o),
(136,0,cs),
(557,0,ls),
(595,0,o),
(627,31,o),
(627,70,cs),
(627,109,o),
(595,140,o)
);
}
);
width = 648;
}
);
note = Zcaron;
unicode = 381;
},
{
glyphname = Zdotaccent;
kernLeft = Z;
kernRight = Z;
lastChange = "2022-11-29 13:20:18 +0000";
layers = (
{
hints = (
{
horizontal = 1;
place = (0, 140);
place = (0, 140);
type = Stem;
},
{
horizontal = 1;
place = (550, 140);
place = (550, 140);
type = Stem;
},
{
horizontal = 1;
place = (725, 176);
place = (725, 176);
type = Stem;
},
{
place = (248, 186);
place = (248, 186);
type = Stem;
}
);
layerId = m01;
shapes = (
{
closed = 1;
nodes = (
(397,725,o),
(434,759,o),
(434,813,cs),
(434,867,o),
(397,901,o),
(341,901,cs),
(285,901,o),
(248,867,o),
(248,813,cs),
(248,759,o),
(285,725,o),
(341,725,cs)
);
},
{
closed = 1;
nodes = (
(557,140,cs),
(276,140,l),
(602,536,ls),
(615,552,o),
(623,573,o),
(623,596,cs),
(623,648,o),
(581,690,o),
(529,690,cs),
(142,690,ls),
(104,690,o),
(72,659,o),
(72,620,cs),
(72,581,o),
(104,550,o),
(142,550,cs),
(394,550,l),
(65,151,ls),
(52,135,o),
(44,114,o),
(44,92,cs),
(44,41,o),
(86,0,o),
(136,0,cs),
(557,0,ls),
(595,0,o),
(627,31,o),
(627,70,cs),
(627,109,o),
(595,140,o)
);
}
);
width = 648;
}
);
note = Zdotaccent;
unicode = 379;
},
{
glyphname = a;
kernLeft = a;
lastChange = "2022-11-29 13:20:18 +0000";
layers = (
{
hints = (
{
horizontal = 1;
place = (0, 108);
place = (0, 108);
type = Stem;
},
{
horizontal = 1;
place = (226, 102);
place = (226, 102);
type = Stem;
},
{
horizontal = 1;
place = (426, 122);
place = (426, 122);
type = Stem;
},
{
place = (48, 170);
place = (48, 170);
type = Stem;
},
{
place = (353, 180);
place = (353, 180);
type = Stem;
},
{
horizontal = 1;
place = (-14, 21);
target = up;
type = BottomGhost;
},
{
place = (30, 184);
place = (30, 184);
type = Stem;
}
);
layerId = m01;
shapes = (
{
closed = 1;
nodes = (
(357,67,ls),
(363,25,o),
(400,-9,o),
(445,-9,cs),
(499,-9,o),
(537,38,o),
(534,85,cs),
(533,103,o),
(533,119,o),
(533,135,cs),
(533,285,ls),
(533,318,o),
(532,349,o),
(530,376,cs),
(522,473,o),
(464,548,o),
(295,548,cs),
(215,548,o),
(143,523,o),
(97,474,cs),
(84,459,o),
(76,440,o),
(76,419,cs),
(76,374,o),
(112,337,o),
(157,337,cs),
(190,337,o),
(215,360,o),
(227,388,cs),
(238,414,o),
(258,426,o),
(287,426,cs),
(326,426,o),
(348,402,o),
(351,375,cs),
(353,358,o),
(353,347,o),
(353,336,cs),
(353,328,l),
(319,328,ls),
(138,328,o),
(30,258,o),
(30,144,cs),
(30,41,o),
(113,-14,o),
(201,-14,cs),
(226,-14,o),
(250,-11,o),
(272,-5,cs),
(318,8,o),
(339,38,o),
(355,78,c)
);
},
{
closed = 1;
nodes = (
(239,108,o),
(214,126,o),
(214,158,cs),
(214,211,o),
(272,232,o),
(353,226,c),
(353,191,ls),
(353,135,o),
(311,108,o),
(275,108,cs)
);
}
);
width = 587;
}
);
note = a;
unicode = 97;
},
{
glyphname = aacute;
kernLeft = a;
lastChange = "2022-11-29 13:20:18 +0000";
layers = (
{
hints = (
{
horizontal = 1;
place = (-14, 21);
target = up;
type = BottomGhost;
},
{
horizontal = 1;
place = (226, 102);
place = (226, 102);
type = Stem;
},
{
horizontal = 1;
place = (571, 125);
place = (571, 125);
type = Stem;
},
{
place = (30, 184);
place = (30, 184);
type = Stem;
},
{
place = (353, 180);
place = (353, 180);
type = Stem;
},
{
horizontal = 1;
place = (0, 108);
place = (0, 108);
type = Stem;
},
{
horizontal = 1;
place = (426, 122);
place = (426, 122);
type = Stem;
},
{
place = (48, 170);
place = (48, 170);
type = Stem;
}
);
layerId = m01;
shapes = (
{
closed = 1;
nodes = (
(311,563,cs),
(385,635,o),
(420,710,o),
(369,705,cs),
(367,705,o),
(365,704,o),
(363,704,cs),
(316,693,o),
(277,658,o),
(271,611,cs),
(270,607,o),
(270,604,o),
(270,601,cs),
(270,580,o),
(288,562,o),
(310,562,c),
(310,562,o),
(310,562,o)
);
},
{
closed = 1;
nodes = (
(357,67,ls),
(363,25,o),
(400,-9,o),
(445,-9,cs),
(499,-9,o),
(537,38,o),
(534,85,cs),
(533,103,o),
(533,119,o),
(533,135,cs),
(533,285,ls),
(533,318,o),
(532,349,o),
(530,376,cs),
(522,473,o),
(464,548,o),
(295,548,cs),
(215,548,o),
(143,523,o),
(97,474,cs),
(84,459,o),
(76,440,o),
(76,419,cs),
(76,374,o),
(112,337,o),
(157,337,cs),
(190,337,o),
(215,360,o),
(227,388,cs),
(238,414,o),
(258,426,o),
(287,426,cs),
(326,426,o),
(348,402,o),
(351,375,cs),
(353,358,o),
(353,347,o),
(353,336,cs),
(353,328,l),
(319,328,ls),
(138,328,o),
(30,258,o),
(30,144,cs),
(30,41,o),
(113,-14,o),
(201,-14,cs),
(226,-14,o),
(250,-11,o),
(272,-5,cs),
(318,8,o),
(339,38,o),
(355,78,c)
);
},
{
closed = 1;
nodes = (
(239,108,o),
(214,126,o),
(214,158,cs),
(214,211,o),
(272,232,o),
(353,226,c),
(353,191,ls),
(353,135,o),
(311,108,o),
(275,108,cs)
);
}
);
width = 587;
}
);
note = aacute;
unicode = 225;
},
{
glyphname = abreve;
kernLeft = a;
lastChange = "2022-11-29 13:20:18 +0000";
layers = (
{
hints = (
{
horizontal = 1;
place = (-14, 21);
target = up;
type = BottomGhost;
},
{
horizontal = 1;
place = (226, 102);
place = (226, 102);
type = Stem;
},
{
horizontal = 1;
place = (568, 128);
place = (568, 128);
type = Stem;
},
{
place = (30, 184);
place = (30, 184);
type = Stem;
},
{
place = (353, 180);
place = (353, 180);
type = Stem;
},
{
horizontal = 1;
place = (568, 85);
place = (568, 85);
type = Stem;
},
{
horizontal = 1;
place = (0, 108);
place = (0, 108);
type = Stem;
},
{
horizontal = 1;
place = (426, 122);
place = (426, 122);
type = Stem;
},
{
place = (48, 170);
place = (48, 170);
type = Stem;
}
);
layerId = m01;
shapes = (
{
closed = 1;
nodes = (
(348,568,o),
(400,586,o),
(419,645,cs),
(420,649,o),
(422,654,o),
(422,659,cs),
(422,685,o),
(401,706,o),
(375,706,cs),
(356,706,o),
(340,693,o),
(333,677,cs),
(326,661,o),
(313,653,o),
(293,653,cs),
(273,653,o),
(260,661,o),
(253,677,cs),
(246,694,o),
(230,706,o),
(210,706,cs),
(185,706,o),
(164,685,o),
(164,659,cs),
(164,654,o),
(165,649,o),
(166,645,cs),
(186,586,o),
(237,568,o),
(293,568,cs)
);
},
{
closed = 1;
nodes = (
(357,67,ls),
(363,25,o),
(400,-9,o),
(445,-9,cs),
(499,-9,o),
(537,38,o),
(534,85,cs),
(533,103,o),
(533,119,o),
(533,135,cs),
(533,285,ls),
(533,318,o),
(532,349,o),
(530,376,cs),
(522,473,o),
(464,548,o),
(295,548,cs),
(215,548,o),
(143,523,o),
(97,474,cs),
(84,459,o),
(76,440,o),
(76,419,cs),
(76,374,o),
(112,337,o),
(157,337,cs),
(190,337,o),
(215,360,o),
(227,388,cs),
(238,414,o),
(258,426,o),
(287,426,cs),
(326,426,o),
(348,402,o),
(351,375,cs),
(353,358,o),
(353,347,o),
(353,336,cs),
(353,328,l),
(319,328,ls),
(138,328,o),
(30,258,o),
(30,144,cs),
(30,41,o),
(113,-14,o),
(201,-14,cs),
(226,-14,o),
(250,-11,o),
(272,-5,cs),
(318,8,o),
(339,38,o),
(355,78,c)
);
},
{
closed = 1;
nodes = (
(239,108,o),
(214,126,o),
(214,158,cs),
(214,211,o),
(272,232,o),
(353,226,c),
(353,191,ls),
(353,135,o),
(311,108,o),
(275,108,cs)
);
}
);
width = 587;
}
);
note = abreve;
unicode = 259;
},
{
glyphname = acircumflex;
kernLeft = a;
lastChange = "2022-11-29 13:20:18 +0000";
layers = (
{
hints = (
{
horizontal = 1;
place = (-14, 21);
target = up;
type = BottomGhost;
},
{
horizontal = 1;
place = (226, 102);
place = (226, 102);
type = Stem;
},
{
horizontal = 1;
place = (571, 125);
place = (571, 125);
type = Stem;
},
{
place = (30, 184);
place = (30, 184);
type = Stem;
},
{
place = (353, 180);
place = (353, 180);
type = Stem;
},
{
horizontal = 1;
place = (647, 49);
place = (647, 49);
type = Stem;
},
{
horizontal = 1;
place = (0, 108);
place = (0, 108);
type = Stem;
},
{
horizontal = 1;
place = (426, 122);
place = (426, 122);
type = Stem;
},
{
place = (48, 170);
place = (48, 170);
type = Stem;
}
);
layerId = m01;
shapes = (
{
closed = 1;
nodes = (
(268,590,cs),
(292,647,l),
(309,609,ls),
(321,583,o),
(330,571,o),
(339,571,cs),
(373,571,o),
(402,599,o),
(402,633,cs),
(402,668,o),
(373,696,o),
(339,696,cs),
(253,696,ls),
(209,696,o),
(177,658,o),
(180,620,c),
(181,616,o),
(180,612,o),
(180,608,cs),
(180,582,o),
(201,562,o),
(226,562,cs),
(245,562,o),
(261,573,o)
);
},
{
closed = 1;
nodes = (
(357,67,ls),
(363,25,o),
(400,-9,o),
(445,-9,cs),
(499,-9,o),
(537,38,o),
(534,85,cs),
(533,103,o),
(533,119,o),
(533,135,cs),
(533,285,ls),
(533,318,o),
(532,349,o),
(530,376,cs),
(522,473,o),
(464,548,o),
(295,548,cs),
(215,548,o),
(143,523,o),
(97,474,cs),
(84,459,o),
(76,440,o),
(76,419,cs),
(76,374,o),
(112,337,o),
(157,337,cs),
(190,337,o),
(215,360,o),
(227,388,cs),
(238,414,o),
(258,426,o),
(287,426,cs),
(326,426,o),
(348,402,o),
(351,375,cs),
(353,358,o),
(353,347,o),
(353,336,cs),
(353,328,l),
(319,328,ls),
(138,328,o),
(30,258,o),
(30,144,cs),
(30,41,o),
(113,-14,o),
(201,-14,cs),
(226,-14,o),
(250,-11,o),
(272,-5,cs),
(318,8,o),
(339,38,o),
(355,78,c)
);
},
{
closed = 1;
nodes = (
(239,108,o),
(214,126,o),
(214,158,cs),
(214,211,o),
(272,232,o),
(353,226,c),
(353,191,ls),
(353,135,o),
(311,108,o),
(275,108,cs)
);
}
);
width = 587;
}
);
note = acircumflex;
unicode = 226;
},
{
glyphname = adieresis;
kernLeft = a;
lastChange = "2022-11-29 13:20:18 +0000";
layers = (
{
hints = (
{
horizontal = 1;
place = (0, 108);
place = (0, 108);
type = Stem;
},
{
horizontal = 1;
place = (226, 102);
place = (226, 102);
type = Stem;
},
{
horizontal = 1;
place = (426, 122);
place = (426, 122);
type = Stem;
},
{
horizontal = 1;
place = (569, 146);
place = (569, 146);
type = Stem;
},
{
place = (118, 150);
place = (118, 150);
type = Stem;
},
{
place = (318, 150);
place = (318, 150);
type = Stem;
},
{
place = (48, 170);
place = (48, 170);
type = Stem;
},
{
place = (353, 180);
place = (353, 180);
type = Stem;
},
{
horizontal = 1;
place = (-14, 21);
target = up;
type = BottomGhost;
},
{
place = (30, 184);
place = (30, 184);
type = Stem;
}
);
layerId = m01;
shapes = (
{
closed = 1;
nodes = (
(357,67,ls),
(363,25,o),
(400,-9,o),
(445,-9,cs),
(499,-9,o),
(537,38,o),
(534,85,cs),
(533,103,o),
(533,119,o),
(533,135,cs),
(533,285,ls),
(533,318,o),
(532,349,o),
(530,376,cs),
(522,473,o),
(464,548,o),
(295,548,cs),
(215,548,o),
(143,523,o),
(97,474,cs),
(84,459,o),
(76,440,o),
(76,419,cs),
(76,374,o),
(112,337,o),
(157,337,cs),
(190,337,o),
(215,360,o),
(227,388,cs),
(238,414,o),
(258,426,o),
(287,426,cs),
(326,426,o),
(348,402,o),
(351,375,cs),
(353,358,o),
(353,347,o),
(353,336,cs),
(353,328,l),
(319,328,ls),
(138,328,o),
(30,258,o),
(30,144,cs),
(30,41,o),
(113,-14,o),
(201,-14,cs),
(226,-14,o),
(250,-11,o),
(272,-5,cs),
(318,8,o),
(339,38,o),
(355,78,c)
);
},
{
closed = 1;
nodes = (
(239,108,o),
(214,126,o),
(214,158,cs),
(214,211,o),
(272,232,o),
(353,226,c),
(353,191,ls),
(353,135,o),
(311,108,o),
(275,108,cs)
);
},
{
closed = 1;
nodes = (
(185,572,cs),
(207,572,ls),
(246,572,o),
(279,604,o),
(279,644,cs),
(279,654,o),
(277,664,o),
(273,672,cs),
(259,704,o),
(230,728,o),
(195,728,cs),
(183,728,o),
(172,725,o),
(162,720,cs),
(133,706,o),
(111,678,o),
(111,646,cs),
(111,605,o),
(145,572,o)
);
},
{
closed = 1;
nodes = (
(386,572,cs),
(408,572,ls),
(447,572,o),
(480,604,o),
(480,644,cs),
(480,654,o),
(478,664,o),
(474,672,cs),
(460,704,o),
(431,728,o),
(396,728,cs),
(384,728,o),
(373,725,o),
(363,720,cs),
(334,706,o),
(312,678,o),
(312,646,cs),
(312,605,o),
(346,572,o)
);
}
);
width = 587;
}
);
note = adieresis;
unicode = 228;
},
{
glyphname = agrave;
kernLeft = a;
lastChange = "2022-11-29 13:20:18 +0000";
layers = (
{
hints = (
{
horizontal = 1;
place = (-14, 21);
target = up;
type = BottomGhost;
},
{
horizontal = 1;
place = (226, 102);
place = (226, 102);
type = Stem;
},
{
horizontal = 1;
place = (571, 125);
place = (571, 125);
type = Stem;
},
{
place = (30, 184);
place = (30, 184);
type = Stem;
},
{
place = (353, 180);
place = (353, 180);
type = Stem;
},
{
horizontal = 1;
place = (0, 108);
place = (0, 108);
type = Stem;
},
{
horizontal = 1;
place = (426, 122);
place = (426, 122);
type = Stem;
},
{
place = (48, 170);
place = (48, 170);
type = Stem;
}
);
layerId = m01;
shapes = (
{
closed = 1;
nodes = (
(265,565,cs),
(269,563,o),
(275,562,o),
(281,562,cs),
(305,562,o),
(326,582,o),
(326,607,cs),
(326,616,o),
(322,626,o),
(317,633,cs),
(286,675,o),
(220,699,o),
(212,643,cs),
(211,639,o),
(211,636,o),
(211,633,cs),
(211,602,o),
(235,576,o)
);
},
{
closed = 1;
nodes = (
(357,67,ls),
(363,25,o),
(400,-9,o),
(445,-9,cs),
(499,-9,o),
(537,38,o),
(534,85,cs),
(533,103,o),
(533,119,o),
(533,135,cs),
(533,285,ls),
(533,318,o),
(532,349,o),
(530,376,cs),
(522,473,o),
(464,548,o),
(295,548,cs),
(215,548,o),
(143,523,o),
(97,474,cs),
(84,459,o),
(76,440,o),
(76,419,cs),
(76,374,o),
(112,337,o),
(157,337,cs),
(190,337,o),
(215,360,o),
(227,388,cs),
(238,414,o),
(258,426,o),
(287,426,cs),
(326,426,o),
(348,402,o),
(351,375,cs),
(353,358,o),
(353,347,o),
(353,336,cs),
(353,328,l),
(319,328,ls),
(138,328,o),
(30,258,o),
(30,144,cs),
(30,41,o),
(113,-14,o),
(201,-14,cs),
(226,-14,o),
(250,-11,o),
(272,-5,cs),
(318,8,o),
(339,38,o),
(355,78,c)
);
},
{
closed = 1;
nodes = (
(239,108,o),
(214,126,o),
(214,158,cs),
(214,211,o),
(272,232,o),
(353,226,c),
(353,191,ls),
(353,135,o),
(311,108,o),
(275,108,cs)
);
}
);
width = 587;
}
);
note = agrave;
unicode = 224;
},
{
glyphname = amacron;
kernLeft = a;
lastChange = "2022-11-29 13:20:18 +0000";
layers = (
{
hints = (
{
horizontal = 1;
place = (0, 108);
place = (0, 108);
type = Stem;
},
{
horizontal = 1;
place = (226, 102);
place = (226, 102);
type = Stem;
},
{
horizontal = 1;
place = (426, 122);
place = (426, 122);
type = Stem;
},
{
horizontal = 1;
place = (586, 96);
place = (586, 96);
type = Stem;
},
{
place = (143, 300);
place = (143, 300);
type = Stem;
},
{
place = (48, 170);
place = (48, 170);
type = Stem;
},
{
place = (353, 180);
place = (353, 180);
type = Stem;
},
{
horizontal = 1;
place = (-14, 21);
target = up;
type = BottomGhost;
},
{
place = (30, 184);
place = (30, 184);
type = Stem;
}
);
layerId = m01;
shapes = (
{
closed = 1;
nodes = (
(404,586,ls),
(430,586,o),
(452,607,o),
(452,634,cs),
(452,661,o),
(430,682,o),
(404,682,cs),
(182,682,ls),
(156,682,o),
(134,661,o),
(134,634,cs),
(134,607,o),
(156,586,o),
(182,586,cs)
);
},
{
closed = 1;
nodes = (
(357,67,ls),
(363,25,o),
(400,-9,o),
(445,-9,cs),
(499,-9,o),
(537,38,o),
(534,85,cs),
(533,103,o),
(533,119,o),
(533,135,cs),
(533,285,ls),
(533,318,o),
(532,349,o),
(530,376,cs),
(522,473,o),
(464,548,o),
(295,548,cs),
(215,548,o),
(143,523,o),
(97,474,cs),
(84,459,o),
(76,440,o),
(76,419,cs),
(76,374,o),
(112,337,o),
(157,337,cs),
(190,337,o),
(215,360,o),
(227,388,cs),
(238,414,o),
(258,426,o),
(287,426,cs),
(326,426,o),
(348,402,o),
(351,375,cs),
(353,358,o),
(353,347,o),
(353,336,cs),
(353,328,l),
(319,328,ls),
(138,328,o),
(30,258,o),
(30,144,cs),
(30,41,o),
(113,-14,o),
(201,-14,cs),
(226,-14,o),
(250,-11,o),
(272,-5,cs),
(318,8,o),
(339,38,o),
(355,78,c)
);
},
{
closed = 1;
nodes = (
(239,108,o),
(214,126,o),
(214,158,cs),
(214,211,o),
(272,232,o),
(353,226,c),
(353,191,ls),
(353,135,o),
(311,108,o),
(275,108,cs)
);
}
);
width = 587;
}
);
note = amacron;
unicode = 257;
},
{
glyphname = aogonek;
kernLeft = a;
lastChange = "2022-11-29 13:20:18 +0000";
layers = (
{
hints = (
{
horizontal = 1;
place = (-223, 102);
place = (-223, 102);
type = Stem;
},
{
horizontal = 1;
place = (0, 21);
target = up;
type = BottomGhost;
},
{
horizontal = 1;
place = (226, 102);
place = (226, 102);
type = Stem;
},
{
horizontal = 1;
place = (426, 122);
place = (426, 122);
type = Stem;
},
{
place = (30, 184);
place = (30, 184);
type = Stem;
},
{
place = (281, 249);
place = (281, 249);
type = Stem;
},
{
place = (48, 170);
place = (48, 170);
type = Stem;
},
{
place = (353, 180);
place = (353, 180);
type = Stem;
},
{
horizontal = 1;
place = (-14, 21);
target = up;
type = BottomGhost;
},
{
horizontal = 1;
place = (-14, 122);
place = (-14, 122);
type = Stem;
}
);
layerId = m01;
shapes = (
{
closed = 1;
nodes = (
(445,-32,o),
(465,0,o),
(490,0,cs),
(524,0,o),
(536,35,o),
(534,99,cs),
(533,111,o),
(533,123,o),
(533,135,cs),
(533,285,ls),
(533,318,o),
(532,349,o),
(530,376,cs),
(522,473,o),
(464,548,o),
(295,548,cs),
(215,548,o),
(143,523,o),
(97,474,cs),
(84,459,o),
(76,440,o),
(76,419,cs),
(76,374,o),
(112,337,o),
(157,337,cs),
(190,337,o),
(215,360,o),
(227,388,cs),
(238,414,o),
(258,426,o),
(287,426,cs),
(326,426,o),
(348,402,o),
(351,375,cs),
(353,358,o),
(353,347,o),
(353,336,cs),
(353,328,l),
(319,328,ls),
(138,328,o),
(30,258,o),
(30,144,cs),
(30,41,o),
(113,-14,o),
(201,-14,cs),
(226,-14,o),
(250,-11,o),
(272,-5,cs),
(318,8,o),
(339,38,o),
(355,78,c),
(366,5,l),
(322,-21,o),
(281,-77,o),
(281,-137,cs),
(281,-201,o),
(329,-223,o),
(395,-223,cs),
(450,-223,o),
(489,-207,o),
(524,-184,cs),
(534,-177,o),
(539,-167,o),
(539,-155,cs),
(539,-133,o),
(517,-116,o),
(496,-120,cs),
(493,-121,o),
(489,-121,o),
(486,-121,cs),
(466,-121,o),
(445,-108,o),
(445,-70,cs)
);
},
{
closed = 1;
nodes = (
(239,108,o),
(214,126,o),
(214,158,cs),
(214,211,o),
(272,232,o),
(353,226,c),
(353,191,ls),
(353,135,o),
(311,108,o),
(275,108,cs)
);
}
);
width = 587;
}
);
note = aogonek;
unicode = 261;
},
{
glyphname = aring;
kernLeft = a;
lastChange = "2022-11-29 13:20:18 +0000";
layers = (
{
hints = (
{
horizontal = 1;
place = (0, 108);
place = (0, 108);
type = Stem;
},
{
horizontal = 1;
place = (226, 102);
place = (226, 102);
type = Stem;
},
{
horizontal = 1;
place = (426, 122);
place = (426, 122);
type = Stem;
},
{
horizontal = 1;
place = (567, 66);
place = (567, 66);
type = Stem;
},
{
horizontal = 1;
place = (715, 66);
place = (715, 66);
type = Stem;
},
{
place = (174, 83);
place = (174, 83);
type = Stem;
},
{
place = (329, 83);
place = (329, 83);
type = Stem;
},
{
place = (48, 170);
place = (48, 170);
type = Stem;
},
{
place = (353, 180);
place = (353, 180);
type = Stem;
},
{
horizontal = 1;
place = (-14, 21);
target = up;
type = BottomGhost;
},
{
place = (30, 184);
place = (30, 184);
type = Stem;
}
);
layerId = m01;
shapes = (
{
closed = 1;
nodes = (
(363,567,o),
(412,610,o),
(412,674,cs),
(412,738,o),
(363,781,o),
(293,781,cs),
(223,781,o),
(174,738,o),
(174,674,cs),
(174,610,o),
(223,567,o),
(293,567,cs)
);
},
{
closed = 1;
nodes = (
(314,715,o),
(329,700,o),
(329,674,cs),
(329,648,o),
(314,633,o),
(293,633,cs),
(272,633,o),
(257,648,o),
(257,674,cs),
(257,700,o),
(272,715,o),
(293,715,cs)
);
},
{
closed = 1;
nodes = (
(357,67,ls),
(363,25,o),
(400,-9,o),
(445,-9,cs),
(499,-9,o),
(537,38,o),
(534,85,cs),
(533,103,o),
(533,119,o),
(533,135,cs),
(533,285,ls),
(533,318,o),
(532,349,o),
(530,376,cs),
(522,473,o),
(464,548,o),
(295,548,cs),
(215,548,o),
(143,523,o),
(97,474,cs),
(84,459,o),
(76,440,o),
(76,419,cs),
(76,374,o),
(112,337,o),
(157,337,cs),
(190,337,o),
(215,360,o),
(227,388,cs),
(238,414,o),
(258,426,o),
(287,426,cs),
(326,426,o),
(348,402,o),
(351,375,cs),
(353,358,o),
(353,347,o),
(353,336,cs),
(353,328,l),
(319,328,ls),
(138,328,o),
(30,258,o),
(30,144,cs),
(30,41,o),
(113,-14,o),
(201,-14,cs),
(226,-14,o),
(250,-11,o),
(272,-5,cs),
(318,8,o),
(339,38,o),
(355,78,c)
);
},
{
closed = 1;
nodes = (
(239,108,o),
(214,126,o),
(214,158,cs),
(214,211,o),
(272,232,o),
(353,226,c),
(353,191,ls),
(353,135,o),
(311,108,o),
(275,108,cs)
);
}
);
width = 587;
}
);
note = aring;
unicode = 229;
},
{
glyphname = atilde;
kernLeft = a;
lastChange = "2022-11-29 13:20:18 +0000";
layers = (
{
hints = (
{
horizontal = 1;
place = (-14, 21);
target = up;
type = BottomGhost;
},
{
horizontal = 1;
place = (226, 102);
place = (226, 102);
type = Stem;
},
{
horizontal = 1;
place = (426, 122);
place = (426, 122);
type = Stem;
},
{
horizontal = 1;
place = (574, 134);
place = (574, 134);
type = Stem;
},
{
place = (129, 96);
place = (129, 96);
type = Stem;
},
{
place = (353, 180);
place = (353, 180);
type = Stem;
},
{
horizontal = 1;
place = (571, 134);
place = (571, 134);
type = Stem;
},
{
place = (30, 184);
place = (30, 184);
type = Stem;
},
{
place = (361, 96);
place = (361, 96);
type = Stem;
},
{
horizontal = 1;
place = (571, 103);
place = (571, 103);
type = Stem;
},
{
horizontal = 1;
place = (0, 108);
place = (0, 108);
type = Stem;
},
{
place = (48, 170);
place = (48, 170);
type = Stem;
}
);
layerId = m01;
shapes = (
{
closed = 1;
nodes = (
(248,605,o),
(261,600,o),
(285,590,cs),
(322,574,o),
(338,571,o),
(367,571,cs),
(416,571,o),
(444,597,o),
(453,658,cs),
(457,687,o),
(435,714,o),
(405,714,cs),
(384,714,o),
(365,701,o),
(358,683,cs),
(355,676,o),
(352,674,o),
(346,674,cs),
(338,674,o),
(325,678,o),
(301,689,cs),
(265,705,o),
(248,708,o),
(219,708,cs),
(170,708,o),
(142,682,o),
(133,621,cs),
(129,592,o),
(151,565,o),
(181,565,cs),
(202,565,o),
(221,578,o),
(228,596,cs),
(231,603,o),
(234,605,o),
(240,605,cs)
);
},
{
closed = 1;
nodes = (
(357,67,ls),
(363,25,o),
(400,-9,o),
(445,-9,cs),
(499,-9,o),
(537,38,o),
(534,85,cs),
(533,103,o),
(533,119,o),
(533,135,cs),
(533,285,ls),
(533,318,o),
(532,349,o),
(530,376,cs),
(522,473,o),
(464,548,o),
(295,548,cs),
(215,548,o),
(143,523,o),
(97,474,cs),
(84,459,o),
(76,440,o),
(76,419,cs),
(76,374,o),
(112,337,o),
(157,337,cs),
(190,337,o),
(215,360,o),
(227,388,cs),
(238,414,o),
(258,426,o),
(287,426,cs),
(326,426,o),
(348,402,o),
(351,375,cs),
(353,358,o),
(353,347,o),
(353,336,cs),
(353,328,l),
(319,328,ls),
(138,328,o),
(30,258,o),
(30,144,cs),
(30,41,o),
(113,-14,o),
(201,-14,cs),
(226,-14,o),
(250,-11,o),
(272,-5,cs),
(318,8,o),
(339,38,o),
(355,78,c)
);
},
{
closed = 1;
nodes = (
(239,108,o),
(214,126,o),
(214,158,cs),
(214,211,o),
(272,232,o),
(353,226,c),
(353,191,ls),
(353,135,o),
(311,108,o),
(275,108,cs)
);
}
);
width = 587;
}
);
note = atilde;
unicode = 227;
},
{
glyphname = ae;
kernLeft = a;
kernRight = ae;
lastChange = "2022-11-29 13:20:18 +0000";
layers = (
{
hints = (
{
horizontal = 1;
place = (-14, 122);
place = (-14, 122);
type = Stem;
},
{
horizontal = 1;
place = (222, 110);
place = (222, 110);
type = Stem;
},
{
horizontal = 1;
place = (426, 122);
place = (426, 122);
type = Stem;
},
{
place = (30, 184);
place = (30, 184);
type = Stem;
}
);
layerId = m01;
shapes = (
{
closed = 1;
nodes = (
(950,412,o),
(860,548,o),
(692,548,cs),
(605,548,o),
(530,517,o),
(486,455,c),
(456,514,o),
(392,548,o),
(295,548,cs),
(215,548,o),
(144,523,o),
(99,475,cs),
(85,461,o),
(76,441,o),
(76,419,cs),
(76,373,o),
(113,337,o),
(158,337,cs),
(191,337,o),
(215,358,o),
(228,385,cs),
(242,412,o),
(267,426,o),
(297,426,cs),
(351,426,o),
(377,397,o),
(377,338,cs),
(377,332,l),
(319,332,ls),
(148,332,o),
(30,271,o),
(30,149,cs),
(30,41,o),
(113,-14,o),
(241,-14,cs),
(270,-14,o),
(300,-10,o),
(328,-2,cs),
(370,11,o),
(394,35,o),
(422,68,cs),
(449,100,l),
(496,23,o),
(574,-14,o),
(672,-14,cs),
(753,-14,o),
(820,10,o),
(869,55,cs),
(883,69,o),
(893,89,o),
(893,111,cs),
(893,153,o),
(859,188,o),
(816,188,cs),
(788,188,o),
(764,171,o),
(751,147,cs),
(737,121,o),
(711,108,o),
(674,108,cs),
(623,108,o),
(584,133,o),
(575,222,c),
(855,222,ls),
(915,222,o),
(950,274,o),
(950,274,cs)
);
},
{
closed = 1;
nodes = (
(581,332,l),
(594,397,o),
(627,426,o),
(673,426,cs),
(722,426,o),
(753,394,o),
(762,332,c)
);
},
{
closed = 1;
nodes = (
(378,214,ls),
(378,146,o),
(341,108,o),
(286,108,cs),
(239,108,o),
(214,126,o),
(214,163,cs),
(214,210,o),
(264,228,o),
(378,222,c)
);
}
);
width = 974;
}
);
note = ae;
unicode = 230;
},
{
glyphname = b;
kernRight = b;
lastChange = "2022-11-29 13:20:18 +0000";
layers = (
{
hints = (
{
horizontal = 1;
place = (-14, 122);
place = (-14, 122);
type = Stem;
},
{
horizontal = 1;
place = (426, 122);
place = (426, 122);
type = Stem;
},
{
horizontal = 1;
place = (735, -20);
target = down;
type = TopGhost;
},
{
place = (54, 180);
place = (54, 180);
type = Stem;
},
{
place = (461, 184);
place = (461, 184);
type = Stem;
},
{
horizontal = 1;
place = (0, 108);
place = (0, 108);
type = Stem;
}
);
layerId = m01;
shapes = (
{
closed = 1;
nodes = (
(377,548,o),
(345,544,o),
(318,536,cs),
(284,525,o),
(265,501,o),
(240,464,cs),
(234,456,l),
(234,654,ls),
(234,703,o),
(194,744,o),
(144,744,cs),
(94,744,o),
(54,703,o),
(54,654,cs),
(54,81,ls),
(54,32,o),
(94,-9,o),
(144,-9,cs),
(190,-9,o),
(228,25,o),
(234,69,c),
(252,41,ls),
(264,21,o),
(284,1,o),
(330,-8,cs),
(350,-12,o),
(372,-14,o),
(392,-14,cs),
(529,-14,o),
(645,89,o),
(645,279,cs),
(645,437,o),
(555,548,o),
(410,548,cs)
);
},
{
closed = 1;
nodes = (
(289,108,o),
(234,144,o),
(234,251,cs),
(234,274,ls),
(234,386,o),
(282,426,o),
(348,426,cs),
(411,426,o),
(461,370,o),
(461,270,cs),
(461,161,o),
(413,108,o),
(343,108,cs)
);
}
);
width = 669;
}
);
note = b;
unicode = 98;
},
{
glyphname = c;
kernLeft = c;
lastChange = "2022-11-29 13:20:18 +0000";
layers = (
{
hints = (
{
horizontal = 1;
place = (-14, 122);
place = (-14, 122);
type = Stem;
},
{
horizontal = 1;
place = (426, 122);
place = (426, 122);
type = Stem;
},
{
place = (24, 184);
place = (24, 184);
type = Stem;
},
{
place = (389, 174);
place = (389, 174);
type = Stem;
}
);
layerId = m01;
shapes = (
{
closed = 1;
nodes = (
(148,548,o),
(24,445,o),
(24,261,cs),
(24,85,o),
(140,-14,o),
(293,-14,cs),
(385,-14,o),
(462,15,o),
(511,74,cs),
(523,89,o),
(530,107,o),
(530,127,cs),
(530,172,o),
(493,209,o),
(448,209,cs),
(414,209,o),
(388,187,o),
(375,159,cs),
(359,124,o),
(333,108,o),
(303,108,cs),
(242,108,o),
(208,158,o),
(208,272,cs),
(208,375,o),
(241,426,o),
(301,426,cs),
(334,426,o),
(362,412,o),
(378,372,cs),
(389,342,o),
(419,320,o),
(453,320,cs),
(497,320,o),
(533,356,o),
(533,401,cs),
(533,418,o),
(530,436,o),
(521,449,cs),
(478,510,o),
(403,548,o),
(305,548,cs)
);
}
);
width = 587;
}
);
note = c;
unicode = 99;
},
{
glyphname = cacute;
kernLeft = c;
lastChange = "2022-11-29 13:20:18 +0000";
layers = (
{
hints = (
{
horizontal = 1;
place = (-14, 122);
place = (-14, 122);
type = Stem;
},
{
horizontal = 1;
place = (571, 125);
place = (571, 125);
type = Stem;
},
{
place = (24, 184);
place = (24, 184);
type = Stem;
},
{
horizontal = 1;
place = (426, 122);
place = (426, 122);
type = Stem;
},
{
place = (389, 174);
place = (389, 174);
type = Stem;
}
);
layerId = m01;
shapes = (
{
closed = 1;
nodes = (
(311,563,cs),
(385,635,o),
(420,710,o),
(369,705,cs),
(367,705,o),
(365,704,o),
(363,704,cs),
(316,693,o),
(277,658,o),
(271,611,cs),
(270,607,o),
(270,604,o),
(270,601,cs),
(270,580,o),
(288,562,o),
(310,562,c),
(310,562,o),
(310,562,o)
);
},
{
closed = 1;
nodes = (
(148,548,o),
(24,445,o),
(24,261,cs),
(24,85,o),
(140,-14,o),
(293,-14,cs),
(385,-14,o),
(462,15,o),
(511,74,cs),
(523,89,o),
(530,107,o),
(530,127,cs),
(530,172,o),
(493,209,o),
(448,209,cs),
(414,209,o),
(388,187,o),
(375,159,cs),
(359,124,o),
(333,108,o),
(303,108,cs),
(242,108,o),
(208,158,o),
(208,272,cs),
(208,375,o),
(241,426,o),
(301,426,cs),
(334,426,o),
(362,412,o),
(378,372,cs),
(389,342,o),
(419,320,o),
(453,320,cs),
(497,320,o),
(533,356,o),
(533,401,cs),
(533,418,o),
(530,436,o),
(521,449,cs),
(478,510,o),
(403,548,o),
(305,548,cs)
);
}
);
width = 587;
}
);
note = cacute;
unicode = 263;
},
{
glyphname = ccaron;
kernLeft = c;
lastChange = "2022-11-29 13:20:18 +0000";
layers = (
{
hints = (
{
horizontal = 1;
place = (-14, 122);
place = (-14, 122);
type = Stem;
},
{
horizontal = 1;
place = (571, 125);
place = (571, 125);
type = Stem;
},
{
place = (24, 184);
place = (24, 184);
type = Stem;
},
{
horizontal = 1;
place = (426, 122);
place = (426, 122);
type = Stem;
},
{
place = (389, 174);
place = (389, 174);
type = Stem;
}
);
layerId = m01;
shapes = (
{
closed = 1;
nodes = (
(248,571,cs),
(334,571,ls),
(378,571,o),
(410,609,o),
(407,647,c),
(406,651,o),
(407,655,o),
(407,659,cs),
(407,685,o),
(386,705,o),
(361,705,cs),
(342,705,o),
(326,694,o),
(319,677,cs),
(295,620,l),
(278,658,ls),
(266,684,o),
(257,696,o),
(248,696,cs),
(214,696,o),
(185,668,o),
(185,634,cs),
(185,599,o),
(214,571,o)
);
},
{
closed = 1;
nodes = (
(375,159,cs),
(359,124,o),
(333,108,o),
(303,108,cs),
(242,108,o),
(208,158,o),
(208,272,cs),
(208,375,o),
(241,426,o),
(301,426,cs),
(334,426,o),
(362,412,o),
(378,372,cs),
(389,342,o),
(419,320,o),
(453,320,cs),
(497,320,o),
(533,356,o),
(533,401,cs),
(533,418,o),
(530,436,o),
(521,449,cs),
(478,510,o),
(403,548,o),
(305,548,cs),
(148,548,o),
(24,445,o),
(24,261,cs),
(24,85,o),
(140,-14,o),
(293,-14,cs),
(385,-14,o),
(462,15,o),
(511,74,cs),
(523,89,o),
(530,107,o),
(530,127,cs),
(530,172,o),
(493,209,o),
(448,209,cs),
(414,209,o),
(388,187,o)
);
}
);
width = 587;
}
);
note = ccaron;
unicode = 269;
},
{
glyphname = ccedilla;
kernLeft = c;
lastChange = "2022-11-29 13:20:18 +0000";
layers = (
{
hints = (
{
horizontal = 1;
place = (-210, 69);
place = (-210, 69);
type = Stem;
},
{
horizontal = 1;
place = (-10, 21);
target = up;
type = BottomGhost;
},
{
horizontal = 1;
place = (426, 122);
place = (426, 122);
type = Stem;
},
{
place = (24, 184);
place = (24, 184);
type = Stem;
},
{
place = (299, 108);
place = (299, 108);
type = Stem;
},
{
place = (389, 174);
place = (389, 174);
type = Stem;
}
);
layerId = m01;
shapes = (
{
closed = 1;
nodes = (
(375,159,cs),
(359,124,o),
(333,108,o),
(303,108,cs),
(242,108,o),
(208,158,o),
(208,272,cs),
(208,375,o),
(241,426,o),
(301,426,cs),
(334,426,o),
(362,412,o),
(378,372,cs),
(389,342,o),
(419,320,o),
(453,320,cs),
(497,320,o),
(533,356,o),
(533,401,cs),
(533,418,o),
(530,436,o),
(521,449,cs),
(478,510,o),
(403,548,o),
(305,548,cs),
(148,548,o),
(24,445,o),
(24,261,cs),
(24,106,o),
(114,11,o),
(240,-10,c),
(221,-49,ls),
(209,-74,o),
(288,-46,o),
(299,-110,cs),
(299,-111,o),
(299,-113,o),
(299,-114,cs),
(299,-132,o),
(282,-141,o),
(239,-141,cs),
(232,-141,o),
(222,-141,o),
(210,-139,cs),
(191,-137,o),
(181,-147,o),
(181,-169,cs),
(181,-192,o),
(238,-210,o),
(238,-210,cs),
(330,-210,o),
(407,-188,o),
(407,-119,cs),
(407,-74,o),
(375,-49,o),
(312,-42,c),
(326,-13,l),
(403,-6,o),
(468,22,o),
(511,74,cs),
(523,89,o),
(530,106,o),
(530,126,cs),
(530,172,o),
(493,209,o),
(448,209,cs),
(414,209,o),
(388,187,o)
);
}
);
width = 587;
}
);
note = ccedilla;
unicode = 231;
},
{
glyphname = cdotaccent;
kernLeft = c;
lastChange = "2022-11-29 13:20:18 +0000";
layers = (
{
hints = (
{
horizontal = 1;
place = (-14, 122);
place = (-14, 122);
type = Stem;
},
{
horizontal = 1;
place = (426, 122);
place = (426, 122);
type = Stem;
},
{
horizontal = 1;
place = (575, 176);
place = (575, 176);
type = Stem;
},
{
place = (200, 186);
place = (200, 186);
type = Stem;
},
{
place = (24, 184);
place = (24, 184);
type = Stem;
},
{
place = (389, 174);
place = (389, 174);
type = Stem;
}
);
layerId = m01;
shapes = (
{
closed = 1;
nodes = (
(237,751,o),
(200,717,o),
(200,663,cs),
(200,609,o),
(237,575,o),
(293,575,cs),
(349,575,o),
(386,609,o),
(386,663,cs),
(386,717,o),
(349,751,o),
(293,751,cs)
);
},
{
closed = 1;
nodes = (
(148,548,o),
(24,445,o),
(24,261,cs),
(24,85,o),
(140,-14,o),
(293,-14,cs),
(385,-14,o),
(462,15,o),
(511,74,cs),
(523,89,o),
(530,107,o),
(530,127,cs),
(530,172,o),
(493,209,o),
(448,209,cs),
(414,209,o),
(388,187,o),
(375,159,cs),
(359,124,o),
(333,108,o),
(303,108,cs),
(242,108,o),
(208,158,o),
(208,272,cs),
(208,375,o),
(241,426,o),
(301,426,cs),
(334,426,o),
(362,412,o),
(378,372,cs),
(389,342,o),
(419,320,o),
(453,320,cs),
(497,320,o),
(533,356,o),
(533,401,cs),
(533,418,o),
(530,436,o),
(521,449,cs),
(478,510,o),
(403,548,o),
(305,548,cs)
);
}
);
width = 587;
}
);
note = cdotaccent;
unicode = 267;
},
{
glyphname = d;
kernLeft = c;
lastChange = "2022-11-29 13:20:18 +0000";
layers = (
{
hints = (
{
horizontal = 1;
place = (-14, 122);
place = (-14, 122);
type = Stem;
},
{
horizontal = 1;
place = (426, 122);
place = (426, 122);
type = Stem;
},
{
horizontal = 1;
place = (735, -20);
target = down;
type = TopGhost;
},
{
place = (24, 184);
place = (24, 184);
type = Stem;
},
{
place = (435, 180);
place = (435, 180);
type = Stem;
},
{
horizontal = 1;
place = (0, 108);
place = (0, 108);
type = Stem;
}
);
layerId = m01;
shapes = (
{
closed = 1;
nodes = (
(615,654,ls),
(615,703,o),
(575,744,o),
(525,744,cs),
(475,744,o),
(435,703,o),
(435,654,cs),
(435,465,l),
(418,494,ls),
(406,514,o),
(385,533,o),
(339,542,cs),
(319,546,o),
(297,548,o),
(277,548,cs),
(140,548,o),
(24,445,o),
(24,255,cs),
(24,97,o),
(114,-14,o),
(259,-14,cs),
(287,-14,o),
(315,-11,o),
(340,-5,cs),
(383,6,o),
(404,33,o),
(429,70,cs),
(435,78,l),
(437,29,o),
(476,-9,o),
(525,-9,cs),
(575,-9,o),
(615,32,o),
(615,81,cs)
);
},
{
closed = 1;
nodes = (
(258,108,o),
(208,164,o),
(208,264,cs),
(208,373,o),
(256,426,o),
(326,426,cs),
(380,426,o),
(435,390,o),
(435,283,cs),
(435,260,ls),
(435,148,o),
(387,108,o),
(321,108,cs)
);
}
);
width = 669;
}
);
note = d;
unicode = 100;
},
{
glyphname = eth;
kernLeft = c;
lastChange = "2022-11-29 13:20:18 +0000";
layers = (
{
hints = (
{
horizontal = 1;
place = (-14, 132);
place = (-14, 132);
type = Stem;
},
{
horizontal = 1;
place = (416, 132);
place = (416, 132);
type = Stem;
},
{
horizontal = 1;
place = (696, -20);
target = down;
type = TopGhost;
},
{
horizontal = 1;
place = (745, -20);
target = down;
type = TopGhost;
},
{
place = (24, 188);
place = (24, 188);
type = Stem;
},
{
place = (435, 184);
place = (435, 184);
type = Stem;
}
);
layerId = m01;
shapes = (
{
closed = 1;
nodes = (
(566,618,ls),
(583,621,o),
(596,636,o),
(596,654,cs),
(596,678,o),
(574,695,o),
(553,691,cs),
(495,680,l),
(473,699,o),
(448,716,o),
(418,734,cs),
(408,740,o),
(395,745,o),
(382,745,cs),
(344,745,o),
(313,714,o),
(313,676,cs),
(313,667,o),
(299,652,o),
(302,644,c),
(264,637,ls),
(247,634,o),
(234,619,o),
(234,601,cs),
(234,577,o),
(256,560,o),
(277,564,cs),
(373,582,l),
(402,546,o),
(418,506,o),
(423,465,c),
(402,492,ls),
(387,511,o),
(368,532,o),
(324,544,cs),
(312,547,o),
(300,548,o),
(288,548,cs),
(141,548,o),
(24,450,o),
(24,267,cs),
(24,102,o),
(123,-14,o),
(327,-14,cs),
(464,-14,o),
(619,67,o),
(619,307,cs),
(619,447,o),
(597,544,o),
(551,615,c)
);
},
{
closed = 1;
nodes = (
(435,260,ls),
(435,178,o),
(403,118,o),
(327,118,cs),
(256,118,o),
(212,163,o),
(212,267,cs),
(212,359,o),
(250,416,o),
(328,416,cs),
(394,416,o),
(435,364,o),
(435,289,cs)
);
}
);
width = 662;
}
);
note = eth;
unicode = 240;
},
{
glyphname = dcaron;
kernLeft = c;
lastChange = "2022-11-29 13:20:18 +0000";
layers = (
{
hints = (
{
horizontal = 1;
place = (-14, 122);
place = (-14, 122);
type = Stem;
},
{
horizontal = 1;
place = (556, 179);
place = (556, 179);
type = Stem;
},
{
place = (24, 184);
place = (24, 184);
type = Stem;
},
{
place = (435, 180);
place = (435, 180);
type = Stem;
},
{
horizontal = 1;
place = (426, 122);
place = (426, 122);
type = Stem;
},
{
horizontal = 1;
place = (0, 108);
place = (0, 108);
type = Stem;
}
);
layerId = m01;
shapes = (
{
closed = 1;
nodes = (
(435,654,cs),
(435,465,l),
(418,494,ls),
(406,514,o),
(385,533,o),
(339,542,cs),
(319,546,o),
(297,548,o),
(277,548,cs),
(140,548,o),
(24,445,o),
(24,255,cs),
(24,97,o),
(114,-14,o),
(259,-14,cs),
(287,-14,o),
(315,-11,o),
(340,-5,cs),
(383,6,o),
(404,33,o),
(429,70,cs),
(435,78,l),
(437,29,o),
(476,-9,o),
(525,-9,cs),
(575,-9,o),
(615,32,o),
(615,81,cs),
(615,654,ls),
(615,703,o),
(575,744,o),
(525,744,cs),
(475,744,o),
(435,703,o)
);
},
{
closed = 1;
nodes = (
(836,733,o),
(822,735,o),
(796,735,cs),
(720,735,o),
(658,672,o),
(659,602,cs),
(659,592,ls),
(659,567,o),
(680,547,o),
(704,547,cs),
(721,547,o),
(735,556,o),
(743,569,cs),
(804,671,ls),
(827,710,o),
(836,727,o),
(836,730,cs)
);
},
{
closed = 1;
nodes = (
(258,108,o),
(208,164,o),
(208,264,cs),
(208,373,o),
(256,426,o),
(326,426,cs),
(380,426,o),
(435,390,o),
(435,283,cs),
(435,260,ls),
(435,148,o),
(387,108,o),
(321,108,cs)
);
}
);
width = 661;
}
);
note = dcaron;
unicode = 271;
},
{
glyphname = dcroat;
kernLeft = c;
lastChange = "2022-11-29 13:20:18 +0000";
layers = (
{
hints = (
{
horizontal = 1;
place = (-14, 122);
place = (-14, 122);
type = Stem;
},
{
horizontal = 1;
place = (575, 160);
place = (575, 160);
type = Stem;
},
{
place = (24, 184);
place = (24, 184);
type = Stem;
},
{
place = (435, 180);
place = (435, 180);
type = Stem;
},
{
horizontal = 1;
place = (575, 96);
place = (575, 96);
type = Stem;
},
{
horizontal = 1;
place = (426, 122);
place = (426, 122);
type = Stem;
},
{
horizontal = 1;
place = (0, 108);
place = (0, 108);
type = Stem;
}
);
layerId = m01;
shapes = (
{
closed = 1;
nodes = (
(616,575,ls),
(642,575,o),
(664,596,o),
(664,623,cs),
(664,650,o),
(642,671,o),
(616,671,cs),
(615,671,l),
(607,714,o),
(570,746,o),
(525,746,cs),
(480,746,o),
(443,714,o),
(435,671,c),
(354,671,ls),
(328,671,o),
(306,650,o),
(306,623,cs),
(306,596,o),
(328,575,o),
(354,575,cs),
(435,575,l),
(435,465,l),
(418,494,ls),
(406,514,o),
(385,533,o),
(339,542,cs),
(319,546,o),
(297,548,o),
(277,548,cs),
(140,548,o),
(24,445,o),
(24,255,cs),
(24,97,o),
(114,-14,o),
(259,-14,cs),
(287,-14,o),
(315,-11,o),
(340,-5,cs),
(383,6,o),
(404,33,o),
(429,70,cs),
(435,78,l),
(437,29,o),
(476,-9,o),
(525,-9,cs),
(575,-9,o),
(615,32,o),
(615,81,cs),
(615,575,l)
);
},
{
closed = 1;
nodes = (
(258,108,o),
(208,164,o),
(208,264,cs),
(208,373,o),
(256,426,o),
(326,426,cs),
(380,426,o),
(435,390,o),
(435,283,cs),
(435,260,ls),
(435,148,o),
(387,108,o),
(321,108,cs)
);
}
);
width = 669;
}
);
note = dcroat;
unicode = 273;
},
{
glyphname = e;
kernLeft = c;
kernRight = ae;
lastChange = "2022-11-29 13:20:18 +0000";
layers = (
{
hints = (
{
horizontal = 1;
place = (-14, 122);
place = (-14, 122);
type = Stem;
},
{
horizontal = 1;
place = (222, 110);
place = (222, 110);
type = Stem;
},
{
horizontal = 1;
place = (426, 122);
place = (426, 122);
type = Stem;
},
{
place = (24, 178);
place = (24, 178);
type = Stem;
}
);
layerId = m01;
shapes = (
{
closed = 1;
nodes = (
(577,412,o),
(487,548,o),
(309,548,cs),
(131,548,o),
(24,421,o),
(24,265,cs),
(24,77,o),
(146,-14,o),
(299,-14,cs),
(380,-14,o),
(447,10,o),
(496,55,cs),
(510,69,o),
(520,89,o),
(520,111,cs),
(520,153,o),
(486,188,o),
(443,188,cs),
(415,188,o),
(391,171,o),
(378,147,cs),
(364,121,o),
(338,108,o),
(301,108,cs),
(250,108,o),
(211,133,o),
(202,222,c),
(482,222,ls),
(542,222,o),
(577,274,o),
(577,274,cs)
);
},
{
closed = 1;
nodes = (
(348,426,o),
(379,395,o),
(389,332,c),
(208,332,l),
(220,398,o),
(253,426,o),
(300,426,cs)
);
}
);
width = 601;
}
);
note = e;
unicode = 101;
},
{
glyphname = eacute;
kernLeft = c;
kernRight = ae;
lastChange = "2022-11-29 13:20:18 +0000";
layers = (
{
hints = (
{
horizontal = 1;
place = (-14, 122);
place = (-14, 122);
type = Stem;
},
{
horizontal = 1;
place = (222, 110);
place = (222, 110);
type = Stem;
},
{
horizontal = 1;
place = (571, 125);
place = (571, 125);
type = Stem;
},
{
place = (24, 178);
place = (24, 178);
type = Stem;
},
{
horizontal = 1;
place = (426, 122);
place = (426, 122);
type = Stem;
}
);
layerId = m01;
shapes = (
{
closed = 1;
nodes = (
(320,563,cs),
(394,635,o),
(429,710,o),
(378,705,cs),
(376,705,o),
(374,704,o),
(372,704,cs),
(325,693,o),
(286,658,o),
(280,611,cs),
(279,607,o),
(279,604,o),
(279,601,cs),
(279,580,o),
(297,562,o),
(319,562,c),
(319,562,o),
(319,562,o)
);
},
{
closed = 1;
nodes = (
(577,412,o),
(487,548,o),
(309,548,cs),
(131,548,o),
(24,421,o),
(24,265,cs),
(24,77,o),
(146,-14,o),
(299,-14,cs),
(380,-14,o),
(447,10,o),
(496,55,cs),
(510,69,o),
(520,89,o),
(520,111,cs),
(520,153,o),
(486,188,o),
(443,188,cs),
(415,188,o),
(391,171,o),
(378,147,cs),
(364,121,o),
(338,108,o),
(301,108,cs),
(250,108,o),
(211,133,o),
(202,222,c),
(482,222,ls),
(542,222,o),
(577,274,o),
(577,274,cs)
);
},
{
closed = 1;
nodes = (
(348,426,o),
(379,395,o),
(389,332,c),
(208,332,l),
(220,398,o),
(253,426,o),
(300,426,cs)
);
}
);
width = 601;
}
);
note = eacute;
unicode = 233;
},
{
glyphname = ecaron;
kernLeft = c;
kernRight = ae;
lastChange = "2022-11-29 13:20:18 +0000";
layers = (
{
hints = (
{
horizontal = 1;
place = (-14, 122);
place = (-14, 122);
type = Stem;
},
{
horizontal = 1;
place = (222, 110);
place = (222, 110);
type = Stem;
},
{
horizontal = 1;
place = (571, 125);
place = (571, 125);
type = Stem;
},
{
place = (24, 178);
place = (24, 178);
type = Stem;
},
{
horizontal = 1;
place = (426, 122);
place = (426, 122);
type = Stem;
}
);
layerId = m01;
shapes = (
{
closed = 1;
nodes = (
(257,571,cs),
(343,571,ls),
(387,571,o),
(419,609,o),
(416,647,c),
(415,651,o),
(416,655,o),
(416,659,cs),
(416,685,o),
(395,705,o),
(370,705,cs),
(351,705,o),
(335,694,o),
(328,677,cs),
(304,620,l),
(287,658,ls),
(275,684,o),
(266,696,o),
(257,696,cs),
(223,696,o),
(194,668,o),
(194,634,cs),
(194,599,o),
(223,571,o)
);
},
{
closed = 1;
nodes = (
(577,412,o),
(487,548,o),
(309,548,cs),
(131,548,o),
(24,421,o),
(24,265,cs),
(24,77,o),
(146,-14,o),
(299,-14,cs),
(380,-14,o),
(447,10,o),
(496,55,cs),
(510,69,o),
(520,89,o),
(520,111,cs),
(520,153,o),
(486,188,o),
(443,188,cs),
(415,188,o),
(391,171,o),
(378,147,cs),
(364,121,o),
(338,108,o),
(301,108,cs),
(250,108,o),
(211,133,o),
(202,222,c),
(482,222,ls),
(542,222,o),
(577,274,o),
(577,274,cs)
);
},
{
closed = 1;
nodes = (
(348,426,o),
(379,395,o),
(389,332,c),
(208,332,l),
(220,398,o),
(253,426,o),
(300,426,cs)
);
}
);
width = 601;
}
);
note = ecaron;
unicode = 283;
},
{
glyphname = ecircumflex;
kernLeft = c;
kernRight = ae;
lastChange = "2022-11-29 13:20:18 +0000";
layers = (
{
hints = (
{
horizontal = 1;
place = (-14, 122);
place = (-14, 122);
type = Stem;
},
{
horizontal = 1;
place = (222, 110);
place = (222, 110);
type = Stem;
},
{
horizontal = 1;
place = (571, 125);
place = (571, 125);
type = Stem;
},
{
place = (24, 178);
place = (24, 178);
type = Stem;
},
{
horizontal = 1;
place = (647, 49);
place = (647, 49);
type = Stem;
},
{
horizontal = 1;
place = (426, 122);
place = (426, 122);
type = Stem;
}
);
layerId = m01;
shapes = (
{
closed = 1;
nodes = (
(277,590,cs),
(301,647,l),
(318,609,ls),
(330,583,o),
(339,571,o),
(348,571,cs),
(382,571,o),
(411,599,o),
(411,633,cs),
(411,668,o),
(382,696,o),
(348,696,cs),
(262,696,ls),
(218,696,o),
(186,658,o),
(189,620,c),
(190,616,o),
(189,612,o),
(189,608,cs),
(189,582,o),
(210,562,o),
(235,562,cs),
(254,562,o),
(270,573,o)
);
},
{
closed = 1;
nodes = (
(577,412,o),
(487,548,o),
(309,548,cs),
(131,548,o),
(24,421,o),
(24,265,cs),
(24,77,o),
(146,-14,o),
(299,-14,cs),
(380,-14,o),
(447,10,o),
(496,55,cs),
(510,69,o),
(520,89,o),
(520,111,cs),
(520,153,o),
(486,188,o),
(443,188,cs),
(415,188,o),
(391,171,o),
(378,147,cs),
(364,121,o),
(338,108,o),
(301,108,cs),
(250,108,o),
(211,133,o),
(202,222,c),
(482,222,ls),
(542,222,o),
(577,274,o),
(577,274,cs)
);
},
{
closed = 1;
nodes = (
(348,426,o),
(379,395,o),
(389,332,c),
(208,332,l),
(220,398,o),
(253,426,o),
(300,426,cs)
);
}
);
width = 601;
}
);
note = ecircumflex;
unicode = 234;
},
{
glyphname = edieresis;
kernLeft = c;
kernRight = ae;
lastChange = "2022-11-29 13:20:18 +0000";
layers = (
{
hints = (
{
horizontal = 1;
place = (-14, 122);
place = (-14, 122);
type = Stem;
},
{
horizontal = 1;
place = (222, 110);
place = (222, 110);
type = Stem;
},
{
horizontal = 1;
place = (426, 122);
place = (426, 122);
type = Stem;
},
{
horizontal = 1;
place = (569, 146);
place = (569, 146);
type = Stem;
},
{
place = (127, 150);
place = (127, 150);
type = Stem;
},
{
place = (327, 150);
place = (327, 150);
type = Stem;
},
{
place = (24, 178);
place = (24, 178);
type = Stem;
}
);
layerId = m01;
shapes = (
{
closed = 1;
nodes = (
(577,412,o),
(487,548,o),
(309,548,cs),
(131,548,o),
(24,421,o),
(24,265,cs),
(24,77,o),
(146,-14,o),
(299,-14,cs),
(380,-14,o),
(447,10,o),
(496,55,cs),
(510,69,o),
(520,89,o),
(520,111,cs),
(520,153,o),
(486,188,o),
(443,188,cs),
(415,188,o),
(391,171,o),
(378,147,cs),
(364,121,o),
(338,108,o),
(301,108,cs),
(250,108,o),
(211,133,o),
(202,222,c),
(482,222,ls),
(542,222,o),
(577,274,o),
(577,274,cs)
);
},
{
closed = 1;
nodes = (
(348,426,o),
(379,395,o),
(389,332,c),
(208,332,l),
(220,398,o),
(253,426,o),
(300,426,cs)
);
},
{
closed = 1;
nodes = (
(193,567,cs),
(215,567,ls),
(254,567,o),
(287,599,o),
(287,639,cs),
(287,649,o),
(285,659,o),
(281,667,cs),
(267,699,o),
(238,723,o),
(203,723,cs),
(191,723,o),
(180,720,o),
(170,715,cs),
(141,701,o),
(119,673,o),
(119,641,cs),
(119,600,o),
(153,567,o)
);
},
{
closed = 1;
nodes = (
(394,567,cs),
(416,567,ls),
(455,567,o),
(488,599,o),
(488,639,cs),
(488,649,o),
(486,659,o),
(482,667,cs),
(468,699,o),
(439,723,o),
(404,723,cs),
(392,723,o),
(381,720,o),
(371,715,cs),
(342,701,o),
(320,673,o),
(320,641,cs),
(320,600,o),
(354,567,o)
);
}
);
width = 601;
}
);
note = edieresis;
unicode = 235;
},
{
glyphname = edotaccent;
kernLeft = c;
kernRight = ae;
lastChange = "2022-11-29 13:20:18 +0000";
layers = (
{
hints = (
{
horizontal = 1;
place = (-14, 122);
place = (-14, 122);
type = Stem;
},
{
horizontal = 1;
place = (222, 110);
place = (222, 110);
type = Stem;
},
{
horizontal = 1;
place = (426, 122);
place = (426, 122);
type = Stem;
},
{
horizontal = 1;
place = (575, 176);
place = (575, 176);
type = Stem;
},
{
place = (209, 186);
place = (209, 186);
type = Stem;
},
{
place = (24, 178);
place = (24, 178);
type = Stem;
}
);
layerId = m01;
shapes = (
{
closed = 1;
nodes = (
(358,575,o),
(395,609,o),
(395,663,cs),
(395,717,o),
(358,751,o),
(302,751,cs),
(246,751,o),
(209,717,o),
(209,663,cs),
(209,609,o),
(246,575,o),
(302,575,cs)
);
},
{
closed = 1;
nodes = (
(577,412,o),
(487,548,o),
(309,548,cs),
(131,548,o),
(24,421,o),
(24,265,cs),
(24,77,o),
(146,-14,o),
(299,-14,cs),
(380,-14,o),
(447,10,o),
(496,55,cs),
(510,69,o),
(520,89,o),
(520,111,cs),
(520,153,o),
(486,188,o),
(443,188,cs),
(415,188,o),
(391,171,o),
(378,147,cs),
(364,121,o),
(338,108,o),
(301,108,cs),
(250,108,o),
(211,133,o),
(202,222,c),
(482,222,ls),
(542,222,o),
(577,274,o),
(577,274,cs)
);
},
{
closed = 1;
nodes = (
(348,426,o),
(379,395,o),
(389,332,c),
(208,332,l),
(220,398,o),
(253,426,o),
(300,426,cs)
);
}
);
width = 601;
}
);
note = edotaccent;
unicode = 279;
},
{
glyphname = egrave;
kernLeft = c;
kernRight = ae;
lastChange = "2022-11-29 13:20:18 +0000";
layers = (
{
hints = (
{
horizontal = 1;
place = (-14, 122);
place = (-14, 122);
type = Stem;
},
{
horizontal = 1;
place = (222, 110);
place = (222, 110);
type = Stem;
},
{
horizontal = 1;
place = (571, 125);
place = (571, 125);
type = Stem;
},
{
place = (24, 178);
place = (24, 178);
type = Stem;
},
{
horizontal = 1;
place = (426, 122);
place = (426, 122);
type = Stem;
}
);
layerId = m01;
shapes = (
{
closed = 1;
nodes = (
(274,565,cs),
(278,563,o),
(284,562,o),
(290,562,cs),
(314,562,o),
(335,582,o),
(335,607,cs),
(335,616,o),
(331,626,o),
(326,633,cs),
(295,675,o),
(229,699,o),
(221,643,cs),
(220,639,o),
(220,636,o),
(220,633,cs),
(220,602,o),
(244,576,o)
);
},
{
closed = 1;
nodes = (
(577,412,o),
(487,548,o),
(309,548,cs),
(131,548,o),
(24,421,o),
(24,265,cs),
(24,77,o),
(146,-14,o),
(299,-14,cs),
(380,-14,o),
(447,10,o),
(496,55,cs),
(510,69,o),
(520,89,o),
(520,111,cs),
(520,153,o),
(486,188,o),
(443,188,cs),
(415,188,o),
(391,171,o),
(378,147,cs),
(364,121,o),
(338,108,o),
(301,108,cs),
(250,108,o),
(211,133,o),
(202,222,c),
(482,222,ls),
(542,222,o),
(577,274,o),
(577,274,cs)
);
},
{
closed = 1;
nodes = (
(348,426,o),
(379,395,o),
(389,332,c),
(208,332,l),
(220,398,o),
(253,426,o),
(300,426,cs)
);
}
);
width = 601;
}
);
note = egrave;
unicode = 232;
},
{
glyphname = emacron;
kernLeft = c;
kernRight = ae;
lastChange = "2022-11-29 13:20:18 +0000";
layers = (
{
hints = (
{
horizontal = 1;
place = (-14, 122);
place = (-14, 122);
type = Stem;
},
{
horizontal = 1;
place = (222, 110);
place = (222, 110);
type = Stem;
},
{
horizontal = 1;
place = (426, 122);
place = (426, 122);
type = Stem;
},
{
horizontal = 1;
place = (586, 96);
place = (586, 96);
type = Stem;
},
{
place = (152, 300);
place = (152, 300);
type = Stem;
},
{
place = (24, 178);
place = (24, 178);
type = Stem;
}
);
layerId = m01;
shapes = (
{
closed = 1;
nodes = (
(413,586,ls),
(439,586,o),
(461,607,o),
(461,634,cs),
(461,661,o),
(439,682,o),
(413,682,cs),
(191,682,ls),
(165,682,o),
(143,661,o),
(143,634,cs),
(143,607,o),
(165,586,o),
(191,586,cs)
);
},
{
closed = 1;
nodes = (
(577,412,o),
(487,548,o),
(309,548,cs),
(131,548,o),
(24,421,o),
(24,265,cs),
(24,77,o),
(146,-14,o),
(299,-14,cs),
(380,-14,o),
(447,10,o),
(496,55,cs),
(510,69,o),
(520,89,o),
(520,111,cs),
(520,153,o),
(486,188,o),
(443,188,cs),
(415,188,o),
(391,171,o),
(378,147,cs),
(364,121,o),
(338,108,o),
(301,108,cs),
(250,108,o),
(211,133,o),
(202,222,c),
(482,222,ls),
(542,222,o),
(577,274,o),
(577,274,cs)
);
},
{
closed = 1;
nodes = (
(348,426,o),
(379,395,o),
(389,332,c),
(208,332,l),
(220,398,o),
(253,426,o),
(300,426,cs)
);
}
);
width = 601;
}
);
note = emacron;
unicode = 275;
},
{
glyphname = eogonek;
kernLeft = c;
kernRight = ae;
lastChange = "2022-11-29 13:20:18 +0000";
layers = (
{
hints = (
{
horizontal = 1;
place = (-4, 21);
target = up;
type = BottomGhost;
},
{
horizontal = 1;
place = (222, 110);
place = (222, 110);
type = Stem;
},
{
horizontal = 1;
place = (426, 122);
place = (426, 122);
type = Stem;
},
{
place = (24, 178);
place = (24, 178);
type = Stem;
},
{
horizontal = 1;
place = (-11, 21);
target = up;
type = BottomGhost;
},
{
horizontal = 1;
place = (-223, 102);
place = (-223, 102);
type = Stem;
},
{
place = (191, 249);
place = (191, 249);
type = Stem;
}
);
layerId = m01;
shapes = (
{
closed = 1;
nodes = (
(577,412,o),
(487,548,o),
(309,548,cs),
(131,548,o),
(24,421,o),
(24,265,cs),
(24,96,o),
(123,5,o),
(254,-11,c),
(219,-40,o),
(191,-88,o),
(191,-137,cs),
(191,-201,o),
(239,-223,o),
(305,-223,cs),
(360,-223,o),
(399,-207,o),
(434,-184,cs),
(444,-177,o),
(449,-167,o),
(449,-155,cs),
(449,-133,o),
(427,-116,o),
(406,-120,cs),
(403,-121,o),
(399,-121,o),
(396,-121,cs),
(376,-121,o),
(355,-108,o),
(355,-70,cs),
(355,-40,o),
(368,-14,o),
(385,-4,c),
(390,-3,o),
(395,-1,o),
(399,0,cs),
(437,12,o),
(469,30,o),
(496,55,cs),
(511,69,o),
(520,89,o),
(520,111,cs),
(520,153,o),
(486,188,o),
(443,188,cs),
(415,188,o),
(391,171,o),
(378,147,cs),
(364,121,o),
(338,108,o),
(301,108,cs),
(250,108,o),
(211,133,o),
(202,222,c),
(482,222,ls),
(542,222,o),
(577,274,o),
(577,274,cs)
);
},
{
closed = 1;
nodes = (
(348,426,o),
(379,395,o),
(389,332,c),
(208,332,l),
(220,398,o),
(253,426,o),
(300,426,cs)
);
}
);
width = 601;
}
);
note = eogonek;
unicode = 281;
},
{
glyphname = f;
lastChange = "2022-11-29 13:20:18 +0000";
layers = (
{
hints = (
{
horizontal = 1;
place = (0, 21);
target = up;
type = BottomGhost;
},
{
horizontal = 1;
place = (418, 112);
place = (418, 112);
type = Stem;
},
{
horizontal = 1;
place = (631.73, 122.27);
place = (631.73, 122.27);
type = Stem;
},
{
place = (76, 180);
place = (76, 180);
type = Stem;
},
{
horizontal = 1;
place = (746, -20);
target = down;
type = TopGhost;
}
);
layerId = m01;
shapes = (
{
closed = 1;
nodes = (
(261,608,o),
(286,627,o),
(328,631,cs),
(359,634,o),
(384,661,o),
(384,693,cs),
(384,726,o),
(357,752,o),
(325,754,cs),
(314,754,ls),
(149,754,o),
(85,692,o),
(77,592,cs),
(76,574,o),
(76,550,o),
(76,534,cs),
(76,530,l),
(66,530,ls),
(35,530,o),
(10,505,o),
(10,474,cs),
(10,443,o),
(35,418,o),
(66,418,cs),
(76,418,l),
(76,81,ls),
(76,32,o),
(116,-9,o),
(166,-9,cs),
(216,-9,o),
(256,32,o),
(256,81,cs),
(256,418,l),
(311,418,ls),
(346,418,o),
(365,442,o),
(365,485,cs),
(365,515,o),
(341,539,o),
(311,539,cs),
(295,539,o),
(266,545,o),
(256,534,c),
(256,547,o),
(256,560,o),
(257,574,cs)
);
}
);
width = 378;
}
);
note = f;
unicode = 102;
},
{
glyphname = g;
kernLeft = c;
lastChange = "2022-11-29 13:20:18 +0000";
layers = (
{
hints = (
{
horizontal = 1;
place = (-220, 132);
place = (-220, 132);
type = Stem;
},
{
horizontal = 1;
place = (6, 122);
place = (6, 122);
type = Stem;
},
{
horizontal = 1;
place = (426, 108);
place = (426, 108);
type = Stem;
},
{
place = (24, 184);
place = (24, 184);
type = Stem;
},
{
place = (435, 180);
place = (435, 180);
type = Stem;
},
{
horizontal = 1;
place = (426, 122);
place = (426, 122);
type = Stem;
},
{
place = (37, 174);
place = (37, 174);
type = Stem;
}
);
layerId = m01;
shapes = (
{
closed = 1;
nodes = (
(615,453,ls),
(615,502,o),
(575,543,o),
(525,543,cs),
(479,543,o),
(441,509,o),
(435,465,c),
(418,494,ls),
(406,514,o),
(385,533,o),
(339,542,cs),
(319,546,o),
(297,548,o),
(277,548,cs),
(140,548,o),
(24,453,o),
(24,263,cs),
(24,105,o),
(124,6,o),
(269,6,cs),
(296,6,o),
(319,9,o),
(340,14,cs),
(383,25,o),
(404,53,o),
(429,89,cs),
(435,98,l),
(435,83,ls),
(435,54,o),
(434,29,o),
(433,13,cs),
(428,-59,o),
(379,-88,o),
(312,-88,cs),
(287,-88,o),
(264,-84,o),
(247,-76,cs),
(208,-57,o),
(204,-14,o),
(162,-1,cs),
(152,2,o),
(142,4,o),
(131,4,cs),
(114,4,o),
(96,2,o),
(79,-4,cs),
(45,-16,o),
(34,-56,o),
(57,-104,cs),
(95,-180,o),
(181,-220,o),
(307,-220,cs),
(488,-220,o),
(608,-142,o),
(614,33,cs),
(615,62,o),
(615,103,o),
(615,136,cs)
);
},
{
closed = 1;
nodes = (
(258,128,o),
(208,176,o),
(208,276,cs),
(208,385,o),
(256,426,o),
(326,426,cs),
(380,426,o),
(435,390,o),
(435,283,cs),
(435,280,ls),
(435,168,o),
(387,128,o),
(321,128,cs)
);
}
);
width = 669;
}
);
note = g;
unicode = 103;
},
